<?xml version="1.0" encoding="utf-8"?>
<!-- Generator: Adobe Illustrator 26.3.1, SVG Export Plug-In . SVG Version: 6.00 Build 0)  -->
<svg version="1.1" id="Vintagio_Design" xmlns="http://www.w3.org/2000/svg" xmlns:xlink="http://www.w3.org/1999/xlink" x="0px"
	 y="0px" viewBox="0 0 500 500" style="enable-background:new 0 0 500 500;" xml:space="preserve">
<style type="text/css">
	.st0{fill-rule:evenodd;clip-rule:evenodd;fill:#EDEDED;}
	.st1{opacity:0.5;fill-rule:evenodd;clip-rule:evenodd;fill:#FFFFFF;enable-background:new    ;}
	.st2{opacity:0.9;fill-rule:evenodd;clip-rule:evenodd;fill:#FFFFFF;enable-background:new    ;}
	.st3{opacity:0.2;fill-rule:evenodd;clip-rule:evenodd;fill:#CBBEBB;enable-background:new    ;}
	.st4{fill-rule:evenodd;clip-rule:evenodd;fill:#CBBEBB;}
	.st5{opacity:0.2;fill-rule:evenodd;clip-rule:evenodd;fill:#FFFFFF;enable-background:new    ;}
	.st6{opacity:0.3;fill-rule:evenodd;clip-rule:evenodd;fill:#FFFFFF;enable-background:new    ;}
</style>
<g id="c">
	<g>
		<g>
			<path class="st0" d="M325.4,212.7c0.1,3.6-1,7.1-3,10c-3.1,4.6-8.2,7.8-14.6,7.8H192.6c-6.9,0-13.2-4-15.9-10.3
				c-1-2.3-1.6-4.9-1.9-7.5c-0.2-1.6-0.2-3.3-0.2-4.9c0.6-13.4,9.2-26.9,22.2-25c0,0,0,0,0,0c-0.2-1.9-0.1-3.8,0.1-5.7
				c3.1-25.1,41.9-40,59-11.9c1.4,2.3,2.6,4.8,3.7,7.6c17.3-16.6,47.3,0.5,41.7,23.3c-3.8,15.2-3.8,15.2,0,0
				c10.1-1.4,17,1.9,20.8,7.2C324.3,206.2,325.3,209.5,325.4,212.7L325.4,212.7z"/>
			<path class="st1" d="M257.1,179.7c-0.2,3-1,6.5-3.8,7.8c-2.4,1.1-5.2,0.1-7.4-1.4c-2.2-1.4-4.2-3.3-6.7-4c-5-1.5-10,1.8-13.8,5.3
				c-3.8,3.5-7.6,7.7-12.7,8.4c-4.6,0.7-9.3-1.8-12.2-5.4c-1.8-2.2-2.9-4.9-3.7-7.6c0,0,0,0,0,0c-2.6-28.4,40.7-47.7,59.1-17.6
				C257,169.9,257.4,174.8,257.1,179.7L257.1,179.7z"/>
			<path class="st1" d="M212.7,199.9c-2.7,2.5-7.2,1.2-10.6,2.8c-4.4,2.1-5,8.2-8.4,11.7c-3.6,3.6-10,3.4-14.1,0.4l-0.1-0.1
				c-3.7-2.8-5.2-7.5-4.3-12.1c2.3-11.5,10.3-21.4,21.6-19.9c0,0,0,0,0.1,0c-0.2-1.9-0.1-3.8,0.1-5.7c6.7,1.2,12.9,5.6,15.9,11.8
				c0.8,1.7,1.4,3.5,1.6,5.4C214.6,196.3,214.2,198.5,212.7,199.9L212.7,199.9z"/>
			<path class="st2" d="M234,156.2c-0.8-1.4-2.2-2.2-3.8-2.2c-3.9-0.1-7.8,0.3-11.2,2.2c-1,0.6-2.1,1.4-2.4,2.5
				c-0.2,0.5-0.2,1.1-0.2,1.6c0,1.1,0.3,2.3,1.1,3.2c0.7,0.8,1.9,1.2,2.9,1.1s2.1-0.5,3-1.1c0.7-0.5,1.3-1,1.9-1.5
				c1.2-0.9,2.6-1.4,4.1-1.7c1.2-0.2,2.4-0.3,3.4-0.9C233.8,158.6,234.6,157.2,234,156.2L234,156.2L234,156.2z"/>
			<path class="st2" d="M211.7,165c-0.7,0-1.4,0.2-1.9,0.6c-1.1,0.9-1.9,2.1-2.5,3.4c-0.3,0.8-0.5,1.6-0.4,2.5
				c0.1,0.9,0.6,1.7,1.4,2c0.6,0.3,1.3,0.3,1.9,0.2c2.1-0.4,4.1-1.9,4.8-4c0.3-0.8,0.4-1.7,0.2-2.6v0c-0.3-1.2-1.4-2-2.6-2.1
				L211.7,165L211.7,165z"/>
			<path class="st2" d="M192.6,187.2c-3.1,0.5-6,2.1-7.9,4.6c-1.7,2.2-2.8,4.8-3.3,7.5c-0.1,0.8-0.1,1.8,0.5,2.3
				c0.4,0.3,0.9,0.4,1.4,0.4c0.8,0.1,1.6,0.1,2.4-0.3c1.2-0.6,1.7-2,2.1-3.2c1-2.5,2.6-5.1,5.1-5.9c0.2-0.1,0.3-0.1,0.5-0.1
				c0.9-0.2,1.7-0.9,2.1-1.7C196.5,188.7,194.4,186.9,192.6,187.2C192.6,187.2,192.6,187.2,192.6,187.2z"/>
			<path class="st2" d="M263.5,174.5c-0.7,0.5-1.3,1.1-1.7,1.9c-0.4,0.7-0.5,1.5-0.2,2.2c0.6,1.8,2.7,1.8,4.2,1.1
				c1.2-0.6,2.1-1.7,3.2-2.5c1.7-1.3,3.9-2.1,6-2.6c0.7-0.2,1.4-0.4,1.9-0.8c0.6-0.4,0.9-1.2,0.6-1.9c-0.3-0.7-1.2-0.9-1.9-1
				c-2.4-0.3-4.9,0.1-7.1,1.1l-1.1,0.4C266,172.9,264.7,173.6,263.5,174.5z"/>
			<path class="st3" d="M302.7,203.1c1.7-0.1,3.3-0.1,4.9,0c2.8,0.3,5.7,1.4,7.5,3.6c5,5.8,1.1,14.5-5.6,16.5
				c-2.8,0.9-5.8,0.9-8.8,0.7c-3.9-0.2-7.9-0.7-11.2-2.8c-4.4-2.9-6-9.6-1.8-13.5c1.6-1.5,3.7-2.3,5.8-2.9
				C296.4,204,299.6,203.3,302.7,203.1L302.7,203.1z"/>
			<path class="st3" d="M271.9,212.1c-1.6,0.7-2.9,1.8-3.6,2.8c-0.6,1-0.5,2.1-0.1,3.1c0.3,0.8,0.6,1.5,1.2,2.1
				c1.7,1.6,5.7,1.6,7.6,0.4c1.6-1,2.9-3.5,2.6-5.4c-0.2-1.3-1.4-2.7-2.5-3.4C275.8,210.9,273.7,211.3,271.9,212.1L271.9,212.1z"/>
		</g>
		<path class="st4" d="M315.5,265.9c0,4.2-2.6,7.8-6.3,9.3c-0.7,0.3-1.1,1.1-0.8,1.8c0.5,1.2,0.7,2.4,0.7,3.7c0,4.8-3.4,8.8-7.9,9.7
			c-0.8,0.2-1.3,1-1,1.8c0.5,1.4,0.7,3,0.5,4.6c-0.7,5-5.1,8.6-10.1,8.6h-3.1c-1,0-1.6,1-1.3,1.9c0.3,0.9,0.4,1.9,0.4,3
			c0,4.8-3.4,8.8-7.9,9.7c-0.8,0.2-1.3,1-1,1.9c0.4,1,0.6,2.1,0.6,3.2c0,3.5-1.8,6.5-4.5,8.3c-0.6,0.4-0.8,1.2-0.5,1.9
			c0.7,1.4,1.1,3,1.1,4.6c0,2.8-1.1,5.2-2.9,7c-2.2,2.2-5.3,3.3-8.7,2.8c-4-0.7-7.3-3.8-8.1-7.8c-0.7-3.6,0.5-6.9,2.8-9.1
			c0.5-0.5,0.6-1.3,0.2-1.9c-1.2-1.6-1.9-3.7-1.9-5.9c0-2.3,0.8-4.4,2.1-6.1c0.4-0.6,0.4-1.4-0.1-1.9c-0.7-0.7-1.3-1.6-1.7-2.5
			c-0.7-1.3-1-2.8-1-4.4s0.4-3,1-4.2c0.1-0.1,0.1-0.2,0.1-0.3c0.2-0.4,0.2-0.7,0.1-1.1c-0.1-0.3-0.3-0.6-0.6-0.8
			c-2.8-1.8-4.7-4.9-4.7-8.4c0-1,0.2-2,0.5-3c0.3-0.9-0.4-1.9-1.4-1.9c-2.6,0-5.1-1-6.9-2.6c-1.8-1.6-3.1-3.9-3.3-6.6
			c-0.1-1.3,0-2.6,0.4-3.7c0.3-0.9-0.4-1.9-1.3-1.9h-2.9c-2.8,0-5.2-1.1-7-2.9c-1.8-1.8-2.9-4.3-2.9-7c0-1.1,0.2-2.1,0.5-3
			c0.3-0.9-0.4-1.9-1.4-1.9h-7.3c-5.3,0-10-4-10.3-9.3c-0.4-5.8,4.2-10.6,9.9-10.6h76.9c5,0,9.5,3.6,10.1,8.6
			c0.2,1.6,0.1,3.1-0.4,4.4c-0.3,0.9,0.4,1.9,1.4,1.9h0.1c2.8,0,5.2,1.1,7,2.9C314.4,260.6,315.5,263.1,315.5,265.9L315.5,265.9z"/>
		<path class="st5" d="M263.3,264.8c-1.7,6.1-4.4,12.2-4.4,18.5c0,6.5,2.9,13.4,0.3,19.4c-0.3,0.7-0.7,1.4-1.3,1.7
			c-0.5,0.3-1.1,0.4-1.8,0.4c-0.1-0.3-0.3-0.6-0.6-0.8c-2.8-1.8-4.7-4.9-4.7-8.4c0-1,0.2-2,0.5-3s-0.5-1.9-1.5-1.9
			c-2.6,0-5-1-6.8-2.6c-1.8-1.6-3.1-3.9-3.3-6.6c-0.1-1.3,0-2.6,0.4-3.7c0.3-0.9-0.4-1.9-1.3-1.9h-2.9c-2.8,0-5.2-1.1-7-2.9
			c-1.8-1.8-2.9-4.3-2.9-7c0-1.1,0.2-2.1,0.5-3c0.3-1-0.4-1.9-1.3-1.9h-7.3c-5.3,0-10-4-10.3-9.3c-0.3-5.8,4.2-10.6,9.9-10.6h32.4
			c2.7,0,5.4,0.6,7.8,2c1.5,0.9,2.9,2,3.9,3.4C265.4,251.5,265,258.6,263.3,264.8L263.3,264.8z"/>
		<path class="st6" d="M213.2,252.3c-0.1-0.1-0.1-0.2-0.2-0.3c-0.5-1.2,0.1-2.8,1.2-3.6c2.2-1.8,5.7-1.9,8.4-2
			c3.4-0.1,6.9-0.3,10.3-0.4c2.2,0,5.7,0,6.8,2.4c0.3,0.6,0.3,1.4,0.3,2.1c0,0.7-0.1,1.5-0.4,2.1c-0.5,1-1.4,1.7-2.5,2
			c-1,0.4-2.1,0.4-3.2,0.5c-3.3,0.2-6.6,0.1-9.9-0.2c-1.7-0.1-3.4-0.3-5-0.6c-1.4-0.2-3.1-0.3-4.4-0.9
			C214,253.2,213.5,252.8,213.2,252.3L213.2,252.3z"/>
	</g>
</g>
</svg>
