<?xml version="1.0" encoding="utf-8"?>
<!-- Generator: Adobe Illustrator 26.3.1, SVG Export Plug-In . SVG Version: 6.00 Build 0)  -->
<svg version="1.1" id="Vintagio_Design" xmlns="http://www.w3.org/2000/svg" xmlns:xlink="http://www.w3.org/1999/xlink" x="0px"
	 y="0px" viewBox="0 0 500 500" style="enable-background:new 0 0 500 500;" xml:space="preserve">
<style type="text/css">
	.st0{fill-rule:evenodd;clip-rule:evenodd;fill:#CBBEBB;}
	.st1{opacity:0.2;fill-rule:evenodd;clip-rule:evenodd;fill:#FFFFFF;enable-background:new    ;}
	.st2{opacity:0.3;fill-rule:evenodd;clip-rule:evenodd;fill:#FFFFFF;enable-background:new    ;}
	.st3{fill-rule:evenodd;clip-rule:evenodd;fill:#EDEDED;}
	.st4{opacity:0.5;fill-rule:evenodd;clip-rule:evenodd;fill:#FFFFFF;enable-background:new    ;}
	.st5{opacity:0.9;fill-rule:evenodd;clip-rule:evenodd;fill:#FFFFFF;enable-background:new    ;}
	.st6{opacity:0.2;fill-rule:evenodd;clip-rule:evenodd;fill:#CBBEBB;enable-background:new    ;}
</style>
<g id="c">
	<g>
		<g>
			<path class="st0" d="M341.5,273.5H240.8c-5,0-9-4.4-8.4-9.3c0-0.1,0-0.2,0-0.2c1.4-10.8,10.1-19.3,20.9-20.4c3.4-0.3,6.6,0,9.5,1
				c0.1-0.1,0.1-0.3,0.2-0.5c4.7-11.1,15.8-19,28.7-19c2.9,0,5.8,0.4,8.4,1.2c10.1,2.8,18.1,10.6,21.2,20.5c3.1-1.2,6.5-1.8,10-1.4
				c9.6,1,17.3,8.7,18.4,18.3c0,0.3,0.1,0.6,0.1,1C350.3,269.5,346.4,273.5,341.5,273.5L341.5,273.5z"/>
			<path class="st1" d="M302.6,239.9c-2.5,4.2-7.8,5.7-12,8.4c-5.7,3.7-10,10.3-16.7,11.4c-1.8,0.3-3.8,0.1-5.5-0.8
				c-1.9-1.1-3.1-3-4-5.1c-0.9-2.2-1.4-4.6-1.5-7c-0.1-1.8,0.3-3.5,1.1-5.1c5.2-9.9,15.6-16.7,27.6-16.7c0.8,0,1.6,0,2.3,0.1
				c5.6,0.4,10.1,5,9.8,10.6C303.8,237.2,303.4,238.6,302.6,239.9L302.6,239.9z"/>
			<path class="st2" d="M290.6,230.4c-0.5,0-1.1,0-1.6,0c-1.9,0.1-3.9,0.4-5.7,1.3c-1.2,0.6-2.3,1.2-3.3,2c-1.6,1.2-3.1,3-2.5,5
				c0.3,1.1,1.2,1.9,2.2,2.2c1.6,0.4,2.9-0.6,4-1.5c1.4-1.2,2.9-2.3,4.5-3.3c0.7-0.4,1.5-0.8,2.3-1.1c0.7-0.2,1.6-0.1,2.2-0.6
				c0.4-0.3,0.5-0.8,0.5-1.3c0-0.7-0.1-1.6-0.7-2.1c-0.4-0.4-1-0.5-1.5-0.5C290.9,230.4,290.7,230.4,290.6,230.4L290.6,230.4z"/>
			<path class="st2" d="M274.3,240.9c0.3,0,0.7,0.1,0.9,0.3c0.7,0.5,1.3,1.5,1.4,2.4c0.1,1.2-0.7,2.4-1.8,2.9
				c-0.5,0.2-1.2,0.3-1.7,0.2c-0.5-0.1-0.9-0.3-1.2-0.7c-0.8-1-0.4-2.7,0.1-3.7C272.4,241.6,273.4,240.9,274.3,240.9L274.3,240.9z"
				/>
			<path class="st2" d="M257.5,248.9L257.5,248.9c-1.5-0.2-3.1,0.1-4.5,0.4c-1.5,0.3-2.9,0.8-4.2,1.5c-1.1,0.6-2,1.6-2.5,2.7
				c-0.4,1.1-0.7,2.7,0.6,3.3c0.5,0.2,1,0.3,1.6,0.2c1.2-0.2,2.3-0.9,3.4-1.6c1.4-0.9,2.7-1.7,4.4-1.8c0.8-0.1,1.6,0,2.3-0.2
				c1.2-0.3,1.8-1.5,1.5-2.7C259.7,249.7,258.6,249.1,257.5,248.9L257.5,248.9z"/>
		</g>
		<g>
			<path class="st0" d="M221,218.2c-0.2-7.6-4.1-14.2-10.1-18.2c-3.4-2.3-7.5-3.7-11.8-3.8c-8.8-0.2-16.4,4.5-20.3,11.7
				c-2.1,3.8-5.4,6.8-9.3,8.5c-2.2,1-4.7,1.5-7.2,1.5h-0.5c-6.5,0-11.7,5.2-11.7,11.7c0,3.2,1.3,6.2,3.4,8.3
				c2.1,2.1,5.1,3.4,8.3,3.4h36.8C211.1,241.2,221.3,230.9,221,218.2L221,218.2z"/>
			<path class="st1" d="M211.9,209.1c-1.6,2.1-4.6,2.5-7.3,2.7c-4.4,0.4-9.2,1-12.3,4.1c-1.8,1.8-2.8,4.3-4.4,6.3
				c-1.9,2.5-4.8,4.4-7.9,4.8c-3.2,0.4-6.6-0.8-8.4-3.4c-0.2-0.3-0.4-0.7-0.6-1.1c-1.3-3-0.3-6.4,2.3-8.3c2.2-1.6,4.1-3.8,5.5-6.3
				c3.9-7.1,11.6-11.9,20.3-11.7c3,0.1,5.9,0.8,8.5,1.9c2.6,1.2,4.6,3.6,5.1,6.4C213.1,206.2,212.9,207.8,211.9,209.1L211.9,209.1z"
				/>
			<path class="st2" d="M202.3,199.9c-1.6-1.6-5.7-1.3-7.3-0.6c-1,0.4-2.1,1.1-2.3,2.2c-0.3,1.1,0.4,2.3,1.5,2.5
				c1.2,0.3,2.3-0.5,3.4-0.8c1.3-0.3,2.6-0.4,3.9-0.4c0.3,0,0.6,0,0.9-0.1C203.4,202.3,202.9,200.6,202.3,199.9L202.3,199.9z"/>
			<path class="st2" d="M189.8,206.8c0.4-0.3,0.6-0.8,0.5-1.3c-0.1-0.4-0.3-0.7-0.6-0.9c-0.2-0.2-0.4-0.4-0.6-0.4
				c-1-0.4-2.4,0.6-2.4,1.6c0,0.7,0.6,1.5,1.3,1.7C188.5,207.7,189.2,207.3,189.8,206.8C189.7,206.9,189.7,206.9,189.8,206.8z"/>
		</g>
		<g>
			<path class="st3" d="M315.6,285.6c0.1,3.6-1,7.2-3,10.2c-3.1,4.7-8.4,8-14.9,8H180.2c-7,0-13.5-4.1-16.2-10.5
				c-1-2.4-1.6-5-1.9-7.6c-0.2-1.6-0.2-3.3-0.2-5c0.6-13.7,9.4-27.4,22.6-25.5c0,0,0,0,0.1,0c-0.2-2-0.1-3.9,0.1-5.8
				c3.1-25.6,42.7-40.8,60.2-12.2c1.4,2.3,2.7,4.9,3.8,7.8c17.6-16.9,48.3,0.5,42.5,23.7c-3.8,15.5-3.8,15.5,0,0
				c10.3-1.5,17.3,2,21.2,7.3C314.5,279,315.6,282.3,315.6,285.6L315.6,285.6z"/>
			<path class="st4" d="M246,251.9c-0.2,3.1-1.1,6.6-3.9,8c-2.4,1.1-5.3,0.1-7.5-1.4c-2.2-1.5-4.3-3.4-6.8-4.1
				c-5.1-1.5-10.2,1.8-14.1,5.4c-3.9,3.6-7.8,7.8-13,8.6c-4.7,0.7-9.5-1.8-12.4-5.6c-1.8-2.3-3-5-3.8-7.8c0,0,0,0,0.1,0
				c-2.7-28.9,41.5-48.7,60.3-17.9C245.9,242,246.3,247,246,251.9L246,251.9z"/>
			<path class="st4" d="M200.7,272.6c-2.8,2.6-7.4,1.2-10.8,2.8c-4.5,2.1-5.1,8.4-8.6,11.9c-3.7,3.7-10.2,3.5-14.4,0.4l-0.1-0.1
				c-3.8-2.8-5.3-7.7-4.4-12.3c2.3-11.7,10.5-21.9,22-20.2c0,0,0,0,0.1,0c-0.2-2-0.1-3.9,0.1-5.8c6.8,1.2,13.1,5.7,16.2,12
				c0.8,1.7,1.5,3.6,1.6,5.5C202.7,268.8,202.3,271.1,200.7,272.6L200.7,272.6z"/>
			<path class="st5" d="M222.4,228c-0.8-1.4-2.2-2.3-3.8-2.3c-4-0.1-8,0.3-11.4,2.2c-1.1,0.6-2.1,1.4-2.5,2.6
				c-0.2,0.5-0.2,1.1-0.2,1.6c0,1.2,0.3,2.4,1.1,3.2c0.8,0.8,1.9,1.2,3,1.1c1.1-0.1,2.2-0.5,3.1-1.1c0.7-0.5,1.3-1.1,2-1.5
				c1.2-0.9,2.7-1.5,4.2-1.8c1.2-0.2,2.4-0.3,3.5-0.9S223,229,222.4,228L222.4,228L222.4,228z"/>
			<path class="st5" d="M199.7,236.9c-0.7,0-1.4,0.2-2,0.6c-1.1,0.9-2,2.1-2.5,3.4c-0.3,0.8-0.5,1.7-0.4,2.5s0.6,1.7,1.4,2.1
				c0.6,0.3,1.3,0.3,2,0.2c2.2-0.4,4.1-2,4.9-4.1c0.3-0.8,0.4-1.8,0.2-2.6v0c-0.3-1.2-1.4-2-2.7-2.1L199.7,236.9L199.7,236.9z"/>
			<path class="st5" d="M180.2,259.6c-3.2,0.5-6.1,2.1-8.1,4.7c-1.7,2.2-2.9,4.9-3.3,7.7c-0.1,0.8-0.1,1.8,0.5,2.4
				c0.4,0.3,0.9,0.4,1.4,0.4c0.8,0.1,1.7,0.1,2.4-0.3c1.2-0.6,1.7-2,2.2-3.2c1-2.6,2.6-5.2,5.2-6.1c0.2,0,0.3-0.1,0.5-0.1
				c0.9-0.3,1.8-0.9,2.2-1.8C184.2,261.1,182.1,259.2,180.2,259.6L180.2,259.6L180.2,259.6z"/>
			<path class="st5" d="M252.6,246.6c-0.7,0.5-1.3,1.1-1.7,1.9c-0.4,0.7-0.5,1.5-0.2,2.3c0.6,1.8,2.8,1.9,4.3,1.1
				c1.2-0.7,2.2-1.7,3.3-2.6c1.8-1.4,3.9-2.1,6.1-2.7c0.7-0.2,1.4-0.4,2-0.8s0.9-1.3,0.6-1.9c-0.3-0.7-1.2-0.9-1.9-1
				c-2.5-0.3-5,0.1-7.3,1.1l-1.1,0.4C255.1,245,253.8,245.7,252.6,246.6L252.6,246.6z"/>
			<path class="st6" d="M292.5,275.8c1.7-0.1,3.4-0.1,5,0c2.9,0.3,5.8,1.4,7.7,3.6c5.1,5.9,1.1,14.8-5.7,16.9
				c-2.9,0.9-5.9,0.9-8.9,0.8c-4-0.2-8.1-0.7-11.4-2.8c-4.5-3-6.1-9.8-1.9-13.8c1.6-1.5,3.8-2.3,5.9-2.9
				C286.1,276.7,289.3,276,292.5,275.8L292.5,275.8z"/>
			<path class="st6" d="M261.1,285c-1.6,0.8-3,1.9-3.7,2.9c-0.7,1-0.5,2.1-0.1,3.2c0.3,0.8,0.6,1.6,1.2,2.1c1.8,1.6,5.8,1.6,7.8,0.4
				c1.7-1,3-3.6,2.7-5.5c-0.2-1.3-1.4-2.8-2.5-3.4C265.1,283.8,263,284.1,261.1,285L261.1,285z"/>
		</g>
	</g>
</g>
</svg>
