<?xml version="1.0" encoding="utf-8"?>
<!-- Generator: Adobe Illustrator 26.3.1, SVG Export Plug-In . SVG Version: 6.00 Build 0)  -->
<svg version="1.1" id="Vintagio_Design" xmlns="http://www.w3.org/2000/svg" xmlns:xlink="http://www.w3.org/1999/xlink" x="0px"
	 y="0px" viewBox="0 0 500 500" style="enable-background:new 0 0 500 500;" xml:space="preserve">
<style type="text/css">
	.st0{fill-rule:evenodd;clip-rule:evenodd;fill:#EDEDED;}
	.st1{opacity:0.5;fill-rule:evenodd;clip-rule:evenodd;fill:#FFFFFF;enable-background:new    ;}
	.st2{fill-rule:evenodd;clip-rule:evenodd;fill:#FB636A;}
	.st3{fill-rule:evenodd;clip-rule:evenodd;fill:#FFC34A;}
	.st4{opacity:0.6;fill-rule:evenodd;clip-rule:evenodd;fill:#FFE332;enable-background:new    ;}
	.st5{opacity:0.15;fill-rule:evenodd;clip-rule:evenodd;fill:#FFFFFF;enable-background:new    ;}
	.st6{fill-rule:evenodd;clip-rule:evenodd;}
	.st7{fill-rule:evenodd;clip-rule:evenodd;fill:#FFE332;}
	.st8{opacity:0.2;fill-rule:evenodd;clip-rule:evenodd;fill:#FFFFFF;enable-background:new    ;}
	.st9{opacity:0.3;fill-rule:evenodd;clip-rule:evenodd;fill:#FFFFFF;enable-background:new    ;}
</style>
<g id="c">
	<g>
		<path class="st0" d="M244.1,316.4c0,18.6-15,33.6-33.6,33.6s-33.6-15-33.6-33.6c0-13,7.4-24.3,18.3-29.9V165.3
			c0-8.5,6.9-15.3,15.3-15.3c2.1,0,4.1,0.4,5.9,1.2c5.5,2.3,9.4,7.8,9.4,14.1v121.2C236.6,292.1,244.1,303.4,244.1,316.4z"/>
		<path class="st1" d="M195.1,174.2v-8.8c0-8.5,6.9-15.3,15.3-15.3c2.1,0,4.1,0.4,5.9,1.2c0.8,1.2,1.3,2.6,1.4,4.1
			C218.6,166,206,173.6,195.1,174.2z"/>
		<path class="st2" d="M234.1,316.4c0,13-10.6,23.6-23.6,23.6c-4,0-7.8-1-11.1-2.8c-7.4-4-12.5-11.8-12.5-20.8s4.9-16.9,12.8-21
			l5.4-2.8V165.3c0-2.9,2.4-5.3,5.3-5.3s5.3,2.4,5.3,5.3v127.3l5.4,2.8C229.2,299.5,234.1,307.5,234.1,316.4z"/>
		<path class="st3" d="M307.5,200.5c0,14.4-11.7,26.2-26.2,26.2c-14.4,0-26.1-11.7-26.1-26.2c0-3.1,0.6-6.1,1.6-8.9
			c3.6-10.1,13.3-17.2,24.6-17.2c3.7,0,7.1,0.8,10.3,2.1C301,180.4,307.5,189.7,307.5,200.5z"/>
		<path class="st4" d="M284.5,192.9c-2.2-0.2-4.5-0.7-6.7-0.6c-3.7,0.2-6,2.1-7.8,5.2c-1.5,2.7-2.6,6-5.8,7.2
			c-1.4,0.5-3,0.4-4.1-0.6c-0.6-0.5-0.9-1.3-1.2-2l0-0.1c-2.8-6.9-1.2-14.9,4.2-20.1c4.7-4.6,11.2-7.5,18.4-7.5c2,0,3.9,0.2,5.8,0.6
			c4.1,0.9,7.4,4.2,8.1,8.4c0,0.2,0.1,0.4,0.1,0.5C296,190.3,290.3,193.6,284.5,192.9L284.5,192.9z"/>
		<path class="st5" d="M268.3,214c-0.2,1-0.1,2.1,0.3,3.1c2.5,5.6,11.7,8.6,16,3.5c1.8-2.1,2.1-5.2,0.4-7.5c-0.7-1-1.8-1.6-2.9-2.1
			c-3.5-1.6-9.4-3-12.4,0.1C269,211.9,268.5,212.9,268.3,214L268.3,214z"/>
		<path class="st6" d="M281.5,200.4c0,0.1-0.1,0.1-0.1,0.1c-0.1,0-0.1-0.1-0.1-0.1c0,0,0,0,0,0c0,0,0.1-0.1,0.1-0.1c0,0,0,0,0,0
			C281.5,200.4,281.5,200.4,281.5,200.4L281.5,200.4z"/>
		<path class="st3" d="M281.4,169.9L281.4,169.9c-1.6,0-2.9-1.2-3-2.8l-1-11.3c-0.1-1.2,0.8-2.1,2-2.1h4.1c1.2,0,2.1,1,2,2.1
			l-1,11.3C284.3,168.7,283,169.9,281.4,169.9L281.4,169.9z"/>
		<path class="st3" d="M255,185.1L255,185.1c-0.8,1.4-2.5,1.9-3.9,1.2l-10.3-4.8c-1.1-0.5-1.5-1.8-0.9-2.8l2.1-3.6
			c0.6-1,1.9-1.3,2.8-0.6l9.3,6.5C255.4,182,255.8,183.8,255,185.1z"/>
		<path class="st3" d="M255,215.6L255,215.6c0.8,1.4,0.4,3.1-0.9,4l-9.3,6.5c-0.9,0.7-2.3,0.4-2.8-0.6l-2.1-3.6
			c-0.6-1-0.2-2.3,0.9-2.8l10.3-4.8C252.5,213.7,254.2,214.2,255,215.6z"/>
		<path class="st3" d="M281.4,230.8L281.4,230.8c1.6,0,2.9,1.2,3,2.8l1,11.3c0.1,1.2-0.8,2.2-2,2.2h-4.1c-1.2,0-2.1-1-2-2.2l1-11.3
			C278.5,232,279.8,230.8,281.4,230.8L281.4,230.8z"/>
		<path class="st3" d="M307.8,215.6L307.8,215.6c0.8-1.4,2.5-1.9,3.9-1.2l10.3,4.8c1,0.5,1.5,1.8,0.9,2.8l-2.1,3.6
			c-0.6,1-1.9,1.3-2.8,0.6l-9.3-6.5C307.4,218.7,307,216.9,307.8,215.6z"/>
		<path class="st3" d="M307.8,185.1L307.8,185.1c-0.8-1.4-0.4-3.1,0.9-4l9.3-6.5c0.9-0.7,2.3-0.4,2.8,0.6l2.1,3.6
			c0.6,1,0.2,2.3-0.9,2.8l-10.3,4.8C310.2,187,308.5,186.5,307.8,185.1z"/>
		<path class="st7" d="M266.3,174.3L266.3,174.3c-0.6,0.3-1.4,0.2-1.8-0.4l-3.3-5.3c-0.5-0.8-0.2-1.8,0.5-2.2l0,0
			c0.8-0.4,1.8-0.2,2.2,0.6l2.9,5.5C267.1,173.2,266.9,174,266.3,174.3L266.3,174.3z"/>
		<path class="st7" d="M251.3,200.6L251.3,200.6c0,0.7-0.6,1.3-1.3,1.3l-6.2,0.2c-0.9,0-1.6-0.7-1.6-1.6l0,0c0-0.9,0.7-1.6,1.6-1.6
			l6.2,0.2C250.7,199.3,251.3,199.9,251.3,200.6z"/>
		<path class="st7" d="M266.5,226.7L266.5,226.7c0.6,0.3,0.8,1.1,0.5,1.8l-2.9,5.5c-0.4,0.8-1.4,1.1-2.2,0.6l0,0
			c-0.8-0.4-1-1.4-0.5-2.2l3.3-5.3C265.1,226.5,265.9,226.3,266.5,226.7L266.5,226.7z"/>
		<path class="st7" d="M296.7,226.6L296.7,226.6c0.6-0.3,1.4-0.2,1.8,0.4l3.3,5.3c0.5,0.8,0.2,1.8-0.5,2.2l0,0
			c-0.8,0.5-1.8,0.2-2.2-0.6l-2.9-5.5C295.9,227.7,296.1,226.9,296.7,226.6L296.7,226.6z"/>
		<path class="st7" d="M311.8,200.3L311.8,200.3c0-0.7,0.6-1.3,1.3-1.3l6.2-0.2c0.9,0,1.6,0.7,1.6,1.6l0,0c0,0.9-0.7,1.6-1.6,1.6
			l-6.2-0.2C312.3,201.6,311.8,201.1,311.8,200.3z"/>
		<path class="st7" d="M296.5,174.2L296.5,174.2c-0.6-0.3-0.8-1.1-0.5-1.8l2.9-5.5c0.4-0.8,1.4-1.1,2.2-0.6l0,0
			c0.8,0.4,1,1.4,0.5,2.2l-3.3,5.3C297.9,174.4,297.1,174.6,296.5,174.2L296.5,174.2z"/>
		<path class="st8" d="M209,300.1c-0.3,5.9-4.2,8.7-7.2,13.3c-1.8,2.7-2.5,6.1-2.1,9.3c0.5,3.8,2.6,7.5,1.6,11.2
			c-0.3,1.3-1,2.4-1.9,3.4c-7.4-4-12.5-11.8-12.5-20.8s4.9-16.9,12.8-21l5.4-2.8v0c1.4,0.8,2.5,1.9,3.1,3.3
			C208.9,297.2,209,298.7,209,300.1L209,300.1z"/>
		<path class="st9" d="M201.1,298.3c-0.2,0-0.4,0.1-0.6,0.2c-3,1.6-5.4,4.2-6.7,7.3c-0.4,0.9-0.7,2-0.4,3c0.3,0.8,1,1.4,1.9,1.3
			c1-0.1,1.6-1.3,2.1-2.2c1.2-2.4,2.8-4.5,4.8-6.2c0.3-0.3,0.7-0.6,0.9-1c0.1-0.1,0.1-0.2,0.1-0.3c0.4-1.1-0.7-2.3-1.9-2.1
			L201.1,298.3L201.1,298.3z"/>
	</g>
</g>
</svg>
