<?xml version="1.0" encoding="utf-8"?>
<!-- Generator: Adobe Illustrator 26.3.1, SVG Export Plug-In . SVG Version: 6.00 Build 0)  -->
<svg version="1.1" id="Vintagio_Design" xmlns="http://www.w3.org/2000/svg" xmlns:xlink="http://www.w3.org/1999/xlink" x="0px"
	 y="0px" viewBox="0 0 500 500" style="enable-background:new 0 0 500 500;" xml:space="preserve">
<style type="text/css">
	.st0{fill-rule:evenodd;clip-rule:evenodd;fill:#FFE67B;}
	.st1{opacity:0.6;}
	.st2{fill-rule:evenodd;clip-rule:evenodd;fill:#FFE332;}
	.st3{opacity:0.3;fill-rule:evenodd;clip-rule:evenodd;fill:#FFFFFF;enable-background:new    ;}
	.st4{fill-rule:evenodd;clip-rule:evenodd;fill:#EDEDED;}
	.st5{opacity:0.5;fill-rule:evenodd;clip-rule:evenodd;fill:#FFFFFF;enable-background:new    ;}
	.st6{opacity:0.9;fill-rule:evenodd;clip-rule:evenodd;fill:#FFFFFF;enable-background:new    ;}
	.st7{opacity:0.2;fill-rule:evenodd;clip-rule:evenodd;fill:#CBBEBB;enable-background:new    ;}
</style>
<g id="c">
	<g>
		<path class="st0" d="M350,275.6c-10.4,24.7-34.8,42.1-63.2,42.1c-37.9,0-68.6-30.7-68.6-68.6c0-1.7,0.1-3.3,0.2-5
			c2.2-30.2,24-55,52.7-61.8c-3.4,8.1-5.3,17.1-5.3,26.5c0,13.2,3.7,25.4,10.1,35.9c12.1,19.6,33.7,32.7,58.4,32.7
			C339.7,277.4,345,276.7,350,275.6L350,275.6z"/>
		<g class="st1">
			<path class="st2" d="M271.8,236.9c2.6,5.8,0.8,12.8-4.6,16.2l-0.1,0.1c-10.8,6.8-25.5,7.9-37,2c-3.1-1.5-5.7-3.6-8-6.1
				c-2.6-2.8-3.7-6.8-3.1-10.6c4.3-27.6,25.1-49.8,52.1-56.1c-3.4,8.1-5.3,17.1-5.3,26.5C265.8,218.8,267.9,228.3,271.8,236.9
				L271.8,236.9z"/>
		</g>
		<path class="st3" d="M237.3,214.6c-3,3-5.3,6.7-6.8,10.7c-1.6,4.3-3.5,11.6,0.9,14.9c1.5,1.1,3.5,1.4,5.2,0.9
			c3.9-1.3,5.1-5.8,6.1-9.7c1.1-4.2,2.6-8.4,4.5-12.3c0.4-0.9,0.9-1.9,1.1-2.9c0.2-1.7-0.4-3.4-1.8-4.5c-0.1-0.1-0.3-0.2-0.4-0.3
			c-2.3-1.4-4.8-0.2-6.6,1.3C238.6,213.2,237.9,213.9,237.3,214.6L237.3,214.6z"/>
		<g>
			<path class="st4" d="M286.4,287.9c0.1,3.2-0.9,6.4-2.7,9c-2.8,4.2-7.5,7.1-13.2,7.1H166.3c-6.2,0-11.9-3.6-14.4-9.4
				c-0.9-2.1-1.5-4.4-1.7-6.8c-0.2-1.5-0.2-3-0.1-4.5c0.5-12.1,8.4-24.3,20.1-22.6c0,0,0,0,0,0c-0.2-1.8-0.1-3.5,0.1-5.1
				c2.8-22.7,37.9-36.2,53.4-10.8c1.2,2,2.4,4.3,3.3,6.9c15.6-15,42.8,0.5,37.7,21c-3.4,13.7-3.4,13.7,0,0
				c9.1-1.3,15.3,1.8,18.8,6.5C285.4,282,286.3,285,286.4,287.9L286.4,287.9z"/>
			<path class="st5" d="M224.6,258c-0.2,2.7-0.9,5.9-3.4,7.1c-2.1,1-4.7,0.1-6.7-1.2c-2-1.3-3.8-3-6-3.7c-4.5-1.4-9.1,1.6-12.5,4.8
				c-3.4,3.2-6.9,6.9-11.5,7.6c-4.2,0.6-8.4-1.6-11-4.9c-1.6-2-2.7-4.4-3.3-6.9c0,0,0,0,0,0c-2.4-25.7,36.8-43.2,53.5-15.9
				C224.6,249.2,224.9,253.6,224.6,258L224.6,258z"/>
			<path class="st5" d="M184.5,276.3c-2.4,2.3-6.5,1.1-9.5,2.5c-4,1.9-4.5,7.4-7.6,10.6c-3.3,3.3-9,3.1-12.7,0.3l-0.1,0
				c-3.3-2.5-4.7-6.8-3.9-10.9c2-10.4,9.3-19.4,19.5-18c0,0,0,0,0,0c-0.2-1.8-0.1-3.5,0.1-5.1c6.1,1.1,11.7,5.1,14.4,10.6
				c0.8,1.5,1.3,3.2,1.4,4.9C186.2,273,185.8,275.1,184.5,276.3L184.5,276.3z"/>
			<path class="st6" d="M203.7,236.8c-0.7-1.2-2-2-3.4-2c-3.5-0.1-7.1,0.2-10.1,1.9c-1,0.5-1.9,1.2-2.2,2.3c-0.1,0.5-0.2,1-0.1,1.4
				c0,1,0.3,2.1,1,2.9c0.7,0.7,1.7,1,2.7,1c1-0.1,1.9-0.5,2.7-1c0.6-0.4,1.1-0.9,1.7-1.4c1.1-0.8,2.4-1.3,3.7-1.6
				c1.1-0.2,2.2-0.3,3.1-0.8C203.6,238.9,204.2,237.7,203.7,236.8L203.7,236.8L203.7,236.8z"/>
			<path class="st6" d="M183.5,244.7c-0.6,0-1.3,0.2-1.7,0.6c-1,0.8-1.8,1.9-2.3,3c-0.3,0.7-0.5,1.5-0.4,2.2
				c0.1,0.8,0.5,1.5,1.2,1.8c0.5,0.3,1.1,0.3,1.7,0.2c2-0.3,3.7-1.8,4.4-3.6c0.3-0.7,0.4-1.6,0.2-2.3v0c-0.3-1.1-1.2-1.8-2.3-1.9
				L183.5,244.7L183.5,244.7z"/>
			<path class="st6" d="M166.2,264.8c-2.8,0.4-5.5,1.9-7.2,4.2c-1.5,2-2.6,4.3-3,6.8c-0.1,0.7-0.1,1.6,0.5,2.1
				c0.3,0.3,0.8,0.3,1.2,0.4c0.7,0.1,1.5,0.1,2.1-0.2c1.1-0.5,1.5-1.8,1.9-2.9c0.9-2.3,2.3-4.6,4.7-5.4c0.1,0,0.3-0.1,0.4-0.1
				c0.8-0.2,1.6-0.8,1.9-1.6C169.8,266.2,167.9,264.5,166.2,264.8L166.2,264.8L166.2,264.8z"/>
			<path class="st6" d="M230.4,253.3c-0.6,0.5-1.2,1-1.5,1.7c-0.3,0.6-0.4,1.4-0.2,2c0.6,1.6,2.5,1.7,3.8,1c1.1-0.6,1.9-1.5,2.9-2.3
				c1.6-1.2,3.5-1.9,5.4-2.4c0.6-0.2,1.3-0.3,1.8-0.7c0.5-0.4,0.8-1.1,0.5-1.7c-0.3-0.6-1-0.8-1.7-0.9c-2.2-0.2-4.4,0.1-6.4,1
				l-1,0.4C232.7,251.9,231.5,252.5,230.4,253.3L230.4,253.3z"/>
			<path class="st7" d="M265.9,279.2c1.5-0.1,3-0.1,4.5,0c2.6,0.3,5.1,1.3,6.8,3.2c4.5,5.2,1,13.1-5.1,14.9
				c-2.5,0.8-5.3,0.8-7.9,0.7c-3.5-0.2-7.2-0.6-10.1-2.5c-4-2.6-5.4-8.7-1.7-12.2c1.4-1.4,3.4-2.1,5.3-2.6
				C260.2,280,263,279.4,265.9,279.2L265.9,279.2z"/>
			<path class="st7" d="M238,287.4c-1.4,0.7-2.6,1.7-3.3,2.6c-0.6,0.9-0.4,1.9-0.1,2.8c0.2,0.7,0.6,1.4,1.1,1.9
				c1.6,1.5,5.2,1.4,6.9,0.3c1.5-0.9,2.6-3.2,2.4-4.9c-0.2-1.2-1.2-2.4-2.2-3C241.5,286.2,239.6,286.6,238,287.4L238,287.4z"/>
		</g>
	</g>
</g>
</svg>
