<?xml version="1.0" encoding="utf-8"?>
<!-- Generator: Adobe Illustrator 26.3.1, SVG Export Plug-In . SVG Version: 6.00 Build 0)  -->
<svg version="1.1" id="Vintagio_Design" xmlns="http://www.w3.org/2000/svg" xmlns:xlink="http://www.w3.org/1999/xlink" x="0px"
	 y="0px" viewBox="0 0 500 500" style="enable-background:new 0 0 500 500;" xml:space="preserve">
<style type="text/css">
	.st0{fill-rule:evenodd;clip-rule:evenodd;fill:#CBBEBB;}
	.st1{opacity:0.2;fill-rule:evenodd;clip-rule:evenodd;fill:#FFFFFF;enable-background:new    ;}
	.st2{opacity:0.3;fill-rule:evenodd;clip-rule:evenodd;fill:#FFFFFF;enable-background:new    ;}
	.st3{fill-rule:evenodd;clip-rule:evenodd;fill:#FFE67B;}
	.st4{opacity:0.6;}
	.st5{fill-rule:evenodd;clip-rule:evenodd;fill:#FFE332;}
	.st6{fill-rule:evenodd;clip-rule:evenodd;fill:#EDEDED;}
	.st7{opacity:0.5;fill-rule:evenodd;clip-rule:evenodd;fill:#FFFFFF;enable-background:new    ;}
	.st8{opacity:0.9;fill-rule:evenodd;clip-rule:evenodd;fill:#FFFFFF;enable-background:new    ;}
	.st9{opacity:0.2;fill-rule:evenodd;clip-rule:evenodd;fill:#CBBEBB;enable-background:new    ;}
</style>
<g id="c">
	<g>
		<g>
			<path class="st0" d="M350,251.5c0,12.9-10.4,23.3-23.3,23.3c-10.7,0-19.7-7.2-22.5-17c-0.6-2-0.9-4.1-0.9-6.3
				c0-12.9,10.4-23.3,23.3-23.3c2.6,0,5.1,0.4,7.5,1.2c0,0,0,0,0,0C343.4,232.5,350,241.2,350,251.5z"/>
			<path class="st1" d="M337.8,242.4c-6,7.9-18,11.5-26.9,15.2c-0.2,0.1-0.4,0.1-0.7,0.2c-3.4,0.8-6.7-1.8-6.9-5.3c0-1,0-2,0.1-3
				c1-11.1,9.9-20.1,21-21.1c3.4-0.3,6.7,0.1,9.7,1.1c0,0,0,0,0,0C338.4,233,341.1,238,337.8,242.4L337.8,242.4z"/>
			<path class="st2" d="M324.6,231.1c-0.9,0-1.9,0.1-2.7,0.4c-1.5,0.5-3,1.2-4.2,2.2c-1.1,0.9-2,2.1-2.4,3.6
				c-0.1,0.6-0.1,1.3,0.4,1.7c1.1,1,3.3,0.3,4.4-0.3c0.9-0.5,1.7-1.3,2.6-1.9c1-0.6,2-1.1,3-1.5c0.4-0.2,0.9-0.3,1.2-0.7
				c0.5-0.5,0.7-1.5,0.4-2.2c-0.3-0.6-0.9-0.9-1.4-1.1C325.4,231.2,325,231.1,324.6,231.1L324.6,231.1z"/>
		</g>
		<g>
			<path class="st0" d="M295.7,196.4c-0.2-10.6-5.8-20-14.1-25.5c-4.8-3.2-10.5-5.1-16.6-5.3c-12.3-0.3-23.1,6.4-28.6,16.4
				c-3,5.4-7.6,9.6-13.1,11.9c-3.1,1.3-6.6,2.1-10.1,2.1h-0.7c-9.1,0-16.4,7.4-16.4,16.4c0,4.5,1.8,8.6,4.8,11.6
				c3,3,7.1,4.8,11.6,4.8h51.6C281.8,228.8,296.1,214.2,295.7,196.4z"/>
			<path class="st1" d="M282.9,183.6c-2.2,3-6.5,3.5-10.2,3.8c-6.2,0.5-12.8,1.4-17.2,5.7c-2.6,2.5-4,6-6.2,8.8
				c-2.7,3.5-6.7,6.2-11.2,6.7c-4.4,0.6-9.2-1.2-11.8-4.8c-0.3-0.4-0.6-0.9-0.8-1.5c-1.8-4.2-0.4-9,3.3-11.7
				c3.1-2.3,5.7-5.3,7.7-8.8c5.5-10,16.3-16.7,28.6-16.4c4.2,0.1,8.3,1.1,12,2.7c3.7,1.7,6.5,5,7.2,9
				C284.5,179.6,284.2,181.8,282.9,183.6L282.9,183.6z"/>
			<path class="st2" d="M269.4,170.7c-2.2-2.2-8-1.8-10.3-0.9c-1.4,0.5-2.9,1.6-3.3,3.1c-0.4,1.5,0.5,3.2,2.1,3.6
				c1.6,0.4,3.2-0.7,4.8-1.1c1.8-0.4,3.7-0.5,5.5-0.6c0.4,0,0.8,0,1.2-0.2C270.9,174.1,270.2,171.6,269.4,170.7L269.4,170.7z"/>
			<path class="st2" d="M252.9,179.5c0.5-0.5,0.8-1.1,0.7-1.8c-0.1-0.5-0.5-1-0.8-1.3c-0.2-0.2-0.5-0.5-0.9-0.6
				c-1.4-0.5-3.3,0.8-3.4,2.3c-0.1,0.9,0.9,2.1,1.8,2.4S252.1,180.1,252.9,179.5C252.9,179.5,252.9,179.5,252.9,179.5L252.9,179.5z"
				/>
		</g>
		<g>
			<path class="st3" d="M334.9,263c-7.6,18.1-25.5,30.9-46.4,30.9c-27.8,0-50.3-22.5-50.3-50.3c0-1.2,0-2.4,0.1-3.7
				c1.6-22.2,17.6-40.4,38.7-45.3c-2.5,6-3.9,12.5-3.9,19.4c0,9.7,2.7,18.7,7.4,26.3c8.9,14.4,24.7,24,42.9,24
				C327.4,264.3,331.2,263.8,334.9,263L334.9,263z"/>
			<g class="st4">
				<path class="st5" d="M277.5,234.6c1.9,4.3,0.6,9.4-3.4,11.9l-0.1,0c-7.9,5-18.7,5.8-27.1,1.5c-2.2-1.1-4.2-2.7-5.8-4.5
					c-1.9-2.1-2.7-5-2.3-7.8c3.2-20.3,18.4-36.5,38.2-41.1c-2.5,6-3.9,12.5-3.9,19.4C273.1,221.3,274.7,228.3,277.5,234.6
					L277.5,234.6z"/>
			</g>
			<path class="st2" d="M252.2,218.2c-2.2,2.2-3.9,4.9-5,7.9c-1.1,3.1-2.6,8.5,0.6,10.9c1.1,0.8,2.5,1.1,3.8,0.6
				c2.9-0.9,3.7-4.3,4.5-7.1c0.8-3.1,1.9-6.1,3.3-9.1c0.3-0.7,0.7-1.4,0.8-2.1c0.2-1.2-0.3-2.5-1.3-3.3c-0.1-0.1-0.2-0.2-0.3-0.2
				c-1.7-1-3.5-0.2-4.9,1C253.2,217.2,252.7,217.7,252.2,218.2L252.2,218.2z"/>
		</g>
		<g>
			<path class="st6" d="M325.4,313.7c0.1,4.1-1.2,8.2-3.4,11.6c-3.5,5.3-9.6,9.1-16.9,9.1H170.9c-8,0-15.4-4.7-18.5-12
				c-1.2-2.7-1.9-5.7-2.2-8.7c-0.2-1.9-0.3-3.8-0.2-5.7c0.7-15.6,10.7-31.2,25.8-29.1c0,0,0,0,0,0c-0.2-2.2-0.2-4.5,0.1-6.6
				c3.6-29.2,48.7-46.5,68.7-13.9c1.6,2.6,3,5.6,4.3,8.9c20.1-19.3,55,0.6,48.5,27.1c-4.4,17.6-4.4,17.6,0,0
				c11.7-1.7,19.7,2.3,24.2,8.3C324.1,306.1,325.3,310,325.4,313.7L325.4,313.7z"/>
			<path class="st7" d="M245.9,275.3c-0.3,3.5-1.2,7.6-4.4,9.1c-2.8,1.3-6,0.1-8.6-1.6c-2.5-1.7-4.9-3.8-7.8-4.7
				c-5.8-1.7-11.6,2.1-16.1,6.2c-4.4,4.1-8.8,8.9-14.8,9.8c-5.3,0.8-10.8-2.1-14.1-6.3c-2.1-2.6-3.4-5.7-4.3-8.9c0,0,0,0,0,0
				c-3.1-33,47.4-55.5,68.8-20.5C245.9,264,246.3,269.7,245.9,275.3L245.9,275.3z"/>
			<path class="st7" d="M194.3,298.9c-3.1,2.9-8.4,1.4-12.3,3.2c-5.1,2.4-5.8,9.5-9.8,13.6c-4.2,4.2-11.6,4-16.4,0.4l-0.1-0.1
				c-4.3-3.2-6.1-8.8-5-14c2.6-13.3,12-24.9,25.1-23.1c0,0,0,0,0,0c-0.2-2.2-0.2-4.5,0.1-6.6c7.8,1.4,15,6.5,18.5,13.7
				c1,2,1.7,4.1,1.9,6.3C196.6,294.6,196.1,297.2,194.3,298.9L194.3,298.9z"/>
			<path class="st8" d="M219,248c-0.9-1.6-2.6-2.6-4.4-2.6c-4.5-0.1-9.1,0.3-13,2.5c-1.2,0.7-2.4,1.6-2.8,2.9
				c-0.2,0.6-0.2,1.2-0.2,1.8c0.1,1.3,0.3,2.7,1.2,3.7c0.9,0.9,2.2,1.4,3.4,1.3c1.3-0.1,2.5-0.6,3.5-1.3c0.8-0.5,1.5-1.2,2.2-1.7
				c1.4-1,3-1.7,4.8-2c1.4-0.3,2.8-0.4,4-1S219.7,249.2,219,248C219,248,219,248,219,248z"/>
			<path class="st8" d="M193.1,258.2c-0.8,0-1.6,0.2-2.2,0.7c-1.3,1-2.3,2.4-2.9,3.9c-0.4,0.9-0.6,1.9-0.5,2.9
				c0.1,1,0.7,1.9,1.6,2.4c0.7,0.3,1.5,0.3,2.2,0.2c2.5-0.4,4.7-2.3,5.6-4.6c0.4-0.9,0.5-2,0.3-3v0c-0.3-1.4-1.6-2.3-3-2.4
				L193.1,258.2L193.1,258.2z"/>
			<path class="st8" d="M170.9,284.1c-3.6,0.5-7,2.4-9.2,5.3c-2,2.6-3.3,5.6-3.8,8.8c-0.2,1-0.2,2.1,0.6,2.7c0.4,0.4,1,0.4,1.6,0.5
				c0.9,0.1,1.9,0.1,2.8-0.3c1.4-0.7,1.9-2.3,2.5-3.7c1.1-2.9,3-5.9,6-6.9c0.2-0.1,0.4-0.1,0.6-0.2c1.1-0.3,2-1,2.5-2
				C175.5,285.8,173,283.6,170.9,284.1L170.9,284.1L170.9,284.1z"/>
			<path class="st8" d="M253.4,269.3c-0.8,0.6-1.5,1.3-2,2.2c-0.4,0.8-0.6,1.7-0.3,2.6c0.7,2.1,3.2,2.1,4.9,1.3
				c1.4-0.7,2.5-2,3.7-2.9c2-1.6,4.5-2.4,6.9-3.1c0.8-0.2,1.6-0.4,2.3-0.9c0.6-0.5,1-1.4,0.7-2.2c-0.4-0.8-1.4-1-2.2-1.1
				c-2.8-0.3-5.7,0.1-8.3,1.2l-1.3,0.5C256.3,267.4,254.8,268.2,253.4,269.3L253.4,269.3z"/>
			<path class="st9" d="M299,302.5c1.9-0.1,3.9-0.1,5.7,0c3.3,0.4,6.6,1.6,8.8,4.1c5.8,6.7,1.3,16.9-6.5,19.2c-3.3,1-6.8,1-10.2,0.9
				c-4.5-0.2-9.2-0.8-13-3.2c-5.2-3.4-6.9-11.2-2.1-15.7c1.8-1.8,4.3-2.6,6.8-3.3C291.7,303.5,295.4,302.8,299,302.5L299,302.5z"/>
			<path class="st9" d="M263.2,313c-1.8,0.9-3.4,2.1-4.2,3.3c-0.8,1.1-0.5,2.4-0.1,3.6c0.3,0.9,0.7,1.8,1.4,2.4
				c2,1.9,6.6,1.8,8.9,0.4c1.9-1.2,3.4-4.1,3.1-6.3c-0.2-1.5-1.6-3.1-2.9-3.9C267.7,311.6,265.3,312.1,263.2,313L263.2,313z"/>
		</g>
	</g>
</g>
</svg>
