<?xml version="1.0" encoding="utf-8"?>
<!-- Generator: Adobe Illustrator 26.3.1, SVG Export Plug-In . SVG Version: 6.00 Build 0)  -->
<svg version="1.1" id="Vintagio_Design" xmlns="http://www.w3.org/2000/svg" xmlns:xlink="http://www.w3.org/1999/xlink" x="0px"
	 y="0px" viewBox="0 0 500 500" style="enable-background:new 0 0 500 500;" xml:space="preserve">
<style type="text/css">
	.st0{fill-rule:evenodd;clip-rule:evenodd;fill:#EDEDED;}
	.st1{opacity:0.5;fill-rule:evenodd;clip-rule:evenodd;fill:#FFFFFF;enable-background:new    ;}
	.st2{opacity:0.9;fill-rule:evenodd;clip-rule:evenodd;fill:#FFFFFF;enable-background:new    ;}
	.st3{opacity:0.2;fill-rule:evenodd;clip-rule:evenodd;fill:#CBBEBB;enable-background:new    ;}
	.st4{fill-rule:evenodd;clip-rule:evenodd;fill:#FFE67B;}
	.st5{opacity:0.6;}
	.st6{fill-rule:evenodd;clip-rule:evenodd;fill:#FFE332;}
	.st7{opacity:0.3;fill-rule:evenodd;clip-rule:evenodd;fill:#FFFFFF;enable-background:new    ;}
</style>
<g id="c">
	<g>
		<g>
			<path class="st0" d="M258.5,206.4c0,11.4-9.3,20.7-20.7,20.7c-9.5,0-17.5-6.4-19.9-15.1c-0.5-1.8-0.8-3.6-0.8-5.6
				c0-11.4,9.3-20.7,20.7-20.7c2.3,0,4.6,0.4,6.6,1.1c0,0,0,0,0,0C252.7,189.5,258.5,197.3,258.5,206.4L258.5,206.4z"/>
			<path class="st1" d="M247.7,198.3c-5.3,7-16,10.2-23.9,13.5c-0.2,0.1-0.4,0.1-0.6,0.2c-3,0.7-6-1.6-6.1-4.7c0-0.9,0-1.8,0.1-2.7
				c0.9-9.9,8.8-17.9,18.6-18.8c3-0.3,5.9,0.1,8.6,1c0,0,0,0,0,0C248.2,190,250.7,194.4,247.7,198.3L247.7,198.3z"/>
			<path class="st2" d="M235.9,188.3c-0.8,0-1.7,0.1-2.4,0.4c-1.3,0.5-2.7,1.1-3.8,1.9c-1,0.8-1.8,1.9-2.1,3.2
				c-0.1,0.5-0.1,1.2,0.3,1.5c0.9,0.8,2.9,0.2,3.9-0.3c0.8-0.5,1.5-1.1,2.3-1.7c0.9-0.6,1.8-1,2.7-1.4c0.4-0.1,0.8-0.3,1-0.6
				c0.4-0.5,0.6-1.3,0.3-1.9c-0.2-0.5-0.8-0.8-1.3-1C236.7,188.4,236.3,188.3,235.9,188.3L235.9,188.3z"/>
		</g>
		<g>
			<path class="st0" d="M350,241.6c-0.2-9.4-5.2-17.8-12.6-22.7c-4.2-2.8-9.3-4.6-14.7-4.7c-10.9-0.3-20.5,5.7-25.4,14.5
				c-2.6,4.8-6.8,8.5-11.6,10.5c-2.8,1.2-5.8,1.8-9,1.8h-0.7c-8.1,0-14.6,6.5-14.6,14.6c0,4,1.6,7.7,4.3,10.3
				c2.6,2.6,6.3,4.3,10.3,4.3h45.8C337.7,270.3,350.4,257.4,350,241.6z"/>
			<path class="st1" d="M338.6,230.2c-2,2.7-5.7,3.1-9.1,3.4c-5.5,0.4-11.4,1.2-15.3,5.1c-2.3,2.3-3.5,5.3-5.5,7.9
				c-2.4,3.1-6,5.5-9.9,6c-3.9,0.5-8.2-1.1-10.5-4.2c-0.3-0.4-0.5-0.8-0.7-1.3c-1.6-3.7-0.3-8,2.9-10.4c2.8-2,5.1-4.7,6.8-7.8
				c4.9-8.9,14.4-14.8,25.4-14.5c3.8,0.1,7.4,1,10.6,2.4c3.3,1.5,5.8,4.4,6.4,8C340,226.6,339.8,228.6,338.6,230.2L338.6,230.2z"/>
			<path class="st2" d="M326.6,218.8c-2-2-7.1-1.6-9.1-0.8c-1.2,0.5-2.6,1.4-2.9,2.7c-0.3,1.3,0.5,2.8,1.8,3.2
				c1.5,0.3,2.9-0.6,4.2-0.9c1.6-0.4,3.3-0.4,4.9-0.5c0.4,0,0.8,0,1.1-0.2C328,221.8,327.4,219.6,326.6,218.8L326.6,218.8z"/>
			<path class="st2" d="M312.4,226.2c0.5-0.4,0.7-1,0.6-1.6c-0.1-0.5-0.4-0.8-0.7-1.2c-0.2-0.2-0.5-0.4-0.8-0.5
				c-1.2-0.4-2.9,0.7-3.1,2c-0.1,0.8,0.8,1.9,1.6,2.1C310.7,227.3,311.6,226.8,312.4,226.2C312.3,226.3,312.3,226.2,312.4,226.2
				L312.4,226.2z"/>
			<path class="st3" d="M322.2,265.5c3.2,1,8.5-0.5,10.4-1.5c3.2-1.7,7.2-5.6,7.2-9.5c0-2.2-1.4-4.3-3.5-5.1
				c-1.8-0.7-3.8-0.5-5.6,0.2c-1.8,0.7-3.3,1.9-4.8,3.1c-1.9,1.5-3.7,3.2-4.9,5.2c-0.7,1.2-1.2,2.6-1.3,4
				C319.6,263.9,320.6,265,322.2,265.5z"/>
		</g>
		<path class="st4" d="M318.9,250.5c-6.6,15.8-22.3,26.9-40.5,26.9c-24.2,0-43.9-19.6-43.9-43.9c0-1.1,0-2.1,0.1-3.2
			c1.4-19.4,15.4-35.2,33.7-39.5c-2.2,5.2-3.4,10.9-3.4,16.9c0,8.4,2.4,16.3,6.5,23c7.7,12.6,21.6,20.9,37.4,20.9
			C312.3,251.7,315.7,251.3,318.9,250.5L318.9,250.5z"/>
		<g class="st5">
			<path class="st6" d="M268.8,225.8c1.7,3.7,0.5,8.2-2.9,10.3l-0.1,0c-6.9,4.3-16.3,5-23.6,1.3c-2-1-3.6-2.3-5.1-3.9
				c-1.7-1.8-2.4-4.3-2-6.8c2.8-17.7,16.1-31.9,33.3-35.9c-2.2,5.2-3.4,10.9-3.4,16.9C265,214.2,266.3,220.3,268.8,225.8
				L268.8,225.8z"/>
		</g>
		<path class="st7" d="M246.7,211.5c-1.9,1.9-3.4,4.3-4.3,6.9c-1,2.7-2.3,7.4,0.5,9.5c0.9,0.7,2.2,0.9,3.3,0.6
			c2.5-0.8,3.2-3.7,3.9-6.2c0.7-2.7,1.7-5.4,2.9-7.9c0.3-0.6,0.6-1.2,0.7-1.9c0.1-1.1-0.3-2.2-1.1-2.9c-0.1-0.1-0.2-0.1-0.3-0.2
			c-1.5-0.9-3.1-0.1-4.2,0.9C247.6,210.6,247.1,211,246.7,211.5L246.7,211.5z"/>
		<path class="st0" d="M305.7,295.9c0.1,3.7-1,7.3-3.1,10.3c-3.1,4.7-8.5,8.1-15,8.1H168.6c-7.1,0-13.7-4.1-16.4-10.7
			c-1-2.4-1.7-5-2-7.7c-0.2-1.7-0.2-3.4-0.2-5.1c0.6-13.9,9.5-27.7,22.9-25.8c0,0,0,0,0,0c-0.2-2-0.1-3.9,0.1-5.8
			c3.2-26,43.3-41.3,61-12.3c1.4,2.3,2.7,5,3.8,7.9c17.9-17.1,48.9,0.5,43,24c-3.9,15.7-3.9,15.7,0,0c10.4-1.5,17.5,2,21.5,7.4
			C304.6,289.2,305.7,292.6,305.7,295.9L305.7,295.9z"/>
		<path class="st1" d="M235.2,261.8c-0.2,3.1-1.1,6.7-3.9,8c-2.4,1.2-5.4,0.1-7.6-1.4c-2.3-1.5-4.3-3.4-6.9-4.2
			c-5.1-1.5-10.3,1.9-14.3,5.5c-3.9,3.6-7.9,7.9-13.1,8.7c-4.8,0.7-9.6-1.8-12.6-5.6c-1.8-2.3-3-5-3.8-7.9c0,0,0,0,0.1,0
			c-2.7-29.3,42.1-49.3,61.1-18.2C235.1,251.7,235.5,256.8,235.2,261.8L235.2,261.8z"/>
		<path class="st1" d="M189.4,282.7c-2.8,2.6-7.5,1.2-10.9,2.9c-4.5,2.2-5.2,8.5-8.7,12c-3.7,3.8-10.3,3.5-14.5,0.4l-0.1,0
			c-3.8-2.9-5.4-7.8-4.5-12.5c2.3-11.8,10.6-22.2,22.3-20.5c0,0,0,0,0.1,0c-0.2-2-0.1-4,0.1-5.8c6.9,1.2,13.3,5.8,16.4,12.1
			c0.8,1.7,1.5,3.6,1.7,5.6C191.4,278.9,190.9,281.3,189.4,282.7L189.4,282.7z"/>
		<path class="st2" d="M211.3,237.5c-0.8-1.4-2.3-2.3-3.9-2.3c-4-0.1-8.1,0.3-11.6,2.2c-1.1,0.6-2.1,1.4-2.5,2.6
			c-0.2,0.5-0.2,1.1-0.2,1.6c0,1.2,0.3,2.4,1.1,3.3c0.8,0.8,1.9,1.2,3,1.1c1.1-0.1,2.2-0.5,3.1-1.2c0.7-0.5,1.3-1.1,2-1.5
			c1.2-0.9,2.7-1.5,4.2-1.8c1.2-0.2,2.5-0.3,3.5-0.9C211.2,240,211.9,238.6,211.3,237.5L211.3,237.5L211.3,237.5z"/>
		<path class="st2" d="M188.3,246.6c-0.7,0-1.4,0.2-2,0.6c-1.1,0.9-2,2.1-2.6,3.5c-0.3,0.8-0.6,1.7-0.4,2.6c0.1,0.9,0.6,1.7,1.4,2.1
			c0.6,0.3,1.3,0.3,2,0.2c2.2-0.4,4.2-2,5-4.1c0.3-0.9,0.4-1.8,0.2-2.7v0c-0.3-1.2-1.4-2.1-2.7-2.1L188.3,246.6L188.3,246.6z"/>
		<path class="st2" d="M168.6,269.6c-3.2,0.5-6.2,2.1-8.2,4.8c-1.7,2.3-2.9,5-3.4,7.8c-0.1,0.9-0.1,1.9,0.5,2.4
			c0.4,0.3,0.9,0.4,1.4,0.4c0.8,0.1,1.7,0.1,2.4-0.3c1.2-0.6,1.7-2,2.2-3.3c1-2.6,2.6-5.3,5.3-6.1c0.2-0.1,0.3-0.1,0.5-0.1
			c0.9-0.3,1.8-0.9,2.2-1.8C172.6,271.2,170.5,269.2,168.6,269.6L168.6,269.6L168.6,269.6z"/>
		<path class="st2" d="M241.8,256.4c-0.7,0.5-1.3,1.1-1.8,2c-0.4,0.7-0.5,1.5-0.2,2.3c0.6,1.9,2.8,1.9,4.3,1.1
			c1.2-0.6,2.2-1.8,3.3-2.6c1.8-1.4,4-2.1,6.2-2.7c0.7-0.2,1.4-0.4,2-0.8c0.6-0.5,0.9-1.3,0.6-1.9c-0.3-0.7-1.2-0.9-2-1
			c-2.5-0.3-5.1,0.1-7.4,1.1l-1.1,0.4C244.4,254.8,243,255.5,241.8,256.4L241.8,256.4z"/>
		<path class="st3" d="M282.3,286c1.7-0.1,3.4-0.1,5.1,0c2.9,0.3,5.9,1.4,7.8,3.7c5.2,6,1.1,15-5.8,17.1c-2.9,0.9-6,0.9-9,0.8
			c-4-0.2-8.2-0.7-11.6-2.9c-4.6-3-6.2-9.9-1.9-13.9c1.6-1.6,3.8-2.4,6-3C275.8,286.9,279.1,286.2,282.3,286L282.3,286z"/>
		<path class="st3" d="M250.5,295.3c-1.6,0.8-3,1.9-3.7,2.9c-0.7,1-0.5,2.2-0.1,3.2c0.3,0.8,0.6,1.6,1.2,2.1
			c1.8,1.7,5.9,1.6,7.9,0.4c1.7-1,3-3.6,2.7-5.6c-0.2-1.3-1.4-2.8-2.5-3.5C254.5,294.1,252.4,294.4,250.5,295.3L250.5,295.3z"/>
	</g>
</g>
</svg>
