<?xml version="1.0" encoding="utf-8"?>
<!-- Generator: Adobe Illustrator 26.3.1, SVG Export Plug-In . SVG Version: 6.00 Build 0)  -->
<svg version="1.1" id="Vintagio_Design" xmlns="http://www.w3.org/2000/svg" xmlns:xlink="http://www.w3.org/1999/xlink" x="0px"
	 y="0px" viewBox="0 0 500 500" style="enable-background:new 0 0 500 500;" xml:space="preserve">
<style type="text/css">
	.st0{fill-rule:evenodd;clip-rule:evenodd;fill:#EDEDED;}
	.st1{opacity:0.5;fill-rule:evenodd;clip-rule:evenodd;fill:#FFFFFF;enable-background:new    ;}
	.st2{opacity:0.9;fill-rule:evenodd;clip-rule:evenodd;fill:#FFFFFF;enable-background:new    ;}
	.st3{opacity:0.2;fill-rule:evenodd;clip-rule:evenodd;fill:#CBBEBB;enable-background:new    ;}
	.st4{fill-rule:evenodd;clip-rule:evenodd;fill:#75BEEA;}
	.st5{opacity:0.2;fill-rule:evenodd;clip-rule:evenodd;fill:#FFFFFF;enable-background:new    ;}
</style>
<g id="c">
	<g>
		<g>
			<path class="st0" d="M350,239.7c0.1,4.7-1.3,9.4-3.9,13.3c-4,6.1-11,10.4-19.3,10.4H173.9c-9.1,0-17.5-5.3-21.1-13.7
				c-1.3-3.1-2.1-6.5-2.5-9.9c-0.2-2.1-0.3-4.3-0.2-6.5c0.8-17.8,12.2-35.6,29.4-33.2c0,0,0,0,0.1,0c-0.2-2.6-0.2-5.1,0.1-7.5
				c4.1-33.3,55.6-53.1,78.3-15.8c1.8,3,3.5,6.4,4.9,10.1c22.9-22,62.8,0.7,55.3,30.9c-5,20.1-5,20.1,0,0
				c13.4-1.9,22.5,2.6,27.6,9.5C348.5,231.1,349.9,235.5,350,239.7L350,239.7z"/>
			<path class="st1" d="M259.4,196c-0.3,4-1.4,8.6-5,10.3c-3.1,1.5-6.9,0.1-9.8-1.8c-2.9-1.9-5.5-4.4-8.9-5.4
				c-6.6-2-13.3,2.4-18.3,7.1c-5,4.7-10.1,10.2-16.9,11.2c-6.1,0.9-12.3-2.4-16.1-7.2c-2.3-3-3.9-6.4-4.9-10.1c0,0,0,0,0.1,0
				c-3.5-37.7,54-63.3,78.4-23.4C259.3,183,259.8,189.5,259.4,196z"/>
			<path class="st1" d="M200.5,222.8c-3.6,3.3-9.6,1.6-14,3.7c-5.8,2.8-6.6,10.9-11.2,15.5c-4.8,4.8-13.2,4.6-18.7,0.5l-0.1-0.1
				c-4.9-3.7-6.9-10-5.7-16c3-15.2,13.7-28.5,28.6-26.3c0,0,0,0,0.1,0c-0.2-2.6-0.2-5.1,0.1-7.5c8.9,1.6,17.1,7.4,21.1,15.6
				c1.1,2.2,1.9,4.6,2.1,7.1C203.1,218,202.5,220.9,200.5,222.8L200.5,222.8z"/>
			<path class="st2" d="M228.7,164.8c-1-1.8-2.9-3-5-3c-5.2-0.1-10.4,0.4-14.9,2.9c-1.4,0.8-2.7,1.8-3.2,3.3
				c-0.2,0.7-0.2,1.4-0.2,2.1c0.1,1.5,0.4,3.1,1.4,4.2c1,1.1,2.5,1.5,3.9,1.5c1.4-0.1,2.8-0.7,4-1.5c0.9-0.6,1.7-1.4,2.5-2
				c1.6-1.2,3.5-1.9,5.4-2.3c1.5-0.3,3.2-0.4,4.5-1.2C228.6,168,229.5,166.1,228.7,164.8C228.7,164.8,228.7,164.8,228.7,164.8z"/>
			<path class="st2" d="M199.2,176.4c-0.9,0-1.8,0.2-2.5,0.8c-1.4,1.2-2.6,2.7-3.3,4.5c-0.4,1-0.7,2.2-0.6,3.3
				c0.2,1.1,0.8,2.2,1.8,2.7c0.8,0.4,1.7,0.4,2.5,0.2c2.8-0.5,5.4-2.6,6.4-5.3c0.4-1.1,0.6-2.3,0.3-3.4v0c-0.4-1.6-1.8-2.7-3.5-2.7
				C200.3,176.5,199.2,176.4,199.2,176.4z"/>
			<path class="st2" d="M173.8,205.9c-4.2,0.6-8,2.8-10.6,6.1c-2.2,2.9-3.8,6.4-4.3,10c-0.2,1.1-0.2,2.4,0.7,3.1
				c0.5,0.4,1.2,0.5,1.8,0.6c1.1,0.1,2.2,0.1,3.1-0.3c1.6-0.8,2.2-2.6,2.8-4.2c1.3-3.3,3.4-6.8,6.8-7.9c0.2-0.1,0.4-0.1,0.6-0.2
				c1.2-0.3,2.3-1.1,2.8-2.3C179.1,207.9,176.3,205.4,173.8,205.9L173.8,205.9L173.8,205.9z"/>
			<path class="st2" d="M267.9,189c-0.9,0.7-1.7,1.5-2.2,2.5c-0.5,0.9-0.6,2-0.3,3c0.8,2.4,3.6,2.4,5.5,1.4c1.6-0.8,2.8-2.2,4.2-3.4
				c2.3-1.8,5.1-2.7,7.9-3.5c0.9-0.2,1.8-0.5,2.6-1.1c0.7-0.6,1.2-1.6,0.8-2.5c-0.4-0.9-1.5-1.2-2.5-1.3c-3.2-0.3-6.5,0.1-9.4,1.4
				l-1.4,0.6C271.2,187,269.5,187.9,267.9,189L267.9,189z"/>
			<path class="st3" d="M319.9,226.9c2.2-0.2,4.4-0.2,6.5,0.1c3.8,0.4,7.5,1.8,10,4.7c6.6,7.7,1.5,19.2-7.4,21.9
				c-3.7,1.1-7.7,1.2-11.6,1c-5.2-0.2-10.5-0.9-14.9-3.7c-5.9-3.8-7.9-12.8-2.4-17.9c2.1-2,4.9-3,7.7-3.8
				C311.6,228.1,315.8,227.3,319.9,226.9L319.9,226.9z"/>
			<path class="st3" d="M279,239c-2,1-3.9,2.4-4.8,3.8c-0.9,1.3-0.6,2.8-0.1,4.1c0.4,1,0.8,2,1.6,2.7c2.3,2.2,7.6,2.1,10.1,0.5
				c2.2-1.3,3.9-4.6,3.5-7.2c-0.3-1.7-1.8-3.6-3.2-4.5C284.2,237.3,281.5,237.8,279,239L279,239z"/>
		</g>
		<path class="st4" d="M209.7,301.2c-0.4,0.9-0.9,1.7-1.4,2.4c-4.9,7.8-12.1,9.4-18.2,6.3c-4-2-6.8-5.5-7.2-10.2
			c-0.3-3.1,0.3-6.7,2.3-10.7c3-6.1,10.3-9.1,15.4-10.6c3.4-1,6.9,0.8,8.2,4.1C210.8,287.5,212.7,295.1,209.7,301.2L209.7,301.2z"/>
		<path class="st5" d="M206,302.6c1.4,0.2,1.9,1.9,1,2.9c-4.8,6.1-11.3,7.2-16.9,4.4c-3.6-1.8-6.1-4.8-7-8.6
			c-0.2-0.9,0.4-1.9,1.3-2.1c4.2-1.1,7.4,3.3,11.3,4.7C199.6,305.2,202.3,302,206,302.6C205.9,302.6,206,302.6,206,302.6z"/>
		<path class="st1" d="M194.2,284.7c-0.5,0-1,0.1-1.5,0.4c-1.6,0.8-3.2,2.4-3.6,4.2c-0.5,1.9,1.2,4.2,3.2,2.9
			c1.6-1.1,4.2-3.2,4.2-5.4C196.4,285.3,195.4,284.7,194.2,284.7L194.2,284.7z"/>
		<path class="st1" d="M189.8,303.6c-0.2-0.5-0.6-1-1-1.4c-0.1-0.1-0.2-0.1-0.2-0.2c-0.6-0.4-1.3-0.5-1.8,0.1
			c-0.5,0.6-0.4,1.4-0.1,2.1c0.3,0.4,0.6,0.8,1.1,1.1c0.1,0.1,0.2,0.2,0.4,0.2c0.2,0.1,0.4,0.1,0.5,0c0.5,0,1.1-0.2,1.3-0.6
			c0.2-0.4,0.1-0.8-0.1-1.2C189.8,303.7,189.8,303.6,189.8,303.6L189.8,303.6z"/>
		<path class="st1" d="M192.5,304.7c0.4-0.1,0.9,0,1.3,0c0.3,0,0.5,0.1,0.7,0.2c0.2,0.2,0.3,0.5,0.3,0.9c0,0.4-0.2,0.7-0.6,0.8
			c-0.6,0.2-1.5,0.4-2-0.1C191.7,306,191.7,304.9,192.5,304.7L192.5,304.7z"/>
		<path class="st4" d="M310.1,301.2c-0.4,0.9-0.9,1.7-1.4,2.4c-4.9,7.8-12.1,9.4-18.2,6.3c-4-2-6.8-5.5-7.2-10.2
			c-0.3-3.1,0.3-6.7,2.3-10.7c3-6.1,10.3-9.1,15.5-10.6c3.4-1,6.9,0.8,8.2,4.1C311.1,287.5,313.1,295.1,310.1,301.2L310.1,301.2z"/>
		<path class="st5" d="M306.4,302.6c1.4,0.2,1.9,1.9,1,2.9c-4.8,6.1-11.3,7.2-16.9,4.4c-3.6-1.8-6.1-4.8-7-8.6
			c-0.2-0.9,0.4-1.9,1.3-2.1c4.2-1.1,7.4,3.3,11.3,4.7C299.9,305.2,302.7,302,306.4,302.6L306.4,302.6L306.4,302.6z"/>
		<path class="st1" d="M294.6,284.7c-0.5,0-1,0.1-1.5,0.4c-1.6,0.8-3.2,2.4-3.6,4.2c-0.5,1.9,1.2,4.2,3.2,2.9
			c1.6-1.1,4.2-3.2,4.2-5.4C296.8,285.3,295.7,284.7,294.6,284.7L294.6,284.7z"/>
		<path class="st1" d="M290.1,303.6c-0.2-0.5-0.6-1-1-1.4c-0.1-0.1-0.2-0.1-0.2-0.2c-0.6-0.4-1.3-0.5-1.9,0.1
			c-0.5,0.6-0.4,1.4-0.1,2.1c0.3,0.4,0.6,0.8,1.1,1.1c0.1,0.1,0.2,0.2,0.4,0.2c0.2,0.1,0.4,0.1,0.5,0c0.5,0,1.1-0.2,1.3-0.6
			c0.2-0.4,0.1-0.8-0.1-1.2C290.2,303.7,290.1,303.6,290.1,303.6L290.1,303.6z"/>
		<path class="st1" d="M292.9,304.7c0.4-0.1,0.9,0,1.4,0c0.3,0,0.5,0.1,0.7,0.2c0.2,0.2,0.3,0.5,0.3,0.9c0,0.4-0.2,0.7-0.6,0.8
			c-0.6,0.2-1.5,0.4-2-0.1C292.1,306,292.1,304.9,292.9,304.7L292.9,304.7z"/>
		<path class="st4" d="M256.5,333.6c-0.4,0.8-0.9,1.6-1.3,2.3c-4.8,7.5-11.7,9-17.6,6.1c-3.9-1.9-6.5-5.4-7-9.8
			c-0.3-3,0.3-6.5,2.2-10.4c2.9-5.8,9.9-8.8,14.9-10.2c3.2-0.9,6.7,0.8,7.9,3.9C257.5,320.4,259.4,327.8,256.5,333.6L256.5,333.6z"
			/>
		<path class="st5" d="M252.8,335c1.3,0.2,1.8,1.8,1,2.8c-4.7,5.9-10.9,6.9-16.3,4.2c-3.5-1.7-5.9-4.6-6.8-8.3
			c-0.2-0.9,0.3-1.8,1.2-2.1c4.1-1,7.1,3.2,10.9,4.5C246.6,337.5,249.3,334.4,252.8,335L252.8,335L252.8,335z"/>
		<path class="st1" d="M241.5,317.7c-0.5,0-1,0.1-1.4,0.3c-1.6,0.8-3.1,2.3-3.5,4.1c-0.4,1.9,1.1,4.1,3,2.8c1.6-1.1,4.1-3.1,4-5.2
			C243.6,318.3,242.6,317.7,241.5,317.7L241.5,317.7z"/>
		<path class="st1" d="M237.2,335.9c-0.2-0.5-0.6-1-1-1.3c-0.1,0-0.1-0.1-0.2-0.2c-0.6-0.4-1.3-0.5-1.8,0.1s-0.4,1.4-0.1,2
			c0.2,0.4,0.6,0.8,1,1c0.1,0.1,0.2,0.1,0.4,0.2c0.2,0.1,0.3,0.1,0.5,0.1c0.5,0,1-0.2,1.3-0.6c0.2-0.3,0.1-0.8-0.1-1.1
			C237.2,336,237.2,336,237.2,335.9L237.2,335.9z"/>
		<path class="st1" d="M239.9,337c0.4-0.1,0.9,0,1.3,0c0.2,0,0.5,0.1,0.7,0.2c0.2,0.2,0.3,0.5,0.3,0.8c0,0.4-0.2,0.7-0.6,0.8
			c-0.6,0.2-1.4,0.4-2-0.1C239.1,338.3,239.1,337.2,239.9,337L239.9,337z"/>
	</g>
</g>
</svg>
