<?xml version="1.0" encoding="utf-8"?>
<!-- Generator: Adobe Illustrator 26.3.1, SVG Export Plug-In . SVG Version: 6.00 Build 0)  -->
<svg version="1.1" id="Vintagio_Design" xmlns="http://www.w3.org/2000/svg" xmlns:xlink="http://www.w3.org/1999/xlink" x="0px"
	 y="0px" viewBox="0 0 500 500" style="enable-background:new 0 0 500 500;" xml:space="preserve">
<style type="text/css">
	.st0{fill-rule:evenodd;clip-rule:evenodd;fill:#FFC34A;}
	.st1{opacity:0.6;fill-rule:evenodd;clip-rule:evenodd;fill:#FFE332;enable-background:new    ;}
	.st2{opacity:0.3;fill-rule:evenodd;clip-rule:evenodd;fill:#FFFFFF;enable-background:new    ;}
	.st3{opacity:0.15;fill-rule:evenodd;clip-rule:evenodd;fill:#FFFFFF;enable-background:new    ;}
	.st4{fill-rule:evenodd;clip-rule:evenodd;}
	.st5{fill-rule:evenodd;clip-rule:evenodd;fill:#FFE332;}
	.st6{fill-rule:evenodd;clip-rule:evenodd;fill:#EDEDED;}
	.st7{opacity:0.5;fill-rule:evenodd;clip-rule:evenodd;fill:#FFFFFF;enable-background:new    ;}
	.st8{opacity:0.9;fill-rule:evenodd;clip-rule:evenodd;fill:#FFFFFF;enable-background:new    ;}
	.st9{opacity:0.2;fill-rule:evenodd;clip-rule:evenodd;fill:#CBBEBB;enable-background:new    ;}
</style>
<g id="c">
	<g>
		<g>
			<path class="st0" d="M264.2,255c0,24.3-19.7,44-44,44s-44-19.7-44-44c0-5.3,0.9-10.3,2.6-15c6.1-16.9,22.3-29,41.4-29
				c6.2,0,12,1.3,17.3,3.6C253.2,221.3,264.2,236.9,264.2,255L264.2,255z"/>
			<path class="st1" d="M225.5,242.4c-3.8-0.4-7.5-1.2-11.3-1c-6.2,0.3-10.2,3.5-13.1,8.8c-2.5,4.6-4.4,10.1-9.8,12.1
				c-2.3,0.9-5.1,0.6-6.9-1c-1-0.9-1.6-2.2-2.1-3.4c0-0.1-0.1-0.1-0.1-0.2c-4.8-11.6-2-25.1,7-33.9c7.9-7.8,18.9-12.7,30.9-12.7
				c3.4,0,6.6,0.4,9.7,1.1c7,1.6,12.5,7.1,13.6,14.2c0,0.3,0.1,0.6,0.1,0.9C244.8,237.9,235.2,243.4,225.5,242.4L225.5,242.4z"/>
			<path class="st2" d="M196.9,228.5c-0.7,0-1.4,0-2.1,0.2c-3.6,1-6.6,3.8-7.8,7.4c-0.7,2.2-0.6,5.1,2.1,6.1
				c0.5,0.2,1.1,0.2,1.6,0.2c2.1-0.1,3.7-1.4,5.3-2.6l5.2-3.9c0.7-0.6,1.3-1.3,1.7-2.1c0.8-2-0.3-3.5-1.8-4.3c-0.9-0.5-2-0.8-3-0.8
				L196.9,228.5L196.9,228.5z"/>
			<path class="st3" d="M198.2,277.9c-0.3,1.7-0.2,3.5,0.6,5.1c4.2,9.5,19.6,14.4,26.9,5.9c3.1-3.6,3.5-8.8,0.7-12.6
				c-1.2-1.6-3-2.7-4.8-3.6c-5.9-2.7-15.8-5.1-20.9,0.2C199.4,274.3,198.5,276.1,198.2,277.9L198.2,277.9z"/>
			<path class="st3" d="M208.6,284.2c-0.4,1.1-0.2,2.5,0.6,3.5c0.8,1,2.1,1.8,3.4,2.2c1.3,0.4,2.9,0.5,4.1-0.3
				c2.1-1.7,1.4-5.5-0.8-6.7c-0.8-0.4-1.7-0.6-2.5-0.7C211.3,282,209.2,282.1,208.6,284.2L208.6,284.2z"/>
			<path class="st4" d="M220.4,255c0,0.1-0.1,0.2-0.2,0.2s-0.2-0.1-0.2-0.2c0,0,0,0,0-0.1c0-0.1,0.1-0.1,0.2-0.1c0,0,0.1,0,0.1,0
				C220.4,254.9,220.4,255,220.4,255L220.4,255z"/>
			<path class="st0" d="M220.2,203.6L220.2,203.6c-2.6,0-4.8-2-5.1-4.6l-1.7-19.1c-0.2-1.9,1.4-3.6,3.3-3.6h6.9
				c1.9,0,3.5,1.7,3.3,3.6l-1.7,19.1C225.1,201.6,222.9,203.6,220.2,203.6z"/>
			<path class="st0" d="M175.8,229.2L175.8,229.2c-1.3,2.3-4.2,3.2-6.6,2.1l-17.4-8c-1.8-0.8-2.5-3-1.5-4.7l3.5-6
				c1-1.7,3.2-2.2,4.8-1.1l15.6,11C176.5,224,177.2,226.9,175.8,229.2L175.8,229.2z"/>
			<path class="st0" d="M175.8,280.5L175.8,280.5c1.3,2.3,0.7,5.2-1.5,6.7l-15.7,11c-1.6,1.1-3.8,0.6-4.8-1.1l-3.5-6
				c-1-1.7-0.3-3.9,1.5-4.7l17.4-8.1C171.7,277.3,174.5,278.2,175.8,280.5L175.8,280.5z"/>
			<path class="st0" d="M264.6,229.2L264.6,229.2c-1.3-2.3-0.7-5.2,1.5-6.7l15.7-11c1.6-1.1,3.8-0.6,4.8,1.1l3.5,6
				c1,1.7,0.3,3.8-1.5,4.7l-17.3,8.1C268.8,232.4,266,231.5,264.6,229.2L264.6,229.2z"/>
			<path class="st5" d="M194.8,211.1L194.8,211.1c-1,0.6-2.3,0.3-3-0.7l-5.6-8.9c-0.8-1.3-0.4-3,0.9-3.7l0,0c1.3-0.8,3-0.3,3.7,1.1
				l4.9,9.3C196.2,209.2,195.8,210.5,194.8,211.1L194.8,211.1z"/>
			<path class="st5" d="M169.5,255.2L169.5,255.2c0,1.2-0.9,2.2-2.1,2.2l-10.5,0.4c-1.5,0.1-2.8-1.1-2.8-2.6l0,0
				c0-1.5,1.2-2.7,2.8-2.6l10.5,0.4C168.6,253.1,169.5,254.1,169.5,255.2L169.5,255.2z"/>
			<path class="st5" d="M245.7,210.9L245.7,210.9c-1-0.6-1.4-1.9-0.9-3l4.9-9.3c0.7-1.3,2.4-1.8,3.7-1.1l0,0
				c1.3,0.8,1.7,2.4,0.9,3.7l-5.6,8.9C248,211.2,246.7,211.5,245.7,210.9L245.7,210.9z"/>
		</g>
		<path class="st6" d="M350,305.9c0.1,3.6-1,7.1-3,10c-3,4.6-8.2,7.8-14.5,7.8H217.4c-6.9,0-13.2-4-15.9-10.3
			c-1-2.3-1.6-4.9-1.9-7.5c-0.2-1.6-0.2-3.3-0.2-4.9c0.6-13.4,9.2-26.8,22.2-25c0,0,0,0,0.1,0c-0.2-1.9-0.1-3.8,0.1-5.6
			c3.1-25.1,41.8-40,58.9-11.9c1.4,2.3,2.6,4.8,3.7,7.6c17.3-16.6,47.2,0.5,41.6,23.2c-3.8,15.1-3.8,15.1,0,0
			c10.1-1.5,16.9,1.9,20.7,7.1C348.9,299.4,349.9,302.7,350,305.9L350,305.9z"/>
		<path class="st7" d="M281.8,273c-0.2,3-1,6.5-3.8,7.8c-2.4,1.1-5.2,0.1-7.4-1.3c-2.2-1.4-4.2-3.3-6.7-4.1c-5-1.5-10,1.8-13.8,5.3
			c-3.8,3.5-7.6,7.7-12.7,8.4c-4.6,0.7-9.3-1.8-12.1-5.4c-1.8-2.2-2.9-4.9-3.7-7.6c0,0,0,0,0,0c-2.6-28.3,40.7-47.6,59-17.6
			C281.7,263.2,282.1,268.1,281.8,273L281.8,273z"/>
		<path class="st7" d="M237.5,293.2c-2.7,2.5-7.2,1.2-10.5,2.8c-4.4,2.1-5,8.2-8.4,11.6c-3.6,3.6-10,3.4-14.1,0.4l-0.1,0
			c-3.7-2.8-5.2-7.5-4.3-12c2.3-11.5,10.3-21.4,21.5-19.8c0,0,0,0,0.1,0c-0.2-1.9-0.1-3.8,0.1-5.6c6.7,1.2,12.9,5.6,15.9,11.7
			c0.8,1.7,1.4,3.5,1.6,5.4C239.4,289.5,239,291.8,237.5,293.2L237.5,293.2z"/>
		<path class="st8" d="M258.7,249.5c-0.8-1.4-2.2-2.2-3.8-2.2c-3.9-0.1-7.8,0.3-11.2,2.2c-1,0.6-2.1,1.4-2.4,2.5
			c-0.2,0.5-0.2,1.1-0.2,1.6c0,1.1,0.3,2.3,1.1,3.2c0.7,0.8,1.9,1.2,2.9,1.1s2.1-0.5,3-1.1c0.7-0.5,1.3-1,1.9-1.5
			c1.2-0.9,2.6-1.4,4.1-1.7c1.2-0.2,2.4-0.3,3.4-0.9S259.3,250.5,258.7,249.5L258.7,249.5L258.7,249.5z"/>
		<path class="st8" d="M236.4,258.3c-0.7,0-1.4,0.2-1.9,0.6c-1.1,0.9-1.9,2.1-2.5,3.4c-0.3,0.8-0.5,1.6-0.4,2.5
			c0.1,0.8,0.6,1.7,1.4,2c0.6,0.3,1.3,0.3,1.9,0.2c2.2-0.4,4.1-1.9,4.8-4c0.3-0.8,0.4-1.7,0.2-2.6v0c-0.3-1.2-1.4-2-2.6-2
			L236.4,258.3L236.4,258.3z"/>
		<path class="st8" d="M217.4,280.5c-3.1,0.5-6,2.1-7.9,4.6c-1.7,2.2-2.8,4.8-3.3,7.5c-0.1,0.8-0.1,1.8,0.5,2.3
			c0.4,0.3,0.9,0.4,1.4,0.4c0.8,0.1,1.6,0.1,2.4-0.3c1.2-0.6,1.7-1.9,2.1-3.2c1-2.5,2.6-5.1,5.1-5.9c0.2-0.1,0.3-0.1,0.5-0.1
			c0.9-0.2,1.7-0.9,2.1-1.7C221.3,282,219.2,280.1,217.4,280.5L217.4,280.5L217.4,280.5z"/>
		<path class="st8" d="M288.2,267.8c-0.7,0.5-1.3,1.1-1.7,1.9c-0.4,0.7-0.5,1.5-0.2,2.2c0.6,1.8,2.7,1.9,4.2,1.1
			c1.2-0.6,2.1-1.7,3.2-2.5c1.7-1.3,3.9-2.1,6-2.6c0.7-0.2,1.4-0.4,1.9-0.8c0.5-0.4,0.9-1.2,0.6-1.9c-0.3-0.7-1.2-0.9-1.9-1
			c-2.4-0.3-4.9,0.1-7.1,1.1l-1.1,0.4C290.7,266.2,289.4,266.9,288.2,267.8L288.2,267.8z"/>
		<path class="st9" d="M327.4,296.3c1.7-0.1,3.3-0.1,4.9,0c2.8,0.3,5.7,1.4,7.5,3.5c5,5.8,1.1,14.5-5.6,16.5
			c-2.8,0.9-5.8,0.9-8.8,0.7c-3.9-0.2-7.9-0.6-11.2-2.8c-4.4-2.9-5.9-9.6-1.8-13.5c1.6-1.5,3.7-2.3,5.8-2.9
			C321.1,297.2,324.2,296.5,327.4,296.3L327.4,296.3z"/>
		<path class="st9" d="M296.6,305.4c-1.5,0.7-2.9,1.8-3.6,2.8c-0.6,1-0.5,2.1-0.1,3.1c0.3,0.8,0.6,1.5,1.2,2.1
			c1.7,1.6,5.7,1.6,7.6,0.4c1.6-1,2.9-3.5,2.6-5.4c-0.2-1.3-1.4-2.7-2.5-3.4C300.5,304.1,298.4,304.5,296.6,305.4L296.6,305.4z"/>
	</g>
</g>
</svg>
