<?xml version="1.0" encoding="utf-8"?>
<!-- Generator: Adobe Illustrator 26.3.1, SVG Export Plug-In . SVG Version: 6.00 Build 0)  -->
<svg version="1.1" id="Vintagio_Design" xmlns="http://www.w3.org/2000/svg" xmlns:xlink="http://www.w3.org/1999/xlink" x="0px"
	 y="0px" viewBox="0 0 500 500" style="enable-background:new 0 0 500 500;" xml:space="preserve">
<style type="text/css">
	.st0{fill-rule:evenodd;clip-rule:evenodd;fill:#FFC34A;}
	.st1{opacity:0.6;fill-rule:evenodd;clip-rule:evenodd;fill:#FFE332;enable-background:new    ;}
	.st2{opacity:0.3;fill-rule:evenodd;clip-rule:evenodd;fill:#FFFFFF;enable-background:new    ;}
	.st3{opacity:0.15;fill-rule:evenodd;clip-rule:evenodd;fill:#FFFFFF;enable-background:new    ;}
	.st4{fill-rule:evenodd;clip-rule:evenodd;}
	.st5{fill-rule:evenodd;clip-rule:evenodd;fill:#EDEDED;}
	.st6{opacity:0.5;fill-rule:evenodd;clip-rule:evenodd;fill:#FFFFFF;enable-background:new    ;}
	.st7{opacity:0.9;fill-rule:evenodd;clip-rule:evenodd;fill:#FFFFFF;enable-background:new    ;}
	.st8{opacity:0.2;fill-rule:evenodd;clip-rule:evenodd;fill:#CBBEBB;enable-background:new    ;}
	.st9{opacity:0.9;fill:#FFFFFF;enable-background:new    ;}
	.st10{fill:#EDEDED;}
</style>
<g id="c">
	<g>
		<g>
			<path class="st0" d="M321.1,189.6c0,21.9-17.7,39.6-39.6,39.6c-21.9,0-39.6-17.7-39.6-39.6c0-4.7,0.8-9.3,2.4-13.5
				c5.5-15.2,20.1-26.1,37.3-26.1c5.5,0,10.8,1.1,15.6,3.2C311.2,159.2,321,173.3,321.1,189.6L321.1,189.6z"/>
			<path class="st1" d="M286.2,178.2c-3.4-0.4-6.8-1.1-10.2-0.9c-5.6,0.2-9.1,3.1-11.8,7.9c-2.3,4.1-4,9.1-8.8,10.9
				c-2.1,0.8-4.6,0.6-6.2-0.9c-0.9-0.8-1.4-1.9-1.9-3.1l-0.1-0.2c-4.3-10.5-1.8-22.6,6.3-30.5c7.1-7,17-11.4,27.8-11.4
				c3,0,5.9,0.3,8.8,1c6.3,1.4,11.3,6.4,12.2,12.8c0,0.3,0.1,0.5,0.1,0.8C303.5,174.2,294.9,179.2,286.2,178.2L286.2,178.2z"/>
			<path class="st2" d="M260.4,165.8c-0.6,0-1.3,0-1.9,0.2c-3.2,0.9-6,3.4-7,6.6c-0.7,2-0.5,4.6,1.9,5.5c0.5,0.2,1,0.2,1.4,0.2
				c1.9-0.1,3.3-1.2,4.8-2.3l4.7-3.6c0.7-0.5,1.2-1.2,1.5-1.9c0.7-1.8-0.3-3.1-1.6-3.9c-0.8-0.5-1.8-0.7-2.7-0.8L260.4,165.8
				L260.4,165.8z"/>
			<path class="st3" d="M261.6,210.2c-0.3,1.6-0.1,3.2,0.5,4.6c3.8,8.5,17.7,13,24.3,5.3c2.8-3.2,3.2-7.9,0.7-11.3
				c-1.1-1.5-2.7-2.4-4.4-3.2c-5.3-2.4-14.2-4.6-18.8,0.2C262.7,207,261.9,208.5,261.6,210.2L261.6,210.2z"/>
			<path class="st3" d="M270.9,215.9c-0.3,1-0.2,2.2,0.6,3.2c0.7,0.9,1.9,1.6,3,1.9c1.2,0.4,2.6,0.5,3.6-0.3c1.9-1.5,1.3-5-0.8-6
				c-0.7-0.4-1.5-0.5-2.3-0.6C273.4,213.9,271.6,214,270.9,215.9L270.9,215.9z"/>
			<path class="st4" d="M281.6,189.6c0,0.1-0.1,0.2-0.2,0.2s-0.2-0.1-0.2-0.2c0,0,0,0,0-0.1c0-0.1,0.1-0.1,0.2-0.1c0,0,0,0,0.1,0
				C281.5,189.5,281.6,189.6,281.6,189.6L281.6,189.6z"/>
		</g>
		<path class="st5" d="M326.3,228.7c0.1,3.6-1,7.1-3,10.1c-3.1,4.6-8.4,7.9-14.7,7.9H191.9c-6.9,0-13.4-4.1-16.1-10.5
			c-1-2.4-1.6-4.9-1.9-7.6c-0.2-1.6-0.2-3.3-0.2-5c0.6-13.6,9.4-27.2,22.4-25.3c0,0,0,0,0.1,0c-0.2-2-0.1-3.9,0.1-5.7
			c3.1-25.4,42.4-40.5,59.7-12.1c1.4,2.3,2.7,4.9,3.7,7.7c17.5-16.8,47.9,0.5,42.2,23.6c-3.8,15.3-3.8,15.4,0,0
			c10.2-1.5,17.1,2,21,7.2C325.2,222.1,326.2,225.4,326.3,228.7L326.3,228.7z"/>
		<path class="st6" d="M257.2,195.3c-0.2,3.1-1.1,6.6-3.8,7.9c-2.4,1.1-5.3,0.1-7.5-1.4c-2.2-1.5-4.2-3.3-6.8-4.1
			c-5-1.5-10.1,1.8-14,5.4c-3.8,3.6-7.7,7.8-12.9,8.5c-4.7,0.7-9.4-1.8-12.3-5.5c-1.8-2.3-3-4.9-3.7-7.7c0,0,0,0,0,0
			c-2.7-28.7,41.2-48.3,59.8-17.8C257.1,185.4,257.5,190.4,257.2,195.3L257.2,195.3z"/>
		<path class="st6" d="M212.3,215.8c-2.7,2.6-7.3,1.2-10.7,2.8c-4.4,2.1-5.1,8.3-8.5,11.8c-3.7,3.7-10.1,3.5-14.2,0.4l-0.1,0
			c-3.7-2.8-5.3-7.6-4.4-12.2c2.3-11.6,10.4-21.7,21.8-20.1c0,0,0,0,0.1,0c-0.2-2-0.1-3.9,0.1-5.7c6.8,1.2,13,5.7,16.1,11.9
			c0.8,1.7,1.4,3.5,1.6,5.4C214.2,212.1,213.8,214.4,212.3,215.8L212.3,215.8z"/>
		<path class="st7" d="M233.8,171.5c-0.8-1.4-2.2-2.2-3.8-2.3c-3.9-0.1-7.9,0.3-11.3,2.2c-1.1,0.6-2.1,1.4-2.5,2.6
			c-0.2,0.5-0.2,1.1-0.2,1.6c0,1.1,0.3,2.3,1.1,3.2c0.7,0.8,1.9,1.2,3,1.1c1.1-0.1,2.1-0.5,3-1.1c0.7-0.5,1.3-1,1.9-1.5
			c1.2-0.9,2.7-1.5,4.1-1.8c1.2-0.2,2.4-0.3,3.5-0.9S234.4,172.6,233.8,171.5L233.8,171.5L233.8,171.5z"/>
		<path class="st7" d="M211.2,180.4c-0.7,0-1.4,0.2-2,0.6c-1.1,0.9-2,2.1-2.5,3.4c-0.3,0.8-0.5,1.7-0.4,2.5s0.6,1.7,1.4,2.1
			c0.6,0.3,1.3,0.3,1.9,0.2c2.2-0.4,4.1-2,4.9-4c0.3-0.8,0.4-1.7,0.2-2.6v0c-0.3-1.2-1.4-2-2.6-2.1
			C212.1,180.4,211.2,180.4,211.2,180.4z"/>
		<path class="st7" d="M191.9,202.9c-3.2,0.5-6.1,2.1-8.1,4.6c-1.7,2.2-2.9,4.9-3.3,7.6c-0.1,0.8-0.1,1.8,0.5,2.4
			c0.4,0.3,0.9,0.4,1.4,0.4c0.8,0.1,1.7,0.1,2.4-0.3c1.2-0.6,1.7-2,2.2-3.2c1-2.6,2.6-5.2,5.2-6c0.2,0,0.3-0.1,0.5-0.1
			c0.9-0.3,1.8-0.9,2.2-1.7C195.9,204.4,193.7,202.5,191.9,202.9C191.9,202.9,191.9,202.9,191.9,202.9z"/>
		<path class="st7" d="M263.7,190c-0.7,0.5-1.3,1.1-1.7,1.9c-0.4,0.7-0.5,1.5-0.2,2.3c0.6,1.8,2.8,1.9,4.2,1.1
			c1.2-0.6,2.1-1.7,3.2-2.6c1.8-1.4,3.9-2.1,6-2.7c0.7-0.2,1.4-0.4,2-0.8c0.5-0.4,0.9-1.2,0.6-1.9c-0.3-0.7-1.2-0.9-1.9-1
			c-2.4-0.3-5,0.1-7.2,1.1l-1.1,0.4C266.2,188.4,264.9,189.1,263.7,190L263.7,190z"/>
		<path class="st8" d="M303.3,218.9c1.7-0.1,3.4-0.1,5,0.1c2.9,0.3,5.7,1.4,7.6,3.6c5,5.9,1.1,14.7-5.7,16.7
			c-2.9,0.9-5.9,0.9-8.9,0.7c-3.9-0.2-8-0.7-11.3-2.8c-4.5-2.9-6-9.7-1.9-13.7c1.6-1.5,3.8-2.3,5.9-2.9
			C297,219.8,300.2,219.2,303.3,218.9L303.3,218.9z"/>
		<path class="st8" d="M272.2,228.1c-1.6,0.7-3,1.8-3.7,2.9c-0.6,1-0.5,2.1-0.1,3.2c0.3,0.8,0.6,1.5,1.2,2.1
			c1.8,1.6,5.8,1.6,7.7,0.4c1.6-1,2.9-3.5,2.7-5.5c-0.2-1.3-1.4-2.7-2.5-3.4C276.1,226.9,274,227.2,272.2,228.1L272.2,228.1z"/>
		<path class="st5" d="M206,320.1c-1.1,0-2.1-0.6-2.6-1.5l-4.6-7.8l-4.7,7.8c-0.6,0.9-1.6,1.5-2.6,1.5c-0.7,0-1.3-0.2-1.8-0.6
			l-1.7-1.2c-0.7-0.5-1.1-1.3-1.2-2.2c-0.1-0.9,0.2-1.7,0.7-2.4l6-6.8l-8.9-2c-0.8-0.2-1.6-0.7-2-1.5c-0.4-0.8-0.5-1.6-0.2-2.5
			l0.6-2c0.4-1.3,1.6-2.1,2.9-2.1c0.4,0,0.8,0.1,1.2,0.2l8.3,3.6l-0.8-9c-0.1-0.9,0.2-1.7,0.8-2.3c0.6-0.6,1.4-1,2.3-1h2.1
			c0.9,0,1.7,0.4,2.3,1c0.6,0.6,0.9,1.5,0.8,2.3l-0.8,9l8.3-3.6c0.4-0.2,0.8-0.2,1.2-0.2c1.3,0,2.5,0.9,2.9,2.1l0.6,2
			c0.3,0.8,0.2,1.7-0.2,2.5c-0.4,0.8-1.2,1.3-2,1.5l-8.9,2l6,6.8c0.6,0.7,0.8,1.5,0.7,2.4c-0.1,0.9-0.6,1.6-1.2,2.2l-1.7,1.2
			C207.2,319.9,206.6,320.1,206,320.1L206,320.1z"/>
		<path class="st7" d="M198.3,289.9c-0.5-0.4-1.2-0.4-1.7,0.1c-0.3,0.4-0.5,0.8-0.6,1.3c-0.1,0.4,0,0.8,0,1.1
			c0.1,1.2,0.1,2.4,0.5,3.5c0.1,0.2,0.2,0.5,0.5,0.5c0.1,0,0.3-0.1,0.4-0.2c0.5-0.5,0.7-1.1,0.9-1.8c0.2-0.7,0.5-1.4,0.6-2.1
			c0.1-0.6,0.1-1.2-0.1-1.8C198.6,290.3,198.5,290.1,198.3,289.9L198.3,289.9L198.3,289.9z"/>
		<path class="st7" d="M204.1,301.4c0.5-0.9,1.7-1.4,2.5-1.7c1-0.3,2-0.7,3-1c0.7-0.2,1.8-0.6,2.5-0.1c0.6,0.5,0.9,1.9,0.4,2.5
			c-0.2,0.2-0.4,0.3-0.6,0.4c-1.2,0.5-2.4,0.8-3.7,1c-0.6,0.1-1.3,0.2-2,0.2c-0.6,0.1-1.3,0.2-1.9,0c-0.2-0.1-0.3-0.2-0.4-0.3
			c-0.1-0.1-0.1-0.3,0-0.4C203.9,301.8,204,301.6,204.1,301.4L204.1,301.4z"/>
		<path class="st9" d="M185.3,300.4c-0.4,0.1-0.7,0.4-1,0.7c-0.2,0.3-0.4,0.8-0.2,1.2c0.1,0.3,0.4,0.6,0.6,0.9
			c0.9,0.6,2.1,1,3.2,1.2c0.7,0.1,1.6,0.3,2.3,0.2c0.3-0.1,0.6-0.3,0.6-0.6c0.1-0.5-0.3-1-0.6-1.4c-0.6-0.5-1.2-1-1.8-1.5
			c-0.6-0.4-1.2-0.8-1.8-0.9C186.1,300.2,185.7,300.3,185.3,300.4L185.3,300.4z"/>
		<path class="st5" d="M294.3,294.5c-0.8-0.7-1.1-1.7-1-2.7l1.5-8.4l-8,2.7c-1,0.3-2,0.1-2.8-0.6c-0.5-0.4-0.8-0.9-0.9-1.5l-0.4-1.9
			c-0.2-0.8,0-1.6,0.4-2.3c0.5-0.7,1.2-1.1,2-1.2l8.4-1.2l-5-6.8c-0.5-0.7-0.7-1.5-0.5-2.3c0.2-0.8,0.6-1.5,1.3-1.9l1.7-1
			c1.1-0.6,2.4-0.5,3.4,0.3c0.3,0.2,0.5,0.6,0.7,0.9l3.7,7.6l4.9-6.9c0.5-0.7,1.2-1.1,2-1.2c0.8-0.1,1.6,0.1,2.2,0.7l1.5,1.3
			c0.6,0.5,1,1.3,1,2.1c0,0.8-0.3,1.6-0.9,2.2l-6.1,5.9l8.1,2.6c0.4,0.1,0.7,0.3,1,0.6c1,0.8,1.3,2.1,0.8,3.3l-0.8,1.8
			c-0.3,0.7-0.9,1.3-1.7,1.6c-0.8,0.3-1.6,0.2-2.3-0.2l-7.5-4l0.1,8.5c0,0.8-0.3,1.6-0.9,2.1c-0.6,0.5-1.4,0.8-2.2,0.8l-1.9-0.2
			C295.4,295.1,294.8,294.9,294.3,294.5L294.3,294.5z"/>
		<path class="st7" d="M307.3,268.4c-0.1-0.6-0.7-1-1.2-0.9c-0.4,0-0.9,0.2-1.2,0.5c-0.3,0.2-0.5,0.5-0.7,0.8
			c-0.7,0.9-1.4,1.8-1.8,2.8c-0.1,0.2-0.1,0.5,0,0.6c0.1,0.1,0.2,0.1,0.4,0.1c0.6,0,1.2-0.4,1.8-0.7c0.6-0.4,1.2-0.7,1.7-1.2
			c0.4-0.4,0.8-0.8,1-1.3C307.3,268.9,307.3,268.7,307.3,268.4L307.3,268.4L307.3,268.4z"/>
		<path class="st7" d="M304.4,280.1c0.9-0.3,2,0,2.8,0.3c0.9,0.4,1.8,0.7,2.7,1.1c0.6,0.3,1.7,0.7,1.8,1.4c0.1,0.7-0.5,1.9-1.2,2
			c-0.2,0-0.5,0-0.7-0.1c-1.2-0.4-2.2-0.9-3.2-1.6c-0.5-0.3-1-0.7-1.5-1c-0.5-0.3-1-0.6-1.3-1.1c-0.1-0.1-0.1-0.3-0.1-0.5
			c0-0.1,0.1-0.2,0.2-0.3C304,280.3,304.2,280.2,304.4,280.1L304.4,280.1z"/>
		<path class="st9" d="M291.7,268c-0.4-0.1-0.7-0.2-1.1-0.1c-0.4,0.1-0.7,0.3-0.9,0.7c-0.1,0.3-0.1,0.7-0.1,1c0.2,1,0.8,2,1.5,2.8
			c0.4,0.5,0.9,1.2,1.5,1.5c0.2,0.1,0.6,0.1,0.8,0c0.4-0.3,0.4-0.9,0.4-1.4c-0.1-0.7-0.2-1.5-0.4-2.2c-0.1-0.6-0.3-1.3-0.8-1.7
			C292.3,268.3,292,268.1,291.7,268z"/>
		<path class="st10" d="M263.4,304.4c0,4.4-3.6,7.9-7.9,7.9c-2.8,0-5.2-1.4-6.6-3.6c-0.8-1.2-1.3-2.7-1.3-4.3c0-4.4,3.6-7.9,7.9-7.9
			c1,0,2,0.2,2.9,0.5C261.3,298.2,263.4,301.1,263.4,304.4z"/>
		<path class="st9" d="M258.4,298.3c-0.2,1.5-1.6,2.4-2.9,3.1c-1.3,0.7-2.7,1.5-3.2,2.9c-0.3,1,0,2.2-0.5,3.2
			c-0.5,1.1-1.9,1.5-3.1,1.3c-0.8-1.2-1.3-2.7-1.3-4.3c0-4.4,3.6-7.9,7.9-7.9c1,0,2,0.2,2.8,0.5
			C258.4,297.5,258.5,297.9,258.4,298.3L258.4,298.3z"/>
		<path class="st10" d="M230.2,271.3c0,2.9-2.3,5.2-5.2,5.2c-1.8,0-3.4-0.9-4.3-2.4c-0.5-0.8-0.8-1.8-0.8-2.8c0-2.9,2.3-5.2,5.2-5.2
			c0.7,0,1.3,0.1,1.9,0.3C228.8,267.2,230.1,269.1,230.2,271.3L230.2,271.3z"/>
		<path class="st10" d="M298.9,332.6c0,2.9-2.3,5.2-5.2,5.2c-1.8,0-3.4-0.9-4.3-2.4c-0.5-0.8-0.8-1.8-0.8-2.8c0-2.9,2.3-5.2,5.2-5.2
			c0.7,0,1.3,0.1,1.9,0.3C297.6,328.5,298.9,330.4,298.9,332.6L298.9,332.6z"/>
		<path class="st10" d="M235.3,343.3c0,3.7-3,6.7-6.7,6.7c-2.3,0-4.4-1.2-5.6-3c-0.7-1-1.1-2.3-1.1-3.6c0-3.7,3-6.7,6.7-6.7
			c0.8,0,1.7,0.2,2.4,0.4C233.5,338.1,235.3,340.5,235.3,343.3L235.3,343.3z"/>
		<path class="st9" d="M231.1,338.2c-0.2,1.2-1.4,2-2.4,2.6c-1.1,0.6-2.3,1.2-2.7,2.4c-0.3,0.9,0,1.9-0.4,2.7
			c-0.4,0.9-1.6,1.3-2.6,1.1c-0.7-1-1.1-2.3-1.1-3.6c0-3.7,3-6.7,6.7-6.7c0.8,0,1.7,0.2,2.4,0.5
			C231.1,337.5,231.2,337.8,231.1,338.2L231.1,338.2z"/>
	</g>
</g>
</svg>
