<?xml version="1.0" encoding="utf-8"?>
<!-- Generator: Adobe Illustrator 26.3.1, SVG Export Plug-In . SVG Version: 6.00 Build 0)  -->
<svg version="1.1" id="Vintagio_Design" xmlns="http://www.w3.org/2000/svg" xmlns:xlink="http://www.w3.org/1999/xlink" x="0px"
	 y="0px" viewBox="0 0 500 500" style="enable-background:new 0 0 500 500;" xml:space="preserve">
<style type="text/css">
	.st0{fill-rule:evenodd;clip-rule:evenodd;fill:#FB636A;}
	.st1{fill-rule:evenodd;clip-rule:evenodd;fill:#FFC34A;}
	.st2{fill-rule:evenodd;clip-rule:evenodd;fill:#3ECEA5;}
	.st3{fill-rule:evenodd;clip-rule:evenodd;fill:#EDEDED;}
	.st4{opacity:0.5;fill-rule:evenodd;clip-rule:evenodd;fill:#FFFFFF;enable-background:new    ;}
	.st5{opacity:0.9;fill-rule:evenodd;clip-rule:evenodd;fill:#FFFFFF;enable-background:new    ;}
	.st6{opacity:0.2;fill-rule:evenodd;clip-rule:evenodd;fill:#CBBEBB;enable-background:new    ;}
	.st7{opacity:0.2;fill-rule:evenodd;clip-rule:evenodd;fill:#FFFFFF;enable-background:new    ;}
	.st8{opacity:0.3;fill-rule:evenodd;clip-rule:evenodd;fill:#FFFFFF;enable-background:new    ;}
</style>
<g id="c">
	<g>
		<path class="st0" d="M247,189.4c-10.4,0-20.4,1.9-29.6,5.5c-14,5.4-26.2,14.6-35.3,26.3c-10.8,13.9-17.3,31.4-17.3,50.3
			c0,10.2,1.8,19.9,5.2,28.9c0.5-0.2,0.9-0.5,1.4-0.8c3.3-1.9,6.6-3.9,9.8-5.9c3.7-2.3,7.5-4.5,11.4-6.5c1.8-0.9,3.7-1.8,5.6-2.5
			c2.1-0.8,4.2-1.5,6.4-2.1c-0.9-3.6-1.4-7.3-1.4-11.1c0-24.1,19.6-43.7,43.7-43.7s43.7,19.6,43.7,43.7c0,2.1-0.1,4.1-0.4,6.1
			c4.3-0.2,8.6-0.4,12.9-0.6c1,0,1.9-0.1,2.9-0.1c3.3-0.1,6.7-0.1,10,0.3c1.3,0.2,2.6,0.4,3.9,0.8c3.1,0.9,5.9,2.3,8.4,4.3
			c0.5-3.5,0.7-7.1,0.7-10.8C329.1,226.2,292.3,189.4,247,189.4z"/>
		<path class="st1" d="M247,202.2c-38.2,0-69.3,31.1-69.3,69.3c0,7.8,1.3,15.2,3.6,22.2c3.7-2.3,7.5-4.5,11.4-6.5
			c1.8-0.9,3.7-1.8,5.6-2.5c2.1-0.8,4.2-1.5,6.4-2.1c-0.9-3.5-1.4-7.2-1.4-11.1c0-24.1,19.6-43.7,43.7-43.7s43.7,19.6,43.7,43.7
			c0,2.1-0.1,4.1-0.4,6c4.3-0.2,8.6-0.4,12.9-0.6c1,0,1.9-0.1,2.9-0.1c3.3-0.1,6.7-0.1,10,0.3c0.2-1.9,0.2-3.8,0.2-5.7
			C316.3,233.3,285.2,202.2,247,202.2L247,202.2z"/>
		<path class="st2" d="M247,215c-31.2,0-56.5,25.3-56.5,56.5c0,5.4,0.8,10.7,2.2,15.7c1.8-0.9,3.7-1.8,5.6-2.5
			c2.1-0.8,4.2-1.5,6.4-2.1c-0.9-3.5-1.4-7.2-1.4-11.1c0-24.1,19.6-43.7,43.7-43.7s43.7,19.6,43.7,43.7c0,2.1-0.1,4.1-0.4,6
			c4.3-0.2,8.6-0.4,12.9-0.6c0.2-1.8,0.3-3.6,0.3-5.5C303.5,240.3,278.2,215,247,215L247,215z"/>
		<g>
			<path class="st3" d="M225.1,286.2c-0.2-8-4.4-15.1-10.7-19.2c-3.6-2.4-7.9-3.9-12.5-4c-9.3-0.2-17.4,4.8-21.5,12.3
				c-2.2,4.1-5.7,7.2-9.8,8.9c-2.4,1-4.9,1.6-7.6,1.6h-0.6c-6.8,0-12.4,5.6-12.4,12.4c0,3.4,1.4,6.5,3.6,8.8
				c2.2,2.2,5.3,3.6,8.8,3.6h38.9C214.7,310.6,225.5,299.6,225.1,286.2L225.1,286.2z"/>
			<path class="st4" d="M215.5,276.5c-1.7,2.3-4.9,2.7-7.7,2.9c-4.6,0.4-9.7,1-13,4.3c-1.9,1.9-3,4.5-4.7,6.7
				c-2.1,2.7-5.1,4.7-8.4,5.1c-3.3,0.4-6.9-0.9-8.9-3.6c-0.2-0.3-0.4-0.7-0.6-1.1c-1.4-3.1-0.3-6.8,2.5-8.8c2.3-1.7,4.3-4,5.8-6.6
				c4.2-7.5,12.3-12.6,21.5-12.3c3.2,0.1,6.3,0.8,9,2.1c2.8,1.2,4.9,3.8,5.4,6.8C216.7,273.5,216.5,275.2,215.5,276.5L215.5,276.5z"
				/>
			<path class="st5" d="M205.3,266.9c-1.7-1.7-6-1.3-7.8-0.7c-1.1,0.4-2.2,1.2-2.5,2.3s0.4,2.4,1.6,2.7c1.2,0.3,2.4-0.5,3.6-0.8
				c1.4-0.3,2.8-0.4,4.2-0.4c0.3,0,0.6,0,0.9-0.1C206.5,269.4,206,267.5,205.3,266.9z"/>
			<path class="st5" d="M193.2,273.1c0.4-0.4,0.6-0.8,0.5-1.4c-0.1-0.4-0.3-0.7-0.6-1c-0.2-0.2-0.4-0.4-0.7-0.5
				c-1-0.4-2.5,0.6-2.6,1.7c-0.1,0.7,0.7,1.6,1.3,1.8S192.6,273.6,193.2,273.1C193.1,273.2,193.2,273.1,193.2,273.1L193.2,273.1z"/>
			<path class="st6" d="M201.6,306.5c2.7,0.8,7.2-0.4,8.9-1.3c2.7-1.5,6.1-4.7,6.1-8.1c0-1.9-1.2-3.7-2.9-4.4
				c-1.5-0.6-3.2-0.4-4.8,0.2c-1.5,0.6-2.8,1.6-4.1,2.7c-1.6,1.3-3.1,2.7-4.2,4.4c-0.6,1-1,2.2-1.1,3.4
				C199.3,305.2,200.2,306.1,201.6,306.5L201.6,306.5z"/>
		</g>
		<g>
			<path class="st3" d="M350,284c0,2.5-0.7,4.9-2.1,7c-2.1,3.2-5.8,5.5-10.2,5.5h-80.5c-4.8,0-9.2-2.8-11.1-7.2
				c-0.7-1.6-1.1-3.4-1.3-5.2c-0.1-1.1-0.2-2.3-0.1-3.4c0.4-9.4,6.4-18.8,15.5-17.5c0,0,0,0,0,0c-0.1-1.4-0.1-2.7,0.1-4
				c2.1-17.5,29.3-27.9,41.2-8.3c1,1.6,1.8,3.4,2.6,5.3c12.1-11.6,33,0.4,29.1,16.2c-2.6,10.6-2.6,10.6,0,0c7-1,11.8,1.4,14.5,5
				C349.2,279.5,350,281.7,350,284L350,284z"/>
			<path class="st4" d="M302.3,261c-0.1,2.1-0.7,4.5-2.6,5.5c-1.6,0.8-3.6,0.1-5.2-0.9c-1.5-1-2.9-2.3-4.7-2.8c-3.5-1-7,1.3-9.6,3.7
				c-2.6,2.5-5.3,5.4-8.9,5.9c-3.2,0.5-6.5-1.2-8.5-3.8c-1.2-1.6-2-3.4-2.6-5.3c0,0,0,0,0,0c-1.8-19.8,28.4-33.3,41.3-12.3
				C302.3,254.1,302.5,257.6,302.3,261L302.3,261z"/>
			<path class="st4" d="M271.3,275.1c-1.9,1.8-5,0.8-7.4,1.9c-3.1,1.5-3.5,5.7-5.9,8.1c-2.5,2.5-7,2.4-9.8,0.2l-0.1,0
				c-2.6-1.9-3.6-5.3-3-8.4c1.6-8,7.2-15,15.1-13.9c0,0,0,0,0,0c-0.1-1.3-0.1-2.7,0-3.9c4.7,0.8,9,3.9,11.1,8.2
				c0.6,1.2,1,2.5,1.1,3.8C272.6,272.5,272.3,274.1,271.3,275.1L271.3,275.1z"/>
			<path class="st5" d="M286.1,244.5c-0.5-1-1.5-1.6-2.6-1.6c-2.7-0.1-5.5,0.2-7.8,1.5c-0.7,0.4-1.5,1-1.7,1.8
				c-0.1,0.4-0.1,0.7-0.1,1.1c0,0.8,0.2,1.6,0.7,2.2c0.5,0.6,1.3,0.8,2.1,0.8s1.5-0.4,2.1-0.8c0.5-0.3,0.9-0.7,1.3-1.1
				c0.8-0.6,1.8-1,2.9-1.2c0.8-0.2,1.7-0.2,2.4-0.6C286.1,246.2,286.6,245.3,286.1,244.5L286.1,244.5L286.1,244.5z"/>
			<path class="st5" d="M270.6,250.7c-0.5,0-1,0.1-1.3,0.4c-0.8,0.6-1.4,1.4-1.7,2.4c-0.2,0.6-0.4,1.1-0.3,1.7
				c0.1,0.6,0.4,1.2,0.9,1.4c0.4,0.2,0.9,0.2,1.3,0.1c1.5-0.2,2.8-1.4,3.4-2.8c0.2-0.6,0.3-1.2,0.2-1.8v0c-0.2-0.8-1-1.4-1.8-1.4
				L270.6,250.7L270.6,250.7z"/>
			<path class="st5" d="M257.2,266.2c-2.2,0.3-4.2,1.5-5.6,3.2c-1.2,1.5-2,3.3-2.3,5.3c-0.1,0.6-0.1,1.3,0.3,1.6
				c0.3,0.2,0.6,0.3,1,0.3c0.6,0.1,1.2,0.1,1.7-0.2c0.8-0.4,1.2-1.4,1.5-2.2c0.7-1.8,1.8-3.6,3.6-4.1c0.1,0,0.2-0.1,0.3-0.1
				c0.6-0.2,1.2-0.6,1.5-1.2C260,267.2,258.5,265.9,257.2,266.2L257.2,266.2L257.2,266.2z"/>
			<path class="st5" d="M306.8,257.3c-0.5,0.4-0.9,0.8-1.2,1.3c-0.2,0.5-0.3,1-0.2,1.6c0.4,1.2,1.9,1.3,2.9,0.8
				c0.8-0.4,1.5-1.2,2.2-1.8c1.2-0.9,2.7-1.4,4.2-1.8c0.5-0.1,1-0.3,1.4-0.6s0.6-0.9,0.4-1.3c-0.2-0.5-0.8-0.6-1.3-0.7
				c-1.7-0.2-3.4,0.1-5,0.8l-0.8,0.3C308.5,256.2,307.6,256.7,306.8,257.3L306.8,257.3z"/>
			<path class="st6" d="M334.2,277.3c1.2-0.1,2.3-0.1,3.4,0c2,0.2,4,1,5.3,2.5c3.5,4.1,0.8,10.1-3.9,11.6c-2,0.6-4.1,0.6-6.1,0.5
				c-2.7-0.1-5.5-0.5-7.8-2c-3.1-2-4.2-6.7-1.3-9.4c1.1-1.1,2.6-1.6,4.1-2C329.8,277.9,332,277.4,334.2,277.3L334.2,277.3z"/>
			<path class="st6" d="M312.6,283.6c-1.1,0.5-2.1,1.3-2.5,2c-0.4,0.7-0.3,1.5-0.1,2.2c0.2,0.5,0.4,1.1,0.8,1.4
				c1.2,1.1,4,1.1,5.3,0.3c1.1-0.7,2-2.4,1.8-3.8c-0.1-0.9-0.9-1.9-1.7-2.4C315.4,282.7,313.9,283,312.6,283.6L312.6,283.6z"/>
		</g>
		<path class="st7" d="M193.7,244.3c-7.1,1.8-12.2-0.3-12.9-8.1c-0.5-5.1,0.1-10.1,1.4-15c9.1-11.7,21.3-20.9,35.3-26.3
			c3.5,0.6,6.8,2.2,9.3,4.6C244.6,216.5,207.6,240.7,193.7,244.3z"/>
		<path class="st8" d="M207.1,209.9c2.3-2.6,6.2-4.3,9.3-5c1.5-0.4,3.3-0.5,4.3,0.7c0.8,0.9,0.7,2.4,0.1,3.4c-1.3,2.1-3.9,2.5-6,3.5
			c-1.4,0.7-2.6,1.8-3.8,2.8c-1.1,1-2.3,2.4-3.7,3c-0.5,0.2-1,0.2-1.4-0.1c-0.6-0.5-0.7-1.5-0.8-2.2c-0.2-1.3,0-2.6,0.5-3.8
			C206,211.3,206.5,210.6,207.1,209.9L207.1,209.9z"/>
	</g>
</g>
</svg>
