<?xml version="1.0" encoding="utf-8"?>
<!-- Generator: Adobe Illustrator 26.3.1, SVG Export Plug-In . SVG Version: 6.00 Build 0)  -->
<svg version="1.1" id="Vintagio_Design" xmlns="http://www.w3.org/2000/svg" xmlns:xlink="http://www.w3.org/1999/xlink" x="0px"
	 y="0px" viewBox="0 0 500 500" style="enable-background:new 0 0 500 500;" xml:space="preserve">
<style type="text/css">
	.st0{fill-rule:evenodd;clip-rule:evenodd;fill:#CBBEBB;}
	.st1{opacity:0.2;fill-rule:evenodd;clip-rule:evenodd;fill:#FFFFFF;enable-background:new    ;}
	.st2{opacity:0.3;fill-rule:evenodd;clip-rule:evenodd;fill:#FFFFFF;enable-background:new    ;}
	.st3{fill-rule:evenodd;clip-rule:evenodd;fill:#EDEDED;}
	.st4{opacity:0.5;fill-rule:evenodd;clip-rule:evenodd;fill:#FFFFFF;enable-background:new    ;}
	.st5{opacity:0.9;fill-rule:evenodd;clip-rule:evenodd;fill:#FFFFFF;enable-background:new    ;}
	.st6{opacity:0.2;fill-rule:evenodd;clip-rule:evenodd;fill:#CBBEBB;enable-background:new    ;}
	.st7{fill-rule:evenodd;clip-rule:evenodd;fill:#75BEEA;}
</style>
<g id="c">
	<g>
		<g>
			<path class="st0" d="M334.5,204.2H229.1c-5.2,0-9.4-4.6-8.8-9.8c0-0.1,0-0.2,0-0.2c1.4-11.3,10.6-20.2,21.9-21.3
				c3.5-0.4,6.9,0,10,1c0.1-0.2,0.1-0.3,0.2-0.5c5-11.6,16.5-19.8,30-19.8c3.1,0,6,0.4,8.8,1.2c10.5,2.9,18.9,11.1,22.2,21.4
				c3.2-1.3,6.8-1.8,10.5-1.4c10,1.1,18.1,9.1,19.3,19.1c0,0.3,0.1,0.7,0.1,1C343.6,200,339.5,204.2,334.5,204.2L334.5,204.2z"/>
			<path class="st1" d="M293.8,169.1c-2.6,4.4-8.2,6-12.5,8.8c-6,3.9-10.4,10.8-17.5,11.9c-1.9,0.3-4,0.1-5.7-0.9
				c-2-1.1-3.3-3.2-4.1-5.3c-0.9-2.3-1.4-4.8-1.6-7.3c-0.1-1.8,0.3-3.7,1.1-5.3c5.5-10.4,16.3-17.4,28.8-17.4c0.8,0,1.6,0,2.5,0.1
				c5.8,0.4,10.6,5.2,10.2,11.1C295,166.3,294.6,167.8,293.8,169.1L293.8,169.1z"/>
			<path class="st2" d="M281.3,159.2c-0.6,0-1.2,0-1.7,0c-2,0.1-4.1,0.5-5.9,1.3c-1.2,0.6-2.4,1.3-3.5,2.1c-1.6,1.3-3.2,3.1-2.6,5.2
				c0.3,1.1,1.2,2,2.3,2.3c1.7,0.4,3-0.6,4.2-1.5c1.5-1.2,3-2.4,4.7-3.4c0.8-0.4,1.6-0.8,2.4-1.1c0.8-0.3,1.7-0.1,2.3-0.7
				c0.4-0.4,0.5-0.9,0.5-1.4c0-0.8-0.2-1.6-0.7-2.2c-0.4-0.4-1-0.5-1.6-0.5C281.5,159.2,281.4,159.2,281.3,159.2L281.3,159.2z"/>
			<path class="st2" d="M264.1,170.2c0.3,0,0.7,0.1,1,0.3c0.7,0.5,1.4,1.6,1.4,2.5c0.1,1.2-0.7,2.5-1.9,3c-0.5,0.2-1.2,0.3-1.8,0.2
				c-0.5-0.1-1-0.3-1.3-0.7c-0.9-1-0.5-2.8,0.1-3.8C262.2,170.9,263.2,170.2,264.1,170.2L264.1,170.2z"/>
			<path class="st2" d="M246.6,178.5L246.6,178.5c-1.5-0.2-3.3,0.1-4.7,0.4c-1.5,0.3-3,0.8-4.4,1.6c-1.1,0.6-2.1,1.6-2.6,2.9
				c-0.4,1.1-0.7,2.9,0.6,3.5c0.5,0.3,1.1,0.3,1.6,0.2c1.3-0.2,2.4-0.9,3.5-1.6c1.5-0.9,2.9-1.7,4.6-1.8c0.8-0.1,1.6,0,2.4-0.2
				c1.2-0.3,1.9-1.6,1.6-2.8C249,179.3,247.8,178.7,246.6,178.5L246.6,178.5z"/>
		</g>
		<g>
			<path class="st3" d="M317.4,216.9c0.1,3.8-1.1,7.5-3.1,10.7c-3.2,4.9-8.8,8.3-15.5,8.3H175.9c-7.3,0-14.1-4.3-16.9-11
				c-1.1-2.5-1.7-5.2-2-8c-0.2-1.7-0.2-3.5-0.2-5.2c0.6-14.3,9.8-28.6,23.7-26.7c0,0,0,0,0.1,0c-0.2-2.1-0.1-4.1,0.1-6
				c3.3-26.8,44.7-42.6,62.9-12.7c1.5,2.4,2.8,5.1,3.9,8.1c18.4-17.7,50.5,0.6,44.4,24.8c-4,16.2-4,16.2,0,0
				c10.7-1.5,18.1,2.1,22.1,7.6C316.3,209.9,317.4,213.4,317.4,216.9L317.4,216.9z"/>
			<path class="st4" d="M244.6,181.7c-0.2,3.2-1.1,6.9-4,8.3c-2.5,1.2-5.5,0.1-7.9-1.4c-2.3-1.5-4.4-3.5-7.1-4.3
				c-5.3-1.6-10.7,1.9-14.7,5.7c-4,3.8-8.1,8.2-13.6,9c-4.9,0.7-9.9-1.9-13-5.8c-1.9-2.4-3.1-5.2-3.9-8.1c0,0,0,0,0.1,0
				c-2.8-30.3,43.4-50.9,63-18.8C244.6,171.3,245,176.5,244.6,181.7z"/>
			<path class="st4" d="M197.3,203.2c-2.9,2.7-7.7,1.3-11.2,2.9c-4.7,2.2-5.3,8.8-9,12.4c-3.9,3.9-10.6,3.7-15,0.4L162,219
				c-3.9-3-5.6-8-4.6-12.8c2.4-12.2,11-22.9,23-21.2c0,0,0,0,0,0c-0.2-2.1-0.1-4.1,0.1-6c7.2,1.3,13.7,6,16.9,12.5
				c0.9,1.8,1.5,3.7,1.7,5.7C199.4,199.4,198.9,201.7,197.3,203.2L197.3,203.2z"/>
			<path class="st5" d="M219.9,156.6c-0.8-1.5-2.3-2.4-4-2.4c-4.2-0.1-8.4,0.3-11.9,2.3c-1.1,0.6-2.2,1.5-2.6,2.7
				c-0.2,0.5-0.2,1.1-0.2,1.7c0,1.2,0.3,2.5,1.1,3.4c0.8,0.9,2,1.2,3.1,1.2c1.1-0.1,2.2-0.5,3.2-1.2c0.7-0.5,1.3-1.1,2.1-1.6
				c1.3-0.9,2.8-1.5,4.3-1.8c1.2-0.2,2.6-0.3,3.7-1C219.8,159.2,220.6,157.7,219.9,156.6L219.9,156.6L219.9,156.6z"/>
			<path class="st5" d="M196.2,166c-0.7,0-1.5,0.2-2,0.7c-1.2,1-2.1,2.2-2.7,3.6c-0.4,0.8-0.6,1.8-0.4,2.6c0.1,0.9,0.6,1.8,1.4,2.2
				c0.6,0.3,1.4,0.3,2.1,0.2c2.3-0.4,4.3-2.1,5.1-4.2c0.3-0.9,0.5-1.8,0.2-2.7v0c-0.3-1.3-1.5-2.1-2.8-2.2L196.2,166L196.2,166z"/>
			<path class="st5" d="M175.8,189.7c-3.3,0.5-6.4,2.2-8.5,4.9c-1.8,2.3-3,5.1-3.5,8c-0.1,0.9-0.1,1.9,0.5,2.5
				c0.4,0.3,1,0.4,1.5,0.4c0.8,0.1,1.8,0.1,2.5-0.3c1.2-0.6,1.8-2.1,2.3-3.4c1-2.7,2.7-5.4,5.5-6.3c0.2,0,0.3-0.1,0.5-0.1
				c1-0.3,1.8-0.9,2.3-1.8C180.1,191.3,177.8,189.3,175.8,189.7L175.8,189.7L175.8,189.7z"/>
			<path class="st5" d="M251.5,176.1c-0.7,0.6-1.4,1.2-1.8,2c-0.4,0.7-0.5,1.6-0.2,2.4c0.7,1.9,2.9,2,4.5,1.2
				c1.3-0.7,2.3-1.8,3.4-2.7c1.9-1.4,4.1-2.2,6.4-2.8c0.7-0.2,1.5-0.4,2.1-0.9s0.9-1.3,0.6-2c-0.3-0.7-1.2-1-2-1.1
				c-2.6-0.3-5.2,0.1-7.6,1.1l-1.2,0.5C254.1,174.4,252.7,175.2,251.5,176.1L251.5,176.1z"/>
			<path class="st6" d="M293.3,206.6c1.8-0.1,3.5-0.1,5.2,0.1c3,0.3,6.1,1.5,8,3.8c5.3,6.2,1.2,15.4-6,17.6c-3,0.9-6.2,0.9-9.4,0.8
				c-4.1-0.2-8.5-0.7-12-3c-4.7-3.1-6.3-10.3-2-14.4c1.7-1.6,4-2.4,6.2-3.1C286.6,207.5,289.9,206.8,293.3,206.6L293.3,206.6z"/>
			<path class="st6" d="M260.4,216.3c-1.6,0.8-3.1,1.9-3.9,3c-0.7,1-0.5,2.2-0.1,3.3c0.3,0.8,0.7,1.6,1.3,2.2
				c1.9,1.7,6.1,1.7,8.1,0.4c1.7-1.1,3.1-3.7,2.8-5.8c-0.2-1.4-1.4-2.9-2.6-3.6C264.5,215,262.4,215.3,260.4,216.3L260.4,216.3z"/>
		</g>
		<path class="st7" d="M193.7,265.3c-0.3,0.7-0.7,1.3-1.1,1.9c-4,6.3-9.7,7.5-14.7,5.1c-3.2-1.6-5.4-4.5-5.8-8.2
			c-0.3-2.5,0.3-5.4,1.9-8.6c2.4-4.9,8.2-7.3,12.4-8.5c2.7-0.8,5.5,0.6,6.6,3.3C194.6,254.3,196.1,260.5,193.7,265.3L193.7,265.3z"
			/>
		<path class="st1" d="M190.7,266.5c1.1,0.2,1.5,1.5,0.8,2.4c-3.9,4.9-9.1,5.8-13.6,3.5c-2.9-1.4-4.9-3.8-5.6-6.9
			c-0.2-0.8,0.3-1.5,1-1.7c3.4-0.8,5.9,2.7,9.1,3.8C185.6,268.5,187.8,266,190.7,266.5L190.7,266.5L190.7,266.5z"/>
		<path class="st4" d="M181.3,252.1c-0.4,0-0.8,0.1-1.2,0.3c-1.3,0.6-2.6,2-2.9,3.4c-0.4,1.6,0.9,3.4,2.5,2.3
			c1.3-0.9,3.4-2.6,3.3-4.4C183,252.6,182.2,252.1,181.3,252.1L181.3,252.1z"/>
		<path class="st4" d="M177.7,267.2c-0.2-0.4-0.5-0.8-0.8-1.1c-0.1,0-0.1-0.1-0.2-0.1c-0.5-0.3-1.1-0.4-1.5,0.1
			c-0.4,0.5-0.4,1.2-0.1,1.7c0.2,0.3,0.5,0.6,0.9,0.9c0.1,0.1,0.2,0.1,0.3,0.2c0.1,0.1,0.3,0.1,0.4,0c0.4,0,0.9-0.2,1.1-0.5
			c0.2-0.3,0.1-0.6,0-0.9C177.7,267.3,177.7,267.3,177.7,267.2L177.7,267.2z"/>
		<path class="st4" d="M179.9,268.1c0.3-0.1,0.7,0,1.1,0c0.2,0,0.4,0.1,0.6,0.2c0.2,0.2,0.3,0.4,0.3,0.7c0,0.4-0.2,0.6-0.5,0.6
			c-0.5,0.1-1.2,0.3-1.6-0.1C179.3,269.2,179.3,268.3,179.9,268.1L179.9,268.1z"/>
		<path class="st7" d="M235.1,269.1c-0.2,0.5-0.5,1-0.8,1.4c-2.9,4.6-7.1,5.5-10.7,3.7c-2.4-1.2-4-3.3-4.2-6c-0.2-1.8,0.2-4,1.4-6.3
			c1.8-3.5,6-5.4,9.1-6.2c2-0.6,4,0.5,4.8,2.4C235.7,261.1,236.9,265.6,235.1,269.1L235.1,269.1z"/>
		<path class="st1" d="M232.9,270c0.8,0.1,1.1,1.1,0.6,1.7c-2.8,3.6-6.6,4.2-9.9,2.6c-2.1-1.1-3.6-2.8-4.1-5.1
			c-0.1-0.5,0.2-1.1,0.8-1.2c2.5-0.6,4.3,1.9,6.6,2.8C229.1,271.5,230.7,269.6,232.9,270C232.9,270,232.9,270,232.9,270z"/>
		<path class="st4" d="M226,259.5c-0.3,0-0.6,0.1-0.9,0.2c-0.9,0.5-1.9,1.4-2.1,2.5c-0.3,1.1,0.7,2.5,1.9,1.7
			c0.9-0.7,2.5-1.9,2.4-3.2C227.3,259.8,226.7,259.5,226,259.5L226,259.5z"/>
		<path class="st4" d="M224.2,271c-0.2-0.4-0.5-0.8-0.8-1.1c-0.1,0-0.1-0.1-0.2-0.1c-0.5-0.3-1.1-0.4-1.5,0.1
			c-0.4,0.5-0.3,1.2,0,1.7c0.2,0.4,0.5,0.6,0.9,0.9c0.1,0.1,0.2,0.1,0.3,0.2c0.1,0,0.3,0,0.4,0c0.4,0,0.9-0.2,1.1-0.5
			c0.2-0.3,0.1-0.6,0-0.9C224.2,271.1,224.2,271,224.2,271z"/>
		<path class="st7" d="M282.8,265.3c-0.3,0.7-0.7,1.3-1.1,1.9c-4,6.3-9.7,7.5-14.7,5.1c-3.2-1.6-5.4-4.5-5.8-8.2
			c-0.3-2.5,0.3-5.4,1.9-8.6c2.4-4.9,8.2-7.3,12.4-8.5c2.7-0.8,5.5,0.6,6.6,3.3C283.6,254.3,285.2,260.5,282.8,265.3L282.8,265.3z"
			/>
		<path class="st1" d="M279.8,266.5c1.1,0.2,1.5,1.5,0.8,2.4c-3.9,4.9-9.1,5.8-13.6,3.5c-2.9-1.4-4.9-3.8-5.6-6.9
			c-0.2-0.8,0.3-1.5,1-1.7c3.4-0.8,5.9,2.7,9.1,3.8C274.6,268.5,276.8,266,279.8,266.5L279.8,266.5L279.8,266.5z"/>
		<path class="st4" d="M270.4,252.1c-0.4,0-0.8,0.1-1.2,0.3c-1.3,0.6-2.6,2-2.9,3.4c-0.4,1.6,0.9,3.4,2.5,2.3
			c1.3-0.9,3.4-2.6,3.3-4.4C272.1,252.6,271.3,252.1,270.4,252.1L270.4,252.1z"/>
		<path class="st4" d="M266.7,267.2c-0.2-0.4-0.5-0.8-0.8-1.1c-0.1,0-0.1-0.1-0.2-0.1c-0.5-0.3-1.1-0.4-1.5,0.1
			c-0.4,0.5-0.4,1.2-0.1,1.7c0.2,0.3,0.5,0.6,0.9,0.9c0.1,0.1,0.2,0.1,0.3,0.2c0.1,0.1,0.3,0.1,0.4,0c0.4,0,0.9-0.2,1.1-0.5
			c0.2-0.3,0.1-0.6,0-0.9C266.8,267.3,266.8,267.3,266.7,267.2L266.7,267.2z"/>
		<path class="st4" d="M269,268.1c0.3-0.1,0.7,0,1.1,0c0.2,0,0.4,0.1,0.6,0.2c0.2,0.2,0.3,0.4,0.3,0.7c0,0.4-0.2,0.6-0.5,0.6
			c-0.5,0.1-1.2,0.3-1.6-0.1C268.3,269.2,268.3,268.3,269,268.1L269,268.1z"/>
		<path class="st7" d="M207.2,309.8c-0.3,0.7-0.7,1.3-1.1,1.9c-3.8,6-9.4,7.3-14.2,4.9c-3.1-1.6-5.2-4.3-5.6-7.9
			c-0.3-2.4,0.3-5.2,1.8-8.3c2.3-4.7,8-7.1,12-8.2c2.6-0.7,5.4,0.6,6.3,3.1C208,299.2,209.5,305.1,207.2,309.8z"/>
		<path class="st1" d="M204.3,310.9c1.1,0.2,1.4,1.4,0.8,2.3c-3.8,4.8-8.8,5.6-13.1,3.4c-2.8-1.4-4.8-3.7-5.4-6.7
			c-0.2-0.7,0.3-1.5,1-1.7c3.3-0.8,5.7,2.6,8.8,3.6C199.3,312.9,201.4,310.5,204.3,310.9L204.3,310.9L204.3,310.9z"/>
		<path class="st4" d="M195.1,297c-0.4,0-0.8,0.1-1.1,0.3c-1.2,0.6-2.5,1.9-2.8,3.3c-0.4,1.5,0.9,3.3,2.4,2.2
			c1.3-0.9,3.3-2.5,3.2-4.2C196.9,297.5,196,297.1,195.1,297L195.1,297z"/>
		<path class="st4" d="M191.7,311.7c-0.2-0.4-0.4-0.8-0.8-1c-0.1,0-0.1-0.1-0.2-0.1c-0.5-0.3-1-0.4-1.4,0.1c-0.4,0.4-0.3,1.1,0,1.6
			c0.2,0.3,0.5,0.6,0.8,0.8c0.1,0.1,0.2,0.1,0.3,0.2c0.1,0.1,0.3,0.1,0.4,0c0.4,0,0.8-0.2,1-0.5c0.1-0.3,0.1-0.6,0-0.9
			C191.7,311.8,191.7,311.7,191.7,311.7L191.7,311.7z"/>
		<path class="st4" d="M193.8,312.5c0.3-0.1,0.7,0,1.1,0c0.2,0,0.4,0.1,0.6,0.2c0.2,0.2,0.2,0.4,0.3,0.7c0,0.3-0.2,0.5-0.5,0.6
			c-0.5,0.1-1.2,0.3-1.6-0.1C193.2,313.6,193.2,312.7,193.8,312.5L193.8,312.5z"/>
		<path class="st7" d="M254.4,304.3c-0.3,0.6-0.6,1.2-1,1.8c-3.6,5.7-8.9,6.9-13.4,4.6c-3-1.5-5-4.1-5.3-7.5c-0.2-2.3,0.2-5,1.7-7.9
			c2.2-4.5,7.5-6.7,11.4-7.8c2.5-0.7,5.1,0.6,6,3C255.1,294.3,256.6,299.9,254.4,304.3L254.4,304.3z"/>
		<path class="st1" d="M251.6,305.4c1,0.2,1.4,1.4,0.8,2.2c-3.5,4.5-8.3,5.3-12.4,3.2c-2.6-1.3-4.5-3.5-5.1-6.4
			c-0.1-0.7,0.3-1.4,0.9-1.6c3.1-0.8,5.4,2.4,8.3,3.4C246.9,307.2,248.9,304.9,251.6,305.4L251.6,305.4L251.6,305.4z"/>
		<path class="st4" d="M243,292.2c-0.4,0-0.7,0.1-1.1,0.3c-1.2,0.6-2.3,1.8-2.7,3.1c-0.3,1.4,0.9,3.1,2.3,2.1c1.2-0.8,3.1-2.4,3.1-4
			C244.6,292.7,243.8,292.2,243,292.2L243,292.2z"/>
		<path class="st4" d="M239.7,306.1c-0.2-0.4-0.4-0.8-0.8-1c-0.1,0-0.1-0.1-0.2-0.1c-0.4-0.3-1-0.4-1.4,0.1c-0.4,0.4-0.3,1.1,0,1.5
			c0.2,0.3,0.5,0.6,0.8,0.8c0.1,0.1,0.2,0.1,0.3,0.1c0.1,0,0.3,0.1,0.4,0c0.4,0,0.8-0.1,1-0.5c0.1-0.3,0.1-0.6,0-0.8
			C239.8,306.1,239.7,306.1,239.7,306.1L239.7,306.1z"/>
		<path class="st4" d="M241.8,306.9c0.3-0.1,0.7,0,1,0c0.2,0,0.4,0.1,0.5,0.2c0.2,0.1,0.2,0.4,0.2,0.6c0,0.3-0.1,0.5-0.4,0.6
			c-0.4,0.1-1.1,0.3-1.5-0.1C241.2,307.9,241.1,307.1,241.8,306.9L241.8,306.9z"/>
		<path class="st7" d="M224.2,344c-0.2,0.5-0.5,1-0.8,1.4c-2.9,4.6-7.1,5.5-10.7,3.7c-2.4-1.2-4-3.3-4.2-6c-0.2-1.8,0.2-4,1.4-6.3
			c1.8-3.5,6-5.3,9.1-6.2c2-0.6,4,0.5,4.8,2.4C224.8,336,225.9,340.5,224.2,344L224.2,344z"/>
		<path class="st1" d="M222,344.8c0.8,0.1,1.1,1.1,0.6,1.7c-2.8,3.6-6.6,4.2-9.9,2.6c-2.1-1-3.6-2.8-4.1-5.1
			c-0.1-0.5,0.2-1.1,0.8-1.2c2.5-0.6,4.3,1.9,6.6,2.8C218.2,346.3,219.8,344.5,222,344.8L222,344.8z"/>
		<path class="st4" d="M215.1,334.4c-0.3,0-0.6,0.1-0.9,0.2c-0.9,0.5-1.9,1.4-2.1,2.5c-0.3,1.1,0.7,2.5,1.9,1.7
			c0.9-0.7,2.5-1.9,2.4-3.2C216.4,334.7,215.8,334.4,215.1,334.4L215.1,334.4z"/>
		<path class="st4" d="M213.3,345.8c-0.2-0.4-0.5-0.8-0.8-1.1c-0.1,0-0.1-0.1-0.2-0.1c-0.5-0.3-1.1-0.4-1.5,0.1
			c-0.4,0.5-0.4,1.2-0.1,1.7c0.2,0.4,0.5,0.6,0.9,0.9c0.1,0.1,0.2,0.1,0.3,0.2c0.1,0.1,0.3,0.1,0.4,0c0.4,0,0.9-0.2,1.1-0.5
			c0.2-0.3,0.1-0.6,0-1C213.3,345.9,213.3,345.9,213.3,345.8L213.3,345.8z"/>
		<path class="st7" d="M174.1,344c-0.2,0.5-0.5,1-0.8,1.4c-2.9,4.6-7.1,5.5-10.7,3.7c-2.4-1.2-4-3.3-4.2-6c-0.2-1.8,0.2-4,1.4-6.3
			c1.8-3.5,6-5.3,9.1-6.2c2-0.6,4,0.5,4.8,2.4C174.7,336,175.9,340.5,174.1,344L174.1,344z"/>
		<path class="st1" d="M171.9,344.8c0.8,0.1,1.1,1.1,0.6,1.7c-2.8,3.6-6.6,4.2-9.9,2.6c-2.1-1-3.6-2.8-4.1-5.1
			c-0.1-0.5,0.2-1.1,0.8-1.2c2.5-0.6,4.3,1.9,6.6,2.8C168.1,346.3,169.7,344.5,171.9,344.8C171.9,344.8,171.9,344.8,171.9,344.8z"/>
		<path class="st4" d="M165,334.4c-0.3,0-0.6,0.1-0.9,0.2c-0.9,0.5-1.9,1.4-2.1,2.5c-0.3,1.1,0.7,2.5,1.9,1.7
			c0.9-0.7,2.5-1.9,2.4-3.2C166.3,334.7,165.7,334.4,165,334.4L165,334.4z"/>
		<path class="st4" d="M163.2,345.8c-0.2-0.4-0.5-0.8-0.8-1.1c-0.1,0-0.1-0.1-0.2-0.1c-0.5-0.3-1.1-0.4-1.5,0.1
			c-0.4,0.5-0.3,1.2,0,1.7c0.2,0.4,0.5,0.6,0.9,0.9c0.1,0.1,0.2,0.1,0.3,0.2c0.1,0.1,0.3,0.1,0.4,0c0.4,0,0.9-0.2,1.1-0.5
			c0.2-0.3,0.1-0.6,0-1C163.2,345.9,163.2,345.9,163.2,345.8L163.2,345.8z"/>
	</g>
</g>
</svg>
