<?xml version="1.0" encoding="utf-8"?>
<!-- Generator: Adobe Illustrator 26.3.1, SVG Export Plug-In . SVG Version: 6.00 Build 0)  -->
<svg version="1.1" id="Vintagio_Design" xmlns="http://www.w3.org/2000/svg" xmlns:xlink="http://www.w3.org/1999/xlink" x="0px"
	 y="0px" viewBox="0 0 500 500" style="enable-background:new 0 0 500 500;" xml:space="preserve">
<style type="text/css">
	.st0{fill-rule:evenodd;clip-rule:evenodd;fill:#CBBEBB;}
	.st1{opacity:0.2;fill-rule:evenodd;clip-rule:evenodd;fill:#FFFFFF;enable-background:new    ;}
	.st2{opacity:0.3;fill-rule:evenodd;clip-rule:evenodd;fill:#FFFFFF;enable-background:new    ;}
	.st3{fill-rule:evenodd;clip-rule:evenodd;fill:#EDEDED;}
	.st4{opacity:0.9;fill-rule:evenodd;clip-rule:evenodd;fill:#FFFFFF;enable-background:new    ;}
	.st5{opacity:0.9;fill:#FFFFFF;enable-background:new    ;}
	.st6{fill:#EDEDED;}
</style>
<g id="c">
	<g>
		<g>
			<path class="st0" d="M336.2,221.7c0.1,4.1-1.1,8.1-3.4,11.4c-3.5,5.2-9.4,8.9-16.6,8.9H184.4c-7.9,0-15.1-4.6-18.2-11.8
				c-1.1-2.7-1.8-5.6-2.2-8.6c-0.2-1.8-0.3-3.7-0.2-5.6c0.6-15.4,10.6-30.7,25.4-28.6c0,0,0,0,0.1,0c-0.2-2.2-0.2-4.4,0.1-6.5
				c3.5-28.7,47.9-45.7,67.5-13.6c1.6,2.6,3,5.5,4.2,8.7c19.8-19,54.1,0.6,47.6,26.6c-4.3,17.3-4.3,17.3,0,0
				c11.5-1.6,19.4,2.2,23.7,8.2C334.9,214.2,336.1,218,336.2,221.7L336.2,221.7z"/>
			<path class="st1" d="M258.1,183.9c-0.2,3.5-1.2,7.4-4.3,8.9c-2.7,1.3-5.9,0.1-8.4-1.5c-2.5-1.7-4.8-3.8-7.6-4.6
				c-5.7-1.7-11.4,2.1-15.8,6.1c-4.3,4-8.7,8.8-14.5,9.6c-5.3,0.8-10.6-2-13.9-6.2c-2-2.6-3.4-5.6-4.2-8.7c0,0,0,0,0.1,0
				c-3-32.4,46.6-54.5,67.6-20.1C258,172.8,258.5,178.4,258.1,183.9L258.1,183.9z"/>
			<path class="st1" d="M207.4,207.1c-3.1,2.9-8.2,1.3-12.1,3.2c-5,2.4-5.7,9.4-9.6,13.3c-4.1,4.2-11.4,3.9-16.1,0.4l-0.1-0.1
				c-4.2-3.2-5.9-8.6-4.9-13.8c2.6-13.1,11.8-24.5,24.6-22.7c0,0,0,0,0.1,0c-0.2-2.2-0.2-4.4,0.1-6.5c7.7,1.4,14.7,6.4,18.2,13.4
				c0.9,1.9,1.6,4,1.8,6.1C209.6,202.9,209.1,205.5,207.4,207.1L207.4,207.1z"/>
			<path class="st2" d="M231.7,157.1c-0.9-1.6-2.5-2.5-4.3-2.6c-4.5-0.1-9,0.3-12.8,2.5c-1.2,0.7-2.4,1.6-2.8,2.9
				c-0.2,0.6-0.2,1.2-0.2,1.8c0.1,1.3,0.3,2.7,1.2,3.6c0.8,0.9,2.1,1.3,3.4,1.3c1.2-0.1,2.4-0.6,3.4-1.3c0.8-0.5,1.4-1.2,2.2-1.7
				c1.4-1,3-1.7,4.7-2c1.3-0.3,2.7-0.4,3.9-1C231.5,159.9,232.4,158.3,231.7,157.1L231.7,157.1L231.7,157.1z"/>
			<path class="st2" d="M206.2,167.1c-0.8,0-1.6,0.2-2.2,0.7c-1.2,1-2.2,2.4-2.8,3.8c-0.4,0.9-0.6,1.9-0.5,2.8
				c0.1,1,0.7,1.9,1.6,2.3c0.7,0.3,1.5,0.3,2.2,0.2c2.5-0.4,4.6-2.2,5.5-4.6c0.3-0.9,0.5-2,0.3-2.9v0c-0.3-1.4-1.6-2.3-3-2.4
				L206.2,167.1L206.2,167.1z"/>
			<path class="st2" d="M184.4,192.6c-3.6,0.5-6.9,2.4-9.1,5.2c-1.9,2.5-3.2,5.5-3.7,8.6c-0.2,0.9-0.2,2.1,0.6,2.7
				c0.4,0.4,1,0.4,1.6,0.5c0.9,0.1,1.9,0.1,2.7-0.3c1.3-0.7,1.9-2.2,2.4-3.6c1.1-2.9,2.9-5.8,5.9-6.8c0.2-0.1,0.4-0.1,0.5-0.2
				c1.1-0.3,2-1,2.5-2C188.9,194.2,186.5,192.1,184.4,192.6L184.4,192.6L184.4,192.6z"/>
			<path class="st2" d="M265.5,178c-0.8,0.6-1.5,1.3-1.9,2.2c-0.4,0.8-0.5,1.7-0.3,2.5c0.7,2.1,3.1,2.1,4.8,1.2
				c1.4-0.7,2.4-1.9,3.7-2.9c2-1.5,4.4-2.4,6.8-3c0.8-0.2,1.6-0.4,2.2-0.9s1-1.4,0.7-2.1c-0.4-0.8-1.3-1-2.2-1.1
				c-2.8-0.3-5.6,0.1-8.1,1.2l-1.2,0.5C268.3,176.2,266.8,177,265.5,178L265.5,178z"/>
		</g>
		<path class="st3" d="M241.6,303.6c-1,0-1.9-0.5-2.4-1.4l-4.2-7l-4.2,7c-0.5,0.9-1.4,1.4-2.4,1.4c-0.6,0-1.2-0.2-1.6-0.5l-1.5-1.1
			c-0.6-0.5-1-1.2-1.1-1.9c-0.1-0.8,0.2-1.6,0.7-2.1l5.4-6.2l-8-1.8c-0.8-0.2-1.4-0.7-1.8-1.3s-0.5-1.5-0.2-2.2l0.6-1.8
			c0.4-1.1,1.4-1.9,2.6-1.9c0.4,0,0.7,0.1,1.1,0.2l7.5,3.2l-0.7-8.2c-0.1-0.8,0.2-1.5,0.7-2.1c0.5-0.6,1.3-0.9,2-0.9h1.9
			c0.8,0,1.5,0.3,2.1,0.9c0.5,0.6,0.8,1.4,0.7,2.1L238,286l7.5-3.2c0.3-0.2,0.7-0.2,1.1-0.2c1.2,0,2.3,0.8,2.7,1.9l0.6,1.8
			c0.2,0.7,0.2,1.6-0.2,2.2c-0.4,0.7-1,1.2-1.8,1.3l-8,1.8l5.4,6.2c0.5,0.6,0.8,1.4,0.7,2.1c-0.1,0.8-0.5,1.5-1.1,1.9l-1.5,1.1
			C242.8,303.4,242.2,303.6,241.6,303.6L241.6,303.6z"/>
		<path class="st4" d="M234.7,276.3c-0.4-0.4-1.1-0.3-1.5,0.1c-0.3,0.3-0.5,0.7-0.6,1.2c0,0.3,0,0.7,0,1c0.1,1.1,0.1,2.1,0.5,3.2
			c0.1,0.2,0.2,0.4,0.4,0.4c0.1,0,0.2-0.1,0.3-0.2c0.4-0.4,0.6-1,0.8-1.6c0.2-0.6,0.4-1.3,0.5-1.9c0.1-0.5,0.1-1.1-0.1-1.6
			C235,276.6,234.8,276.5,234.7,276.3L234.7,276.3L234.7,276.3z"/>
		<path class="st4" d="M239.9,286.7c0.5-0.8,1.5-1.2,2.3-1.5c0.9-0.3,1.8-0.6,2.7-0.9c0.6-0.2,1.6-0.6,2.2-0.1
			c0.5,0.4,0.9,1.7,0.4,2.3c-0.1,0.2-0.4,0.3-0.6,0.4c-1.1,0.5-2.2,0.7-3.3,0.9c-0.6,0.1-1.2,0.1-1.8,0.2c-0.5,0-1.1,0.2-1.7,0
			c-0.2,0-0.3-0.1-0.4-0.3c-0.1-0.1-0.1-0.2,0-0.4C239.7,287.1,239.8,286.9,239.9,286.7L239.9,286.7z"/>
		<path class="st5" d="M222.9,285.8c-0.3,0.1-0.7,0.3-0.9,0.6c-0.2,0.3-0.3,0.7-0.2,1.1c0.1,0.3,0.3,0.6,0.6,0.8
			c0.8,0.6,1.9,0.9,2.8,1.1c0.6,0.1,1.4,0.3,2.1,0.1c0.3-0.1,0.5-0.2,0.6-0.5c0.1-0.5-0.3-0.9-0.6-1.2c-0.5-0.5-1.1-0.9-1.7-1.4
			c-0.5-0.4-1.1-0.7-1.7-0.8C223.7,285.7,223.3,285.7,222.9,285.8L222.9,285.8z"/>
		<path class="st3" d="M320.2,269.9c-0.6,0.5-1.4,0.7-2.2,0.5l-6.4-2.1l1.2,6.6c0.1,0.8-0.1,1.6-0.7,2.1c-0.4,0.3-0.8,0.5-1.3,0.6
			l-1.5,0.1c-0.6,0.1-1.3-0.1-1.8-0.6c-0.5-0.4-0.8-1-0.8-1.7l0-6.8l-5.9,3.2c-0.6,0.3-1.2,0.4-1.8,0.2c-0.6-0.2-1.1-0.7-1.4-1.3
			l-0.6-1.4c-0.4-0.9-0.2-2,0.6-2.6c0.2-0.2,0.5-0.4,0.8-0.5l6.4-2.1l-4.9-4.7c-0.5-0.4-0.7-1.1-0.7-1.7c0-0.6,0.3-1.2,0.8-1.7
			l1.2-1c0.5-0.4,1.1-0.6,1.8-0.6c0.6,0.1,1.2,0.4,1.6,0.9l4,5.5l2.9-6.1c0.1-0.3,0.3-0.5,0.5-0.7c0.8-0.7,1.8-0.8,2.7-0.2l1.3,0.8
			c0.5,0.3,0.9,0.9,1.1,1.5c0.1,0.6,0,1.3-0.4,1.8l-3.9,5.5l6.7,0.9c0.6,0.1,1.2,0.4,1.6,1s0.5,1.2,0.4,1.8l-0.3,1.5
			C320.8,269.2,320.6,269.6,320.2,269.9L320.2,269.9z"/>
		<path class="st4" d="M301.1,256.9c-0.5,0-0.9,0.4-0.9,0.9c0,0.4,0.1,0.7,0.3,1c0.2,0.2,0.4,0.4,0.5,0.6c0.6,0.6,1.2,1.3,2,1.7
			c0.1,0.1,0.4,0.1,0.5,0c0.1-0.1,0.1-0.2,0.1-0.3c0-0.5-0.2-1-0.4-1.5c-0.2-0.5-0.4-1-0.7-1.5c-0.2-0.4-0.6-0.7-0.9-0.9
			C301.5,256.9,301.3,256.8,301.1,256.9L301.1,256.9L301.1,256.9z"/>
		<path class="st4" d="M310,260.4c-0.1-0.7,0.2-1.6,0.6-2.2c0.4-0.7,0.8-1.4,1.2-2c0.3-0.5,0.7-1.2,1.3-1.3c0.6,0,1.5,0.6,1.5,1.2
			c0,0.2-0.1,0.4-0.2,0.5c-0.4,0.9-1,1.7-1.6,2.4c-0.3,0.4-0.6,0.7-1,1.1c-0.3,0.3-0.6,0.7-1,0.9c-0.1,0-0.3,0.1-0.4,0
			c-0.1,0-0.2-0.1-0.2-0.2C310.1,260.8,310,260.6,310,260.4L310,260.4z"/>
		<path class="st5" d="M299,269.1c-0.1,0.3-0.2,0.6-0.2,0.9c0,0.3,0.2,0.6,0.5,0.8c0.2,0.1,0.5,0.2,0.8,0.2c0.8-0.1,1.7-0.4,2.4-0.9
			c0.5-0.3,1.1-0.6,1.4-1c0.1-0.2,0.2-0.4,0.1-0.6c-0.2-0.4-0.7-0.4-1-0.4c-0.6,0-1.2,0-1.8,0.1c-0.5,0-1,0.1-1.5,0.4
			C299.4,268.6,299.2,268.8,299,269.1L299,269.1z"/>
		<path class="st3" d="M278.2,329.8c-0.7-0.6-1-1.5-0.9-2.4l1.3-7.6l-7.3,2.4c-0.9,0.3-1.8,0.1-2.5-0.5c-0.4-0.4-0.7-0.8-0.8-1.4
			l-0.4-1.7c-0.2-0.7,0-1.5,0.4-2.1c0.4-0.6,1.1-1,1.8-1.1l7.6-1.1l-4.6-6.2c-0.4-0.6-0.6-1.3-0.5-2.1c0.1-0.7,0.6-1.3,1.2-1.7
			l1.5-0.9c1-0.6,2.2-0.5,3,0.2c0.3,0.2,0.5,0.5,0.6,0.8l3.4,6.9l4.5-6.2c0.4-0.6,1.1-1,1.8-1.1c0.7-0.1,1.5,0.1,2,0.6l1.3,1.1
			c0.6,0.5,0.9,1.2,0.9,1.9c0,0.7-0.3,1.4-0.8,2l-5.5,5.3l7.3,2.3c0.3,0.1,0.6,0.3,0.9,0.5c0.9,0.7,1.1,1.9,0.7,3l-0.7,1.6
			c-0.3,0.7-0.8,1.2-1.5,1.5c-0.7,0.2-1.4,0.2-2.1-0.1l-6.8-3.6l0.1,7.7c0,0.7-0.3,1.4-0.8,1.9c-0.5,0.5-1.3,0.8-2,0.7l-1.8-0.1
			C279.2,330.4,278.6,330.2,278.2,329.8L278.2,329.8z"/>
		<path class="st4" d="M289.9,306.2c-0.1-0.5-0.6-0.9-1.1-0.9c-0.4,0-0.8,0.2-1.1,0.5c-0.2,0.2-0.4,0.5-0.6,0.7
			c-0.6,0.8-1.2,1.6-1.6,2.5c-0.1,0.2-0.1,0.4,0,0.6c0.1,0.1,0.2,0.1,0.3,0.1c0.6,0,1.1-0.3,1.6-0.6c0.5-0.3,1.1-0.6,1.5-1.1
			c0.4-0.3,0.7-0.7,0.9-1.2C290,306.6,290,306.4,289.9,306.2L289.9,306.2L289.9,306.2z"/>
		<path class="st4" d="M287.3,316.8c0.8-0.3,1.8,0,2.6,0.3c0.8,0.3,1.7,0.6,2.5,1c0.6,0.2,1.5,0.6,1.6,1.3c0.1,0.6-0.4,1.8-1.1,1.9
			c-0.2,0-0.4,0-0.6-0.1c-1-0.3-2-0.8-2.9-1.4c-0.5-0.3-0.9-0.6-1.4-0.9c-0.4-0.3-0.9-0.6-1.2-1c-0.1-0.1-0.1-0.3-0.1-0.4
			c0-0.1,0.1-0.2,0.2-0.3C287,316.9,287.1,316.8,287.3,316.8L287.3,316.8z"/>
		<path class="st5" d="M275.8,305.8c-0.3-0.1-0.7-0.2-1-0.1c-0.4,0.1-0.7,0.3-0.8,0.6c-0.1,0.3-0.1,0.6-0.1,0.9
			c0.2,0.9,0.8,1.8,1.3,2.5c0.4,0.5,0.8,1.1,1.4,1.4c0.2,0.1,0.5,0.1,0.7,0c0.4-0.2,0.4-0.8,0.3-1.2c-0.1-0.7-0.2-1.3-0.4-2
			c-0.1-0.6-0.3-1.1-0.7-1.6C276.4,306.1,276.1,305.9,275.8,305.8L275.8,305.8z"/>
		<path class="st3" d="M184.6,319.6c-0.5-0.6-0.7-1.4-0.4-2.1l2-6.2l-6.4,1.2c-0.8,0.1-1.6-0.1-2.1-0.7c-0.3-0.4-0.5-0.8-0.5-1.3
			l-0.1-1.5c-0.1-0.6,0.2-1.2,0.6-1.7c0.4-0.5,1-0.7,1.6-0.7h6.5l-3.1-5.8c-0.3-0.6-0.3-1.2-0.1-1.8c0.2-0.6,0.6-1.1,1.2-1.3
			l1.4-0.6c0.9-0.4,1.9-0.1,2.5,0.6c0.2,0.2,0.3,0.5,0.4,0.8l2,6.2l4.5-4.7c0.4-0.4,1-0.7,1.7-0.7c0.6,0,1.2,0.3,1.6,0.8l1,1.1
			c0.4,0.5,0.6,1.1,0.5,1.7c-0.1,0.6-0.4,1.2-0.9,1.5l-5.3,3.8l5.9,2.8c0.3,0.1,0.5,0.3,0.7,0.5c0.6,0.7,0.7,1.8,0.2,2.6l-0.8,1.3
			c-0.3,0.5-0.8,0.9-1.5,1c-0.6,0.1-1.2,0-1.8-0.4l-5.3-3.8l-0.9,6.5c-0.1,0.6-0.4,1.2-0.9,1.5c-0.5,0.4-1.2,0.5-1.8,0.3l-1.4-0.3
			C185.3,320.2,184.9,319.9,184.6,319.6L184.6,319.6z"/>
		<path class="st4" d="M197.4,301.1c0-0.5-0.4-0.8-0.8-0.9c-0.3,0-0.7,0.1-1,0.3c-0.2,0.1-0.4,0.3-0.6,0.5c-0.6,0.6-1.2,1.2-1.7,1.9
			c-0.1,0.2-0.1,0.3,0,0.5c0.1,0.1,0.2,0.1,0.3,0.1c0.5,0,1-0.2,1.4-0.3c0.5-0.2,1-0.4,1.4-0.7c0.4-0.2,0.7-0.5,0.9-0.9
			C197.3,301.5,197.4,301.3,197.4,301.1L197.4,301.1L197.4,301.1z"/>
		<path class="st4" d="M193.9,309.7c0.7-0.1,1.5,0.2,2.1,0.6c0.7,0.4,1.3,0.7,2,1.1c0.4,0.3,1.2,0.7,1.2,1.3c0,0.6-0.6,1.4-1.2,1.4
			c-0.2,0-0.4-0.1-0.5-0.2c-0.8-0.4-1.6-0.9-2.3-1.5c-0.4-0.3-0.7-0.6-1.1-1c-0.3-0.3-0.7-0.6-0.9-1c-0.1-0.1-0.1-0.2,0-0.4
			c0-0.1,0.1-0.2,0.2-0.2C193.6,309.8,193.7,309.8,193.9,309.7L193.9,309.7z"/>
		<path class="st5" d="M185.5,299c-0.3-0.1-0.5-0.2-0.8-0.2c-0.3,0-0.6,0.2-0.8,0.4c-0.2,0.2-0.2,0.5-0.2,0.8
			c0.1,0.8,0.4,1.6,0.8,2.3c0.3,0.4,0.6,1,1,1.3c0.2,0.1,0.4,0.2,0.6,0.1c0.3-0.2,0.4-0.6,0.4-1c0-0.6,0-1.1,0-1.7
			c0-0.5-0.1-1-0.4-1.4C186,299.4,185.8,299.2,185.5,299L185.5,299z"/>
		<path class="st6" d="M200.4,261.8c0,3.9-3.2,7.2-7.2,7.2c-2.5,0-4.7-1.3-6-3.3c-0.7-1.1-1.2-2.5-1.2-3.9c0-3.9,3.2-7.2,7.2-7.2
			c0.9,0,1.8,0.2,2.6,0.5C198.5,256.1,200.4,258.7,200.4,261.8z"/>
		<path class="st5" d="M195.9,256.2c-0.2,1.3-1.4,2.1-2.6,2.8c-1.2,0.6-2.5,1.3-2.9,2.6c-0.3,0.9,0,2-0.4,2.9
			c-0.5,1-1.7,1.4-2.8,1.2c-0.7-1.1-1.2-2.5-1.2-3.9c0-4,3.2-7.2,7.2-7.2c0.9,0,1.8,0.2,2.6,0.5
			C195.9,255.5,195.9,255.9,195.9,256.2L195.9,256.2z"/>
		<path class="st6" d="M283.2,276.2c0,3.3-2.7,6-6,6c-2.1,0-4-1.1-5.1-2.8c-0.6-0.9-1-2.1-1-3.3c0-3.3,2.7-6,6-6
			c0.8,0,1.5,0.1,2.2,0.4C281.6,271.5,283.2,273.7,283.2,276.2z"/>
		<path class="st5" d="M279.4,271.6c-0.2,1.1-1.2,1.8-2.2,2.3c-1,0.5-2.1,1.1-2.4,2.2c-0.2,0.8,0,1.7-0.4,2.4
			c-0.4,0.8-1.4,1.1-2.3,1c-0.6-0.9-1-2.1-1-3.3c0-3.3,2.7-6,6-6c0.8,0,1.5,0.1,2.2,0.4C279.4,270.9,279.5,271.2,279.4,271.6
			L279.4,271.6z"/>
		<path class="st6" d="M248.9,255.9c0,2.6-2.1,4.7-4.7,4.7c-1.6,0-3.1-0.9-3.9-2.1c-0.5-0.7-0.8-1.6-0.8-2.6c0-2.6,2.1-4.7,4.7-4.7
			c0.6,0,1.2,0.1,1.7,0.3C247.6,252.3,248.9,254,248.9,255.9L248.9,255.9z"/>
		<path class="st6" d="M223.4,324.8c0,2.6-2.1,4.7-4.7,4.7c-1.6,0-3.1-0.9-3.9-2.1c-0.5-0.7-0.8-1.6-0.8-2.5c0-2.6,2.1-4.7,4.7-4.7
			c0.6,0,1.2,0.1,1.7,0.3C222.1,321.1,223.4,322.8,223.4,324.8L223.4,324.8z"/>
		<path class="st6" d="M250.3,343.4c0,3.6-2.9,6.6-6.6,6.6c-2.3,0-4.4-1.2-5.5-3c-0.7-1-1.1-2.3-1.1-3.6c0-3.6,2.9-6.6,6.6-6.6
			c0.8,0,1.6,0.2,2.4,0.4C248.5,338.2,250.3,340.6,250.3,343.4L250.3,343.4z"/>
		<path class="st5" d="M246.2,338.3c-0.2,1.2-1.3,2-2.4,2.6c-1.1,0.6-2.3,1.2-2.6,2.4c-0.3,0.9,0,1.9-0.4,2.7
			c-0.4,0.9-1.5,1.3-2.5,1.1c-0.7-1-1.1-2.3-1.1-3.6c0-3.6,2.9-6.6,6.6-6.6c0.8,0,1.6,0.2,2.4,0.4
			C246.2,337.6,246.2,337.9,246.2,338.3L246.2,338.3z"/>
		<path class="st6" d="M323.9,316.7c0,2.6-2.1,4.7-4.7,4.7c-1.6,0-3.1-0.8-3.9-2.1c-0.5-0.7-0.8-1.6-0.8-2.5c0-2.6,2.1-4.7,4.7-4.7
			c0.6,0,1.2,0.1,1.7,0.3C322.7,313,323.9,314.7,323.9,316.7L323.9,316.7z"/>
	</g>
</g>
</svg>
