<?xml version="1.0" encoding="utf-8"?>
<!-- Generator: Adobe Illustrator 26.3.1, SVG Export Plug-In . SVG Version: 6.00 Build 0)  -->
<svg version="1.1" id="Vintagio_Design" xmlns="http://www.w3.org/2000/svg" xmlns:xlink="http://www.w3.org/1999/xlink" x="0px"
	 y="0px" viewBox="0 0 500 500" style="enable-background:new 0 0 500 500;" xml:space="preserve">
<style type="text/css">
	.st0{fill-rule:evenodd;clip-rule:evenodd;fill:#EDEDED;}
	.st1{opacity:0.5;fill-rule:evenodd;clip-rule:evenodd;fill:#FFFFFF;enable-background:new    ;}
	.st2{fill-rule:evenodd;clip-rule:evenodd;fill:#75BEEA;}
	.st3{opacity:0.2;fill-rule:evenodd;clip-rule:evenodd;fill:#FFFFFF;enable-background:new    ;}
	.st4{opacity:0.3;fill-rule:evenodd;clip-rule:evenodd;fill:#FFFFFF;enable-background:new    ;}
	.st5{opacity:0.3;fill:#FFFFFF;enable-background:new    ;}
</style>
<g id="c">
	<g>
		<path class="st0" d="M249.2,316.4c0,18.6-15.1,33.6-33.6,33.6S182,335,182,316.4c0-13,7.4-24.3,18.3-29.9V165.3
			c0-8.5,6.9-15.3,15.3-15.3c2.1,0,4.1,0.4,5.9,1.2c5.5,2.3,9.4,7.8,9.4,14.1v121.2C241.8,292.1,249.2,303.4,249.2,316.4z"/>
		<path class="st1" d="M200.3,174.2v-8.8c0-8.5,6.9-15.3,15.3-15.3c2.1,0,4.1,0.4,5.9,1.2c0.8,1.2,1.3,2.6,1.4,4.1
			C223.7,166,211.1,173.6,200.3,174.2z"/>
		<path class="st2" d="M239.2,316.4c0,13-10.6,23.6-23.6,23.6c-4,0-7.8-1-11.1-2.8c-7.4-4-12.5-11.8-12.5-20.8s4.9-16.9,12.8-21
			l5.4-2.8v-7.3c0-2.9,2.4-5.3,5.3-5.3s5.3,2.4,5.3,5.3v7.3l5.4,2.8C234.3,299.5,239.2,307.5,239.2,316.4z"/>
		<path class="st3" d="M214.1,300.1c-0.3,5.9-4.2,8.7-7.2,13.3c-1.8,2.7-2.5,6.1-2.1,9.3c0.5,3.8,2.6,7.5,1.6,11.2
			c-0.3,1.3-1,2.4-1.9,3.4c-7.4-4-12.5-11.8-12.5-20.8s4.9-16.9,12.8-21l5.4-2.8v0c1.4,0.8,2.5,1.9,3.1,3.3
			C214,297.2,214.1,298.7,214.1,300.1L214.1,300.1z"/>
		<path class="st4" d="M206.2,298.3c-0.2,0-0.4,0.1-0.6,0.2c-3,1.6-5.4,4.2-6.7,7.3c-0.4,0.9-0.7,2-0.3,3c0.3,0.8,1,1.4,1.9,1.3
			c1.1-0.1,1.6-1.3,2.1-2.2c1.2-2.4,2.8-4.5,4.8-6.2c0.3-0.3,0.7-0.6,0.9-1c0.1-0.1,0.1-0.2,0.1-0.3c0.4-1.1-0.7-2.3-1.9-2.1
			L206.2,298.3L206.2,298.3z"/>
		<path class="st2" d="M298.6,229.6c-2.3,0-4.4-1.2-5.5-3.1l-9.7-16.3l-9.7,16.3c-1.2,2-3.2,3.1-5.5,3.1c-1.4,0-2.7-0.4-3.8-1.2
			l-3.5-2.6c-1.5-1.1-2.4-2.7-2.6-4.5s0.4-3.6,1.5-5l12.5-14.3l-18.5-4.2c-1.8-0.4-3.3-1.5-4.2-3.1c-0.9-1.6-1.1-3.5-0.5-5.2
			l1.3-4.1c0.9-2.7,3.3-4.5,6.1-4.5c0.9,0,1.7,0.2,2.5,0.5l17.5,7.5l-1.7-18.9c-0.2-1.8,0.4-3.6,1.7-4.9s2.9-2.1,4.8-2.1h4.3
			c1.8,0,3.5,0.8,4.8,2.1c1.2,1.3,1.8,3.1,1.7,4.9l-1.7,18.9l17.5-7.5c0.8-0.4,1.7-0.5,2.5-0.5c2.8,0,5.3,1.8,6.1,4.5l1.3,4.1
			c0.6,1.7,0.4,3.6-0.5,5.2c-0.9,1.6-2.4,2.7-4.2,3.1l-18.5,4.2l12.5,14.3c1.2,1.4,1.8,3.2,1.5,5c-0.2,1.8-1.2,3.4-2.6,4.5l-3.5,2.6
			C301.3,229.2,300,229.6,298.6,229.6L298.6,229.6z"/>
		<path class="st4" d="M282.5,166.5c-1-0.9-2.6-0.8-3.5,0.2c-0.7,0.7-1.1,1.7-1.3,2.7c-0.1,0.8-0.1,1.6-0.1,2.4
			c0.1,2.5,0.2,5,1.1,7.3c0.2,0.5,0.5,1,0.9,1c0.3,0,0.6-0.2,0.8-0.4c1-1,1.5-2.4,1.9-3.8c0.5-1.5,1-2.9,1.2-4.5
			c0.2-1.2,0.1-2.5-0.2-3.7C283.2,167.2,282.9,166.8,282.5,166.5L282.5,166.5L282.5,166.5z"/>
		<path class="st4" d="M294.6,190.6c1.1-1.8,3.5-2.9,5.3-3.6c2-0.7,4.1-1.5,6.2-2.1c1.5-0.5,3.8-1.3,5.2-0.2c1.3,1,2,4,0.9,5.3
			c-0.4,0.4-0.8,0.6-1.3,0.8c-2.5,1.1-5.1,1.7-7.8,2.1c-1.4,0.2-2.7,0.3-4.1,0.5c-1.2,0.1-2.7,0.4-3.9,0c-0.3-0.1-0.7-0.3-0.9-0.6
			c-0.1-0.2-0.1-0.5-0.1-0.8C294.2,191.5,294.4,191,294.6,190.6z"/>
		<path class="st5" d="M255.3,188.5c-0.8,0.3-1.6,0.8-2.1,1.4c-0.5,0.7-0.8,1.6-0.5,2.5c0.2,0.7,0.7,1.3,1.3,1.8
			c1.9,1.4,4.4,2.2,6.6,2.6c1.5,0.3,3.3,0.7,4.8,0.3c0.6-0.1,1.2-0.6,1.3-1.1c0.3-1.1-0.6-2.2-1.3-2.9c-1.2-1.1-2.5-2.2-3.9-3.2
			c-1.2-0.8-2.4-1.7-3.9-1.8C257,188.1,256.1,188.2,255.3,188.5L255.3,188.5z"/>
	</g>
</g>
</svg>
