<?xml version="1.0" encoding="utf-8"?>
<!-- Generator: Adobe Illustrator 26.3.1, SVG Export Plug-In . SVG Version: 6.00 Build 0)  -->
<svg version="1.1" id="Vintagio_Design" xmlns="http://www.w3.org/2000/svg" xmlns:xlink="http://www.w3.org/1999/xlink" x="0px"
	 y="0px" viewBox="0 0 500 500" style="enable-background:new 0 0 500 500;" xml:space="preserve">
<style type="text/css">
	.st0{fill-rule:evenodd;clip-rule:evenodd;fill:#EDEDED;}
	.st1{opacity:0.5;fill-rule:evenodd;clip-rule:evenodd;fill:#FFFFFF;enable-background:new    ;}
	.st2{fill-rule:evenodd;clip-rule:evenodd;fill:#FFC34A;}
	.st3{opacity:0.2;fill-rule:evenodd;clip-rule:evenodd;fill:#FFFFFF;enable-background:new    ;}
	.st4{opacity:0.3;fill-rule:evenodd;clip-rule:evenodd;fill:#FFFFFF;enable-background:new    ;}
	.st5{opacity:0.6;fill-rule:evenodd;clip-rule:evenodd;fill:#FFE332;enable-background:new    ;}
	.st6{opacity:0.15;fill-rule:evenodd;clip-rule:evenodd;fill:#FFFFFF;enable-background:new    ;}
	.st7{fill-rule:evenodd;clip-rule:evenodd;}
	.st8{opacity:0.9;fill-rule:evenodd;clip-rule:evenodd;fill:#FFFFFF;enable-background:new    ;}
	.st9{opacity:0.2;fill-rule:evenodd;clip-rule:evenodd;fill:#CBBEBB;enable-background:new    ;}
</style>
<g id="c">
	<g>
		<path class="st0" d="M246.7,316.4c0,18.6-15,33.6-33.6,33.6s-33.6-15-33.6-33.6c0-13,7.4-24.3,18.3-29.9V165.3
			c0-8.5,6.9-15.3,15.3-15.3c2.1,0,4.1,0.4,5.9,1.2c5.5,2.3,9.4,7.8,9.4,14.1v121.2C239.3,292.1,246.7,303.4,246.7,316.4z"/>
		<path class="st1" d="M197.8,174.2v-8.8c0-8.5,6.9-15.3,15.3-15.3c2.1,0,4.1,0.4,5.9,1.2c0.8,1.2,1.3,2.6,1.4,4.1
			C221.2,166,208.6,173.6,197.8,174.2z"/>
		<path class="st2" d="M236.7,316.4c0,13-10.6,23.6-23.6,23.6c-4,0-7.8-1-11.1-2.8c-7.4-4-12.5-11.8-12.5-20.8s4.9-16.9,12.8-21
			l5.4-2.8v-77.3c0-2.9,2.4-5.3,5.3-5.3s5.3,2.4,5.3,5.3v77.3l5.4,2.8C231.8,299.5,236.7,307.5,236.7,316.4z"/>
		<path class="st3" d="M211.6,300.1c-0.3,5.9-4.2,8.7-7.2,13.3c-1.8,2.7-2.5,6.1-2.1,9.3c0.5,3.8,2.6,7.5,1.6,11.2
			c-0.3,1.3-1,2.4-1.9,3.4c-7.4-4-12.5-11.8-12.5-20.8s4.9-16.9,12.8-21l5.4-2.8v0c1.4,0.8,2.5,1.9,3.1,3.3
			C211.5,297.2,211.7,298.7,211.6,300.1L211.6,300.1z"/>
		<path class="st4" d="M203.8,298.3c-0.2,0-0.4,0.1-0.6,0.2c-3,1.6-5.4,4.2-6.7,7.3c-0.4,0.9-0.7,2-0.4,3c0.3,0.8,1,1.4,1.9,1.3
			c1-0.1,1.6-1.3,2.1-2.2c1.2-2.4,2.8-4.5,4.8-6.2c0.3-0.3,0.7-0.6,0.9-1c0.1-0.1,0.1-0.2,0.1-0.3c0.4-1.1-0.7-2.3-1.9-2.1
			L203.8,298.3L203.8,298.3z"/>
		<g>
			<path class="st2" d="M319.5,188.5c0,11.2-9,20.2-20.2,20.2s-20.2-9-20.2-20.2c0-2.4,0.4-4.7,1.2-6.9c2.8-7.8,10.3-13.3,19-13.3
				c2.8,0,5.5,0.6,8,1.6C314.4,173,319.5,180.2,319.5,188.5z"/>
			<path class="st5" d="M301.7,182.7c-1.7-0.2-3.5-0.5-5.2-0.5c-2.9,0.1-4.7,1.6-6,4c-1.1,2.1-2,4.6-4.5,5.6c-1,0.4-2.3,0.3-3.2-0.5
				c-0.4-0.4-0.7-1-1-1.6l0-0.1c-2.2-5.3-0.9-11.5,3.2-15.6c3.6-3.6,8.6-5.8,14.2-5.8c1.5,0,3,0.2,4.5,0.5c3.2,0.7,5.7,3.3,6.2,6.5
				c0,0.1,0,0.3,0.1,0.4C310.5,180.6,306.2,183.2,301.7,182.7L301.7,182.7z"/>
			<path class="st4" d="M288.5,176.3c-0.3,0-0.6,0-1,0.1c-1.6,0.5-3,1.8-3.6,3.4c-0.3,1-0.3,2.4,0.9,2.8c0.2,0.1,0.5,0.1,0.7,0.1
				c1-0.1,1.7-0.6,2.4-1.2l2.4-1.8c0.3-0.3,0.6-0.6,0.8-1c0.3-0.9-0.1-1.6-0.8-2c-0.4-0.2-0.9-0.4-1.4-0.4L288.5,176.3L288.5,176.3z
				"/>
			<path class="st6" d="M289.1,199c-0.1,0.8-0.1,1.6,0.2,2.4c1.9,4.3,9,6.6,12.4,2.7c1.4-1.6,1.6-4,0.3-5.8
				c-0.6-0.8-1.4-1.2-2.2-1.6c-2.7-1.2-7.2-2.3-9.6,0.1C289.7,197.3,289.3,198.1,289.1,199L289.1,199z"/>
			<path class="st6" d="M293.9,201.9c-0.2,0.5-0.1,1.1,0.3,1.6c0.4,0.5,1,0.8,1.5,1c0.6,0.2,1.4,0.2,1.9-0.1c1-0.8,0.7-2.5-0.4-3.1
				c-0.4-0.2-0.8-0.3-1.2-0.3C295.2,200.8,294.2,200.9,293.9,201.9L293.9,201.9z"/>
			<path class="st7" d="M299.4,188.5C299.4,188.5,299.3,188.6,299.4,188.5c-0.1,0.1-0.2,0.1-0.2,0c0,0,0,0,0,0c0,0,0-0.1,0.1-0.1
				C299.3,188.4,299.3,188.4,299.4,188.5C299.3,188.4,299.3,188.5,299.4,188.5L299.4,188.5z"/>
		</g>
		<path class="st0" d="M320.5,215.2c0,1.8-0.5,3.6-1.5,5.2c-1.6,2.4-4.3,4-7.5,4H252c-3.5,0-6.8-2.1-8.2-5.3c-0.5-1.2-0.8-2.5-1-3.9
			c-0.1-0.8-0.1-1.7-0.1-2.5c0.3-6.9,4.8-13.9,11.5-12.9h0c-0.1-1-0.1-2,0-2.9c1.6-13,21.6-20.6,30.4-6.2c0.7,1.2,1.4,2.5,1.9,3.9
			c8.9-8.6,24.4,0.3,21.5,12l0,0c5.2-0.7,8.7,1,10.7,3.7C319.9,211.8,320.4,213.5,320.5,215.2L320.5,215.2z"/>
		<path class="st1" d="M285.2,198.2c-0.1,1.6-0.5,3.4-1.9,4c-1.2,0.6-2.7,0-3.8-0.7c-1.1-0.7-2.2-1.7-3.5-2.1
			c-2.6-0.8-5.2,0.9-7.1,2.8c-2,1.8-3.9,4-6.6,4.3c-2.4,0.3-4.8-0.9-6.3-2.8c-0.9-1.2-1.5-2.5-1.9-3.9h0c-1.4-14.6,21-24.6,30.5-9.1
			C285.2,193.1,285.4,195.7,285.2,198.2L285.2,198.2z"/>
		<path class="st1" d="M262.3,208.6c-1.4,1.3-3.7,0.6-5.4,1.4c-2.3,1.1-2.6,4.2-4.4,6c-1.9,1.9-5.2,1.8-7.3,0.2l0,0
			c-1.9-1.4-2.7-3.9-2.2-6.2c1.2-5.9,5.3-11.1,11.1-10.2h0c-0.1-1-0.1-2,0-2.9c3.5,0.6,6.6,2.9,8.2,6.1c0.4,0.9,0.7,1.8,0.8,2.8
			C263.3,206.7,263.1,207.9,262.3,208.6L262.3,208.6z"/>
		<path class="st8" d="M273.3,186.1c-0.4-0.7-1.1-1.2-1.9-1.2c-2,0-4,0.1-5.8,1.1c-0.5,0.3-1.1,0.7-1.3,1.3
			c-0.1,0.3-0.1,0.5-0.1,0.8c0,0.6,0.1,1.2,0.6,1.6c0.4,0.4,1,0.6,1.5,0.6s1.1-0.3,1.5-0.6c0.3-0.2,0.6-0.5,1-0.8
			c0.6-0.4,1.3-0.7,2.1-0.9c0.6-0.1,1.2-0.2,1.8-0.5C273.2,187.3,273.6,186.6,273.3,186.1L273.3,186.1L273.3,186.1z"/>
		<path class="st8" d="M261.8,190.6c-0.4,0-0.7,0.1-1,0.3c-0.6,0.5-1,1.1-1.3,1.7c-0.2,0.4-0.3,0.9-0.2,1.3c0.1,0.4,0.3,0.9,0.7,1.1
			c0.3,0.1,0.7,0.1,1,0.1c1.1-0.2,2.1-1,2.5-2.1c0.2-0.4,0.2-0.9,0.1-1.3l0,0c-0.1-0.6-0.7-1-1.3-1.1
			C262.2,190.6,261.8,190.6,261.8,190.6z"/>
		<path class="st8" d="M251.9,202.1c-1.6,0.2-3.1,1.1-4.1,2.4c-0.9,1.1-1.5,2.5-1.7,3.9c-0.1,0.4-0.1,0.9,0.3,1.2
			c0.2,0.2,0.5,0.2,0.7,0.2c0.4,0,0.9,0.1,1.2-0.1c0.6-0.3,0.9-1,1.1-1.6c0.5-1.3,1.3-2.6,2.6-3.1c0.1,0,0.2,0,0.2-0.1
			c0.5-0.1,0.9-0.4,1.1-0.9C254,202.8,252.9,201.9,251.9,202.1L251.9,202.1L251.9,202.1z"/>
		<path class="st8" d="M288.5,195.5c-0.4,0.3-0.7,0.6-0.9,1c-0.2,0.4-0.2,0.8-0.1,1.2c0.3,0.9,1.4,0.9,2.2,0.6
			c0.6-0.3,1.1-0.9,1.6-1.3c0.9-0.7,2-1.1,3.1-1.4c0.4-0.1,0.7-0.2,1-0.4c0.3-0.2,0.5-0.6,0.3-1c-0.2-0.3-0.6-0.5-1-0.5
			c-1.2-0.1-2.5,0.1-3.7,0.6l-0.6,0.2C289.8,194.7,289.2,195,288.5,195.5L288.5,195.5z"/>
		<path class="st9" d="M308.8,210.2c0.9-0.1,1.7-0.1,2.5,0c1.5,0.1,2.9,0.7,3.9,1.8c2.6,3,0.6,7.5-2.9,8.5c-1.5,0.4-3,0.4-4.5,0.4
			c-2-0.1-4.1-0.3-5.8-1.4c-2.3-1.5-3.1-5-0.9-7c0.8-0.8,1.9-1.2,3-1.5C305.5,210.7,307.2,210.3,308.8,210.2L308.8,210.2z"/>
		<path class="st9" d="M292.9,214.9c-0.8,0.4-1.5,0.9-1.9,1.5c-0.3,0.5-0.2,1.1,0,1.6c0.1,0.4,0.3,0.8,0.6,1.1
			c0.9,0.8,2.9,0.8,3.9,0.2c0.8-0.5,1.5-1.8,1.4-2.8c-0.1-0.7-0.7-1.4-1.3-1.7C294.9,214.3,293.8,214.4,292.9,214.9L292.9,214.9z"/>
	</g>
</g>
</svg>
