<?xml version="1.0" encoding="utf-8"?>
<!-- Generator: Adobe Illustrator 26.3.1, SVG Export Plug-In . SVG Version: 6.00 Build 0)  -->
<svg version="1.1" id="Vintagio_Design" xmlns="http://www.w3.org/2000/svg" xmlns:xlink="http://www.w3.org/1999/xlink" x="0px"
	 y="0px" viewBox="0 0 500 500" style="enable-background:new 0 0 500 500;" xml:space="preserve">
<style type="text/css">
	.st0{fill-rule:evenodd;clip-rule:evenodd;fill:#CBBEBB;}
	.st1{opacity:0.2;fill-rule:evenodd;clip-rule:evenodd;fill:#FFFFFF;enable-background:new    ;}
	.st2{opacity:0.3;fill-rule:evenodd;clip-rule:evenodd;fill:#FFFFFF;enable-background:new    ;}
	.st3{fill-rule:evenodd;clip-rule:evenodd;fill:#FFE67B;}
	.st4{opacity:0.6;}
	.st5{fill-rule:evenodd;clip-rule:evenodd;fill:#FFE332;}
	.st6{opacity:0.2;fill-rule:evenodd;clip-rule:evenodd;fill:#CBBEBB;enable-background:new    ;}
	.st7{fill-rule:evenodd;clip-rule:evenodd;fill:#75BEEA;}
	.st8{opacity:0.5;fill-rule:evenodd;clip-rule:evenodd;fill:#FFFFFF;enable-background:new    ;}
</style>
<g id="c">
	<g>
		<g>
			<path class="st0" d="M260.2,185.7c0,11.7-9.5,21.3-21.3,21.3c-9.8,0-18-6.6-20.5-15.6c-0.5-1.8-0.8-3.7-0.8-5.7
				c0-11.8,9.5-21.3,21.3-21.3c2.4,0,4.7,0.4,6.8,1.1c0,0,0,0,0,0C254.2,168.4,260.2,176.3,260.2,185.7L260.2,185.7z"/>
			<path class="st1" d="M249.1,177.4c-5.5,7.2-16.4,10.5-24.5,13.8c-0.2,0.1-0.4,0.1-0.6,0.2c-3.1,0.7-6.1-1.7-6.3-4.9
				c0-0.9,0-1.8,0.1-2.8c0.9-10.2,9-18.4,19.2-19.3c3.1-0.3,6.1,0.1,8.9,1c0,0,0,0,0,0C249.6,168.9,252.2,173.4,249.1,177.4
				L249.1,177.4z"/>
			<path class="st2" d="M237.1,167.1c-0.8,0-1.7,0.1-2.4,0.4c-1.4,0.5-2.7,1.1-3.9,2c-1,0.8-1.9,2-2.2,3.2c-0.1,0.5-0.1,1.2,0.4,1.6
				c1,0.9,3,0.2,4-0.3c0.8-0.5,1.5-1.2,2.4-1.7c0.9-0.6,1.8-1,2.8-1.4c0.4-0.1,0.8-0.3,1.1-0.6c0.5-0.5,0.6-1.4,0.3-2
				c-0.2-0.5-0.8-0.9-1.3-1C237.8,167.2,237.4,167.1,237.1,167.1L237.1,167.1z"/>
		</g>
		<g>
			<path class="st0" d="M350,221.2c-0.2-9.7-5.3-18.2-12.9-23.3c-4.4-2.9-9.6-4.7-15.1-4.8c-11.2-0.3-21,5.8-26.1,14.9
				c-2.7,4.9-6.9,8.7-11.9,10.8c-2.9,1.2-6,1.9-9.2,1.9h-0.7c-8.3,0-15,6.7-15,15c0,4.1,1.7,7.9,4.4,10.6c2.7,2.7,6.5,4.4,10.6,4.4
				h47.1C337.3,250.8,350.4,237.5,350,221.2L350,221.2z"/>
			<path class="st1" d="M338.3,209.6c-2,2.8-5.9,3.2-9.3,3.5c-5.6,0.5-11.7,1.2-15.7,5.2c-2.3,2.3-3.6,5.5-5.7,8.1
				c-2.5,3.2-6.1,5.6-10.2,6.1c-4,0.5-8.4-1.1-10.8-4.4c-0.3-0.4-0.5-0.8-0.8-1.4c-1.7-3.8-0.4-8.2,3-10.7c2.8-2.1,5.2-4.8,7-8
				c5-9.1,14.8-15.2,26.1-14.9c3.9,0.1,7.6,1,10.9,2.5c3.4,1.5,5.9,4.6,6.6,8.2C339.8,205.9,339.6,207.9,338.3,209.6L338.3,209.6z"
				/>
			<path class="st2" d="M326,197.8c-2-2-7.3-1.6-9.4-0.8c-1.3,0.5-2.7,1.4-3,2.8c-0.3,1.4,0.5,2.9,1.9,3.2c1.5,0.3,2.9-0.6,4.4-1
				c1.6-0.4,3.3-0.5,5-0.5c0.4,0,0.8,0,1.1-0.2C327.4,200.9,326.8,198.7,326,197.8L326,197.8z"/>
			<path class="st2" d="M311.3,205.4c0.5-0.4,0.8-1,0.6-1.6c-0.1-0.5-0.4-0.9-0.8-1.2c-0.2-0.2-0.5-0.4-0.8-0.6
				c-1.3-0.5-3,0.8-3.1,2.1c-0.1,0.9,0.8,1.9,1.6,2.2C309.7,206.5,310.6,206,311.3,205.4C311.3,205.5,311.3,205.5,311.3,205.4
				L311.3,205.4z"/>
		</g>
		<g>
			<path class="st3" d="M326.5,236c-6.9,16.4-23.1,28-42.1,28c-25.2,0-45.6-20.4-45.6-45.6c0-1.1,0-2.2,0.1-3.3
				c1.4-20.1,16-36.6,35.1-41.1c-2.3,5.4-3.5,11.4-3.5,17.6c0,8.8,2.5,16.9,6.7,23.9c8,13.1,22.4,21.8,38.9,21.8
				C319.7,237.2,323.2,236.8,326.5,236L326.5,236z"/>
			<g class="st4">
				<path class="st5" d="M274.5,210.3c1.7,3.9,0.5,8.5-3,10.8l-0.1,0c-7.2,4.5-16.9,5.2-24.6,1.4c-2-1-3.8-2.4-5.3-4.1
					c-1.7-1.9-2.5-4.5-2.1-7.1c2.9-18.4,16.7-33.1,34.6-37.3c-2.3,5.4-3.5,11.4-3.5,17.6C270.5,198.2,271.9,204.6,274.5,210.3
					L274.5,210.3z"/>
			</g>
			<path class="st2" d="M251.5,195.4c-2,2-3.5,4.5-4.5,7.1c-1,2.8-2.4,7.7,0.6,9.9c1,0.7,2.3,1,3.5,0.6c2.6-0.9,3.4-3.9,4-6.5
				c0.7-2.8,1.7-5.6,3-8.2c0.3-0.6,0.6-1.3,0.7-1.9c0.2-1.1-0.3-2.3-1.2-3c-0.1-0.1-0.2-0.2-0.3-0.2c-1.5-1-3.2-0.1-4.4,0.9
				C252.4,194.5,252,194.9,251.5,195.4L251.5,195.4z"/>
		</g>
		<path class="st0" d="M310,272.6c0.1,3.8-1.1,7.5-3.1,10.6c-3.2,4.9-8.8,8.3-15.5,8.3H169.1c-7.3,0-14-4.2-16.9-11
			c-1.1-2.5-1.7-5.2-2-7.9c-0.2-1.7-0.2-3.5-0.2-5.2c0.6-14.2,9.8-28.5,23.6-26.6c0,0,0,0,0.1,0c-0.2-2-0.2-4.1,0.1-6
			c3.3-26.7,44.5-42.5,62.7-12.7c1.5,2.4,2.8,5.1,3.9,8.1c18.3-17.6,50.2,0.6,44.2,24.7c-4,16.1-4,16.1,0,0
			c10.7-1.5,18,2.1,22.1,7.6C308.9,265.7,310,269.2,310,272.6L310,272.6z"/>
		<path class="st1" d="M237.5,237.6c-0.2,3.2-1.1,6.9-4,8.3c-2.5,1.2-5.5,0.1-7.8-1.4c-2.3-1.5-4.4-3.5-7.1-4.3
			c-5.3-1.6-10.6,1.9-14.7,5.7c-4,3.7-8.1,8.2-13.5,8.9c-4.9,0.7-9.9-1.9-12.9-5.8c-1.9-2.4-3.1-5.2-3.9-8.1c0,0,0,0,0.1,0
			c-2.8-30.1,43.2-50.6,62.7-18.7C237.5,227.2,237.9,232.4,237.5,237.6L237.5,237.6z"/>
		<path class="st1" d="M190.4,259c-2.9,2.7-7.7,1.2-11.2,2.9c-4.7,2.2-5.3,8.7-9,12.4c-3.8,3.9-10.6,3.6-14.9,0.4l-0.1-0.1
			c-3.9-2.9-5.5-8-4.6-12.8c2.4-12.2,10.9-22.8,22.9-21.1c0,0,0,0,0.1,0c-0.2-2.1-0.2-4.1,0.1-6c7.1,1.3,13.7,5.9,16.9,12.5
			c0.9,1.8,1.5,3.7,1.7,5.7C192.5,255.2,192,257.5,190.4,259L190.4,259z"/>
		<path class="st2" d="M213,212.6c-0.8-1.5-2.3-2.4-4-2.4c-4.1-0.1-8.3,0.3-11.9,2.3c-1.1,0.6-2.2,1.5-2.6,2.7
			c-0.2,0.5-0.2,1.1-0.2,1.7c0,1.2,0.3,2.5,1.1,3.4c0.8,0.9,2,1.2,3.1,1.2c1.2-0.1,2.2-0.5,3.2-1.2c0.7-0.5,1.3-1.1,2-1.6
			c1.3-0.9,2.8-1.5,4.3-1.8c1.2-0.2,2.6-0.3,3.6-1C212.9,215.2,213.6,213.7,213,212.6L213,212.6L213,212.6z"/>
		<path class="st2" d="M189.4,221.9c-0.7,0-1.5,0.2-2,0.6c-1.1,1-2.1,2.2-2.6,3.6c-0.4,0.8-0.6,1.8-0.5,2.6s0.6,1.8,1.4,2.2
			c0.6,0.3,1.4,0.3,2,0.2c2.3-0.4,4.3-2.1,5.1-4.2c0.3-0.9,0.5-1.8,0.2-2.7v0c-0.3-1.3-1.5-2.1-2.8-2.2L189.4,221.9L189.4,221.9z"/>
		<path class="st2" d="M169.1,245.5c-3.3,0.5-6.4,2.2-8.4,4.9c-1.8,2.3-3,5.1-3.5,8c-0.1,0.9-0.1,1.9,0.5,2.5
			c0.4,0.3,0.9,0.4,1.5,0.4c0.8,0.1,1.8,0.1,2.5-0.3c1.2-0.6,1.8-2.1,2.3-3.4c1-2.7,2.7-5.4,5.4-6.3c0.2-0.1,0.3-0.1,0.5-0.1
			c1-0.3,1.8-0.9,2.3-1.8C173.3,247.1,171,245.2,169.1,245.5C169.1,245.5,169.1,245.5,169.1,245.5z"/>
		<path class="st2" d="M244.4,232c-0.7,0.6-1.4,1.2-1.8,2c-0.4,0.7-0.5,1.6-0.2,2.4c0.7,1.9,2.9,2,4.4,1.2c1.3-0.7,2.2-1.8,3.4-2.7
			c1.8-1.4,4.1-2.2,6.3-2.8c0.7-0.2,1.5-0.4,2.1-0.9s1-1.3,0.6-2c-0.3-0.7-1.2-1-2-1c-2.6-0.3-5.2,0.1-7.6,1.1l-1.1,0.5
			C247,230.4,245.6,231.1,244.4,232L244.4,232z"/>
		<path class="st6" d="M286,262.4c1.8-0.1,3.5-0.1,5.2,0.1c3,0.3,6,1.5,8,3.8c5.3,6.1,1.2,15.4-5.9,17.5c-3,0.9-6.2,0.9-9.3,0.8
			c-4.1-0.2-8.4-0.7-11.9-3c-4.7-3.1-6.3-10.2-2-14.3c1.7-1.6,4-2.4,6.2-3.1C279.3,263.3,282.7,262.6,286,262.4L286,262.4z"/>
		<path class="st6" d="M253.2,272c-1.6,0.8-3.1,1.9-3.8,3c-0.7,1-0.5,2.2-0.1,3.3c0.3,0.8,0.7,1.6,1.3,2.2c1.8,1.7,6.1,1.7,8.1,0.4
			c1.7-1.1,3.1-3.7,2.8-5.8c-0.2-1.4-1.4-2.9-2.6-3.6C257.4,270.7,255.2,271.1,253.2,272z"/>
		<path class="st7" d="M189.7,325.5c-0.4,0.7-0.7,1.4-1.1,2c-4.1,6.4-10,7.7-15.1,5.2c-3.3-1.7-5.6-4.6-6-8.4
			c-0.3-2.6,0.3-5.6,1.9-8.9c2.5-5,8.5-7.5,12.8-8.7c2.8-0.8,5.7,0.7,6.7,3.4C190.6,314.2,192.2,320.5,189.7,325.5L189.7,325.5z"/>
		<path class="st1" d="M186.7,326.6c1.1,0.2,1.5,1.5,0.8,2.4c-4,5.1-9.3,5.9-14,3.6c-3-1.5-5.1-3.9-5.8-7.1
			c-0.2-0.8,0.3-1.6,1.1-1.8c3.5-0.9,6.1,2.7,9.3,3.9C181.4,328.8,183.6,326.2,186.7,326.6L186.7,326.6L186.7,326.6z"/>
		<path class="st8" d="M176.9,311.9c-0.4,0-0.8,0.1-1.2,0.3c-1.3,0.7-2.6,2-3,3.5c-0.4,1.6,1,3.5,2.6,2.4c1.3-0.9,3.5-2.6,3.4-4.5
			C178.8,312.4,177.9,311.9,176.9,311.9L176.9,311.9z"/>
		<path class="st8" d="M173.2,327.5c-0.2-0.4-0.5-0.9-0.9-1.1c-0.1,0-0.1-0.1-0.2-0.1c-0.5-0.3-1.1-0.4-1.5,0.1
			c-0.4,0.5-0.4,1.2,0,1.7c0.2,0.4,0.5,0.6,0.9,0.9c0.1,0.1,0.2,0.1,0.3,0.2c0.1,0,0.3,0,0.4,0c0.4,0,0.9-0.2,1.1-0.5
			c0.2-0.3,0.1-0.7,0-1C173.3,327.6,173.3,327.5,173.2,327.5L173.2,327.5z"/>
		<path class="st8" d="M175.6,328.4c0.4-0.1,0.8,0,1.1,0c0.2,0,0.4,0.1,0.6,0.2c0.2,0.2,0.3,0.5,0.3,0.7c0,0.4-0.2,0.6-0.5,0.7
			c-0.5,0.1-1.2,0.3-1.7-0.1C174.9,329.5,174.9,328.6,175.6,328.4L175.6,328.4z"/>
		<path class="st7" d="M232.2,329.4c-0.3,0.5-0.5,1-0.8,1.5c-3,4.7-7.3,5.6-11,3.8c-2.4-1.2-4.1-3.4-4.4-6.1
			c-0.2-1.9,0.2-4.1,1.4-6.5c1.8-3.6,6.2-5.5,9.3-6.4c2-0.6,4.1,0.5,4.9,2.5C232.9,321.2,234,325.8,232.2,329.4L232.2,329.4z"/>
		<path class="st1" d="M230,330.3c0.8,0.1,1.1,1.1,0.6,1.8c-2.9,3.7-6.8,4.3-10.2,2.6c-2.2-1.1-3.7-2.9-4.2-5.2
			c-0.1-0.6,0.2-1.1,0.8-1.3c2.6-0.6,4.4,2,6.8,2.8C226.1,331.8,227.8,329.9,230,330.3L230,330.3L230,330.3z"/>
		<path class="st8" d="M222.9,319.5c-0.3,0-0.6,0.1-0.9,0.2c-1,0.5-1.9,1.5-2.2,2.5c-0.3,1.2,0.7,2.5,1.9,1.7c1-0.7,2.5-1.9,2.5-3.3
			C224.2,319.9,223.6,319.5,222.9,319.5L222.9,319.5z"/>
		<path class="st8" d="M221,331.3c-0.2-0.4-0.5-0.9-0.9-1.1c-0.1-0.1-0.1-0.1-0.2-0.1c-0.5-0.3-1.1-0.4-1.5,0.1
			c-0.4,0.5-0.4,1.2-0.1,1.7c0.2,0.4,0.6,0.7,0.9,0.9c0.1,0.1,0.2,0.1,0.3,0.2c0.1,0,0.3,0,0.4,0c0.4,0,0.9-0.2,1.1-0.5
			c0.2-0.3,0.1-0.7,0-1C221.1,331.4,221,331.3,221,331.3L221,331.3z"/>
		<path class="st7" d="M281.2,325.5c-0.4,0.7-0.7,1.4-1.1,2c-4.1,6.4-10,7.7-15.1,5.2c-3.3-1.7-5.6-4.6-6-8.4
			c-0.3-2.6,0.3-5.6,1.9-8.9c2.5-5,8.5-7.5,12.8-8.7c2.8-0.8,5.7,0.7,6.7,3.4C282.1,314.2,283.7,320.5,281.2,325.5L281.2,325.5z"/>
		<path class="st1" d="M278.2,326.6c1.1,0.2,1.6,1.5,0.9,2.4c-4,5.1-9.3,5.9-14,3.6c-3-1.5-5.1-3.9-5.8-7.1
			c-0.2-0.8,0.3-1.6,1.1-1.8c3.5-0.9,6.1,2.7,9.3,3.9C272.9,328.8,275.1,326.2,278.2,326.6L278.2,326.6L278.2,326.6z"/>
		<path class="st8" d="M268.5,311.9c-0.4,0-0.8,0.1-1.2,0.3c-1.3,0.7-2.6,2-3,3.5c-0.4,1.6,1,3.5,2.6,2.4c1.3-0.9,3.5-2.6,3.4-4.5
			C270.3,312.4,269.4,311.9,268.5,311.9L268.5,311.9z"/>
		<path class="st8" d="M264.8,327.5c-0.2-0.4-0.5-0.9-0.9-1.1c-0.1,0-0.1-0.1-0.2-0.1c-0.5-0.3-1.1-0.4-1.5,0.1
			c-0.4,0.5-0.4,1.2,0,1.7c0.2,0.4,0.5,0.6,0.9,0.9c0.1,0.1,0.2,0.1,0.3,0.2c0.1,0,0.3,0,0.4,0c0.4,0,0.9-0.2,1.1-0.5
			c0.2-0.3,0.1-0.7,0-1C264.8,327.6,264.8,327.5,264.8,327.5L264.8,327.5z"/>
		<path class="st8" d="M267.1,328.4c0.3-0.1,0.8,0,1.1,0c0.2,0,0.4,0.1,0.6,0.2c0.2,0.2,0.3,0.5,0.3,0.7c0,0.4-0.2,0.6-0.5,0.7
			c-0.5,0.1-1.2,0.3-1.7-0.1C266.4,329.5,266.4,328.6,267.1,328.4L267.1,328.4z"/>
	</g>
</g>
</svg>
