<?xml version="1.0" encoding="utf-8"?>
<!-- Generator: Adobe Illustrator 26.3.1, SVG Export Plug-In . SVG Version: 6.00 Build 0)  -->
<svg version="1.1" id="Vintagio_Design" xmlns="http://www.w3.org/2000/svg" xmlns:xlink="http://www.w3.org/1999/xlink" x="0px"
	 y="0px" viewBox="0 0 500 500" style="enable-background:new 0 0 500 500;" xml:space="preserve">
<style type="text/css">
	.st0{fill-rule:evenodd;clip-rule:evenodd;fill:#FFC34A;}
	.st1{opacity:0.6;fill-rule:evenodd;clip-rule:evenodd;fill:#FFE332;enable-background:new    ;}
	.st2{opacity:0.3;fill-rule:evenodd;clip-rule:evenodd;fill:#FFFFFF;enable-background:new    ;}
	.st3{opacity:0.15;fill-rule:evenodd;clip-rule:evenodd;fill:#FFFFFF;enable-background:new    ;}
	.st4{fill-rule:evenodd;clip-rule:evenodd;}
	.st5{fill-rule:evenodd;clip-rule:evenodd;fill:#FFE332;}
</style>
<g id="c">
	<g>
		<path class="st0" d="M306,250.2c0,30.9-25.1,56-56,56s-56-25.1-56-56c0-6.7,1.2-13.1,3.3-19.1c7.8-21.6,28.5-36.9,52.7-36.9
			c7.8,0,15.3,1.6,22.1,4.5C292,207.3,306,227.1,306,250.2z"/>
		<path class="st1" d="M256.8,234.1c-4.8-0.5-9.6-1.5-14.4-1.3c-7.9,0.3-12.9,4.4-16.6,11.1c-3.2,5.8-5.7,12.9-12.4,15.4
			c-2.9,1.1-6.5,0.8-8.8-1.3c-1.2-1.2-2-2.8-2.7-4.3c0-0.1-0.1-0.1-0.1-0.2c-6.1-14.8-2.5-31.9,8.9-43.1c10.1-10,24-16.1,39.3-16.1
			c4.3,0,8.4,0.5,12.4,1.4c8.9,2,15.9,9,17.3,18c0.1,0.4,0.1,0.7,0.1,1.1C281.2,228.5,269.1,235.4,256.8,234.1L256.8,234.1z"/>
		<path class="st2" d="M220.3,216.5c-0.9,0-1.8,0-2.6,0.3c-4.6,1.2-8.4,4.9-9.9,9.4c-0.9,2.9-0.8,6.6,2.6,7.8c0.7,0.2,1.4,0.3,2,0.3
			c2.6-0.2,4.7-1.7,6.7-3.2l6.6-5c0.9-0.7,1.7-1.6,2.1-2.7c1-2.6-0.4-4.4-2.3-5.5c-1.2-0.7-2.5-1-3.8-1.1L220.3,216.5L220.3,216.5z"
			/>
		<path class="st3" d="M221.9,279.3c-0.4,2.2-0.2,4.5,0.7,6.5c5.3,12.1,25,18.3,34.3,7.5c3.9-4.5,4.5-11.2,0.9-16
			c-1.5-2.1-3.8-3.5-6.2-4.5c-7.5-3.5-20.1-6.5-26.6,0.2C223.5,274.8,222.4,277,221.9,279.3z"/>
		<path class="st3" d="M235.2,287.4c-0.5,1.4-0.2,3.1,0.8,4.4c1,1.3,2.6,2.2,4.3,2.8c1.7,0.5,3.7,0.7,5.2-0.4c2.7-2.1,1.8-7-1.1-8.5
			c-1-0.5-2.1-0.7-3.2-0.9C238.7,284.5,236,284.7,235.2,287.4L235.2,287.4z"/>
		<path class="st4" d="M250.2,250.2c0,0.1-0.1,0.2-0.2,0.2s-0.2-0.1-0.2-0.2c0,0,0-0.1,0-0.1c0-0.1,0.1-0.2,0.2-0.2c0,0,0.1,0,0.1,0
			C250.2,250.1,250.2,250.2,250.2,250.2L250.2,250.2z"/>
		<path class="st0" d="M250,184.8L250,184.8c-3.4,0-6.1-2.6-6.4-5.9l-2.2-24.2c-0.2-2.5,1.7-4.6,4.2-4.6h8.8c2.5,0,4.4,2.1,4.2,4.6
			l-2.2,24.2C256.2,182.2,253.4,184.8,250,184.8L250,184.8z"/>
		<path class="st0" d="M193.5,217.4L193.5,217.4c-1.7,2.9-5.3,4-8.3,2.6l-22.1-10.2c-2.2-1.1-3.1-3.8-1.9-5.9l4.4-7.7
			c1.2-2.2,4.1-2.8,6.1-1.3l19.9,14C194.4,210.8,195.2,214.5,193.5,217.4z"/>
		<path class="st0" d="M193.5,282.6L193.5,282.6c1.7,2.9,0.9,6.6-1.9,8.5l-19.9,14c-2,1.4-4.8,0.8-6.1-1.3l-4.4-7.6
			c-1.2-2.1-0.4-4.9,1.9-6l22.1-10.2C188.2,278.6,191.8,279.7,193.5,282.6L193.5,282.6z"/>
		<path class="st0" d="M250,315.2L250,315.2c3.4,0,6.1,2.6,6.5,5.9l2.2,24.2c0.2,2.5-1.7,4.6-4.2,4.6h-8.8c-2.5,0-4.4-2.1-4.2-4.6
			l2.2-24.2C243.8,317.8,246.6,315.2,250,315.2L250,315.2z"/>
		<path class="st0" d="M306.5,282.6L306.5,282.6c1.7-2.9,5.3-4,8.3-2.6l22.1,10.2c2.2,1.1,3.1,3.8,1.9,5.9l-4.4,7.7
			c-1.2,2.1-4.1,2.8-6.1,1.3l-19.9-14C305.6,289.2,304.8,285.5,306.5,282.6L306.5,282.6z"/>
		<path class="st0" d="M306.5,217.4L306.5,217.4c-1.7-2.9-0.9-6.6,1.9-8.5l19.9-14c2-1.4,4.9-0.8,6.1,1.3l4.4,7.6
			c1.2,2.2,0.4,4.9-1.9,5.9L314.8,220C311.8,221.4,308.2,220.3,306.5,217.4L306.5,217.4z"/>
		<path class="st5" d="M217.6,194.3L217.6,194.3c-1.3,0.8-3,0.3-3.8-0.9l-7.1-11.3c-1-1.6-0.5-3.8,1.2-4.7l0,0
			c1.7-1,3.8-0.3,4.7,1.3l6.2,11.8C219.4,191.9,219,193.5,217.6,194.3z"/>
		<path class="st5" d="M185.5,250.5L185.5,250.5c0,1.5-1.2,2.8-2.7,2.8l-13.3,0.5c-1.9,0.1-3.5-1.4-3.5-3.4l0,0
			c0-1.9,1.6-3.4,3.5-3.4l13.3,0.5C184.3,247.7,185.5,249,185.5,250.5z"/>
		<path class="st5" d="M218.1,306.5L218.1,306.5c1.3,0.8,1.8,2.4,1.1,3.8L213,322c-0.9,1.7-3,2.3-4.7,1.4l0,0
			c-1.7-1-2.2-3.1-1.2-4.7l7.1-11.3C215.1,306.1,216.8,305.7,218.1,306.5L218.1,306.5z"/>
		<path class="st5" d="M282.9,306.2L282.9,306.2c1.3-0.8,3-0.3,3.8,0.9l7.1,11.3c1,1.6,0.5,3.8-1.2,4.7l0,0c-1.7,1-3.8,0.3-4.7-1.4
			l-6.2-11.8C281.1,308.6,281.5,307,282.9,306.2L282.9,306.2z"/>
		<path class="st5" d="M315,250L315,250c0-1.5,1.2-2.8,2.7-2.8l13.3-0.5c1.9-0.1,3.5,1.4,3.5,3.4l0,0c0,1.9-1.6,3.4-3.5,3.4
			l-13.3-0.5C316.2,252.8,315,251.5,315,250z"/>
		<path class="st5" d="M282.4,194L282.4,194c-1.3-0.8-1.8-2.4-1.1-3.8l6.2-11.8c0.9-1.7,3-2.3,4.7-1.3l0,0c1.7,1,2.2,3.1,1.2,4.7
			l-7.1,11.3C285.4,194.4,283.7,194.8,282.4,194z"/>
	</g>
</g>
</svg>
