<?xml version="1.0" encoding="utf-8"?>
<!-- Generator: Adobe Illustrator 26.3.1, SVG Export Plug-In . SVG Version: 6.00 Build 0)  -->
<svg version="1.1" id="Vintagio_Design" xmlns="http://www.w3.org/2000/svg" xmlns:xlink="http://www.w3.org/1999/xlink" x="0px"
	 y="0px" viewBox="0 0 500 500" style="enable-background:new 0 0 500 500;" xml:space="preserve">
<style type="text/css">
	.st0{fill-rule:evenodd;clip-rule:evenodd;fill:#CBBEBB;}
	.st1{opacity:0.2;fill-rule:evenodd;clip-rule:evenodd;fill:#FFFFFF;enable-background:new    ;}
	.st2{opacity:0.3;fill-rule:evenodd;clip-rule:evenodd;fill:#FFFFFF;enable-background:new    ;}
	.st3{opacity:0.2;fill-rule:evenodd;clip-rule:evenodd;fill:#CBBEBB;enable-background:new    ;}
	.st4{fill-rule:evenodd;clip-rule:evenodd;fill:#FFDD4D;}
	.st5{fill-rule:evenodd;clip-rule:evenodd;fill:#75BEEA;}
	.st6{opacity:0.5;fill-rule:evenodd;clip-rule:evenodd;fill:#FFFFFF;enable-background:new    ;}
</style>
<g id="c">
	<g>
		<g>
			<path class="st0" d="M333.6,220.6h-92c-4.6,0-8.2-4-7.7-8.5c0-0.1,0-0.1,0-0.2c1.2-9.8,9.2-17.6,19.1-18.6c3.1-0.3,6,0,8.7,0.9
				c0.1-0.1,0.1-0.3,0.2-0.4c4.3-10.2,14.4-17.3,26.2-17.3c2.7,0,5.3,0.4,7.7,1.1c9.2,2.6,16.5,9.7,19.4,18.7
				c2.8-1.1,5.9-1.6,9.2-1.2c8.8,0.9,15.8,7.9,16.8,16.7c0,0.3,0.1,0.6,0.1,0.9C341.6,216.9,338,220.6,333.6,220.6L333.6,220.6z"/>
			<path class="st1" d="M298.1,189.9c-2.3,3.9-7.1,5.2-10.9,7.7c-5.2,3.4-9.1,9.4-15.3,10.4c-1.7,0.3-3.5,0.1-5-0.8
				c-1.7-1-2.9-2.8-3.6-4.6c-0.8-2-1.2-4.2-1.4-6.4c-0.1-1.6,0.3-3.2,1-4.6c4.8-9.1,14.3-15.2,25.2-15.2c0.7,0,1.4,0,2.1,0.1
				c5.1,0.4,9.2,4.6,8.9,9.7C299.1,187.4,298.8,188.7,298.1,189.9L298.1,189.9z"/>
			<path class="st2" d="M287.1,181.2c-0.5,0-1,0-1.5,0c-1.8,0.1-3.6,0.4-5.2,1.2c-1.1,0.5-2.1,1.1-3,1.8c-1.4,1.1-2.8,2.8-2.3,4.6
				c0.3,1,1.1,1.8,2,2c1.4,0.3,2.6-0.5,3.6-1.3c1.3-1,2.6-2.1,4.1-3c0.7-0.4,1.4-0.7,2.1-1c0.7-0.2,1.5-0.1,2-0.6
				c0.4-0.3,0.5-0.8,0.5-1.2c0-0.7-0.1-1.4-0.6-1.9c-0.4-0.4-0.9-0.4-1.4-0.5C287.3,181.2,287.2,181.2,287.1,181.2L287.1,181.2z"/>
			<path class="st2" d="M272.2,190.8c0.3,0,0.6,0.1,0.9,0.3c0.6,0.5,1.2,1.4,1.3,2.2c0.1,1.1-0.6,2.2-1.6,2.6
				c-0.5,0.2-1,0.3-1.6,0.2c-0.4-0.1-0.8-0.3-1.1-0.6c-0.7-0.9-0.4-2.4,0.1-3.4C270.5,191.5,271.4,190.9,272.2,190.8z"/>
			<path class="st2" d="M256.9,198.1L256.9,198.1c-1.3-0.2-2.9,0.1-4.1,0.3c-1.3,0.2-2.7,0.7-3.8,1.4c-1,0.6-1.9,1.4-2.3,2.5
				c-0.4,1-0.6,2.5,0.5,3.1c0.4,0.2,1,0.2,1.4,0.2c1.1-0.2,2.1-0.8,3.1-1.4c1.3-0.8,2.5-1.5,4.1-1.6c0.7,0,1.4,0,2.1-0.2
				c1.1-0.3,1.6-1.4,1.4-2.4C258.9,198.8,257.9,198.3,256.9,198.1z"/>
		</g>
		<g>
			<path class="st0" d="M223.5,170.1c-0.2-6.9-3.8-13-9.2-16.6c-3.1-2.1-6.8-3.3-10.8-3.4c-8-0.2-15,4.1-18.6,10.6
				c-1.9,3.5-4.9,6.2-8.5,7.7c-2,0.9-4.3,1.3-6.6,1.3h-0.5c-5.9,0-10.7,4.8-10.7,10.7c0,3,1.2,5.6,3.1,7.6c1.9,1.9,4.6,3.1,7.6,3.1
				H203C214.5,191.1,223.8,181.6,223.5,170.1L223.5,170.1z"/>
			<path class="st1" d="M215.2,161.7c-1.5,2-4.2,2.3-6.6,2.5c-4,0.3-8.4,0.9-11.2,3.7c-1.7,1.7-2.6,3.9-4,5.8
				c-1.8,2.3-4.4,4-7.3,4.4c-2.9,0.4-6-0.8-7.7-3.1c-0.2-0.3-0.4-0.6-0.5-1c-1.2-2.7-0.2-5.9,2.1-7.6c2-1.5,3.7-3.4,5-5.7
				c3.6-6.5,10.6-10.9,18.6-10.7c2.8,0.1,5.4,0.7,7.8,1.8c2.4,1.1,4.2,3.3,4.7,5.9C216.2,159.1,216.1,160.5,215.2,161.7L215.2,161.7
				z"/>
			<path class="st2" d="M206.4,153.4c-1.4-1.4-5.2-1.1-6.7-0.6c-0.9,0.4-1.9,1-2.1,2c-0.2,1,0.4,2.1,1.4,2.3
				c1.1,0.2,2.1-0.4,3.1-0.7c1.2-0.3,2.4-0.3,3.6-0.4c0.3,0,0.5,0,0.8-0.1C207.4,155.6,207,154,206.4,153.4L206.4,153.4z"/>
			<path class="st2" d="M189.5,162.2c0.4-0.3,0.5-0.7,0.4-1.2c-0.1-0.3-0.3-0.6-0.5-0.9c-0.2-0.2-0.4-0.3-0.6-0.4
				c-0.9-0.3-2.2,0.5-2.2,1.5c-0.1,0.6,0.6,1.4,1.2,1.6C188.4,163,189,162.6,189.5,162.2C189.5,162.2,189.5,162.2,189.5,162.2
				L189.5,162.2z"/>
		</g>
		<g>
			<path class="st0" d="M310,231.6c0.1,3.3-0.9,6.6-2.8,9.3c-2.8,4.3-7.7,7.3-13.6,7.3H186.2c-6.4,0-12.3-3.7-14.8-9.6
				c-0.9-2.2-1.5-4.5-1.8-7c-0.2-1.5-0.2-3-0.2-4.6c0.5-12.5,8.6-25,20.7-23.3c0,0,0,0,0,0c-0.2-1.8-0.1-3.6,0.1-5.3
				c2.9-23.4,39-37.3,55-11.1c1.3,2.1,2.4,4.5,3.4,7.1c16.1-15.5,44.1,0.5,38.8,21.7c-3.5,14.1-3.5,14.1,0,0
				c9.4-1.3,15.8,1.8,19.4,6.7C309,225.6,309.9,228.6,310,231.6L310,231.6z"/>
			<path class="st1" d="M246.3,200.9c-0.2,2.8-1,6.1-3.5,7.3c-2.2,1-4.8,0.1-6.9-1.2c-2-1.3-3.9-3.1-6.2-3.8
				c-4.6-1.4-9.3,1.7-12.9,5s-7.1,7.2-11.9,7.8c-4.3,0.6-8.6-1.7-11.3-5.1c-1.6-2.1-2.7-4.5-3.4-7.1c0,0,0,0,0,0
				c-2.4-26.4,37.9-44.4,55.1-16.4C246.3,191.8,246.6,196.4,246.3,200.9z"/>
			<path class="st1" d="M205,219.8c-2.5,2.4-6.7,1.1-9.8,2.6c-4.1,2-4.7,7.7-7.9,10.9c-3.4,3.4-9.3,3.2-13.1,0.3l-0.1-0.1
				c-3.4-2.6-4.9-7-4-11.2c2.1-10.7,9.6-20,20.1-18.5c0,0,0,0,0,0c-0.2-1.8-0.1-3.6,0.1-5.3c6.3,1.1,12,5.2,14.8,10.9
				c0.8,1.6,1.3,3.3,1.5,5C206.8,216.4,206.4,218.4,205,219.8L205,219.8z"/>
			<path class="st2" d="M224.8,179c-0.7-1.3-2-2.1-3.5-2.1c-3.6-0.1-7.3,0.3-10.4,2c-1,0.5-1.9,1.3-2.3,2.4c-0.2,0.5-0.2,1-0.2,1.5
				c0,1.1,0.3,2.2,1,2.9c0.7,0.7,1.7,1.1,2.7,1c1,0,2-0.5,2.8-1c0.6-0.4,1.2-1,1.8-1.4c1.1-0.8,2.4-1.3,3.8-1.6
				c1.1-0.2,2.2-0.3,3.2-0.8C224.7,181.2,225.3,180,224.8,179C224.8,179,224.8,179,224.8,179z"/>
			<path class="st2" d="M204,187.2c-0.7,0-1.3,0.2-1.8,0.6c-1,0.8-1.8,1.9-2.3,3.1c-0.3,0.7-0.5,1.5-0.4,2.3
				c0.1,0.8,0.5,1.6,1.3,1.9c0.6,0.3,1.2,0.3,1.8,0.2c2-0.3,3.8-1.8,4.5-3.7c0.3-0.8,0.4-1.6,0.2-2.4v0c-0.3-1.1-1.3-1.9-2.4-1.9
				L204,187.2L204,187.2z"/>
			<path class="st2" d="M186.2,207.9c-2.9,0.4-5.6,1.9-7.4,4.3c-1.6,2-2.6,4.5-3.1,7c-0.1,0.8-0.1,1.7,0.5,2.2
				c0.3,0.3,0.8,0.3,1.3,0.4c0.8,0.1,1.5,0.1,2.2-0.2c1.1-0.5,1.5-1.8,2-3c0.9-2.4,2.4-4.8,4.8-5.5c0.1-0.1,0.3-0.1,0.4-0.1
				c0.9-0.2,1.6-0.8,2-1.6C189.9,209.3,188,207.6,186.2,207.9C186.2,207.9,186.2,207.9,186.2,207.9z"/>
			<path class="st2" d="M252.3,196c-0.6,0.5-1.2,1-1.6,1.8c-0.3,0.6-0.4,1.4-0.2,2.1c0.6,1.7,2.5,1.7,3.9,1c1.1-0.6,2-1.6,3-2.3
				c1.6-1.2,3.6-1.9,5.6-2.5c0.6-0.2,1.3-0.3,1.8-0.8s0.8-1.1,0.5-1.7c-0.3-0.6-1.1-0.8-1.8-0.9c-2.2-0.2-4.6,0.1-6.6,1l-1,0.4
				C254.7,194.6,253.4,195.2,252.3,196z"/>
			<path class="st3" d="M260.1,231.1c-1.4,0.7-2.7,1.7-3.4,2.6c-0.6,0.9-0.4,1.9-0.1,2.9c0.2,0.7,0.6,1.4,1.1,1.9
				c1.6,1.5,5.3,1.5,7.1,0.4c1.5-0.9,2.7-3.3,2.4-5.1c-0.2-1.2-1.3-2.5-2.3-3.1C263.8,230,261.8,230.3,260.1,231.1L260.1,231.1z"/>
		</g>
		<path class="st4" d="M232,243.8l-7.8,19.5c-0.5,1.3,0.1,2.9,1.5,3.4l20.6,8.2c1.1,0.4,1.8,1.6,1.6,2.8l-4.2,31.4l21.8-39.2
			c0.7-1.2,0.3-2.8-0.9-3.5l-7.9-4.9c-1.5-0.9-1.7-3-0.4-4.2l11.8-10.7c1.7-1.6,0.6-4.5-1.7-4.5h-32
			C233.4,242.1,232.4,242.8,232,243.8z"/>
		<path class="st2" d="M242.1,245.1c-0.8-0.7-1.8-1-3.1-0.8c-1.3,0.3-2.7,0.7-3.7,1.4c-1.6,1.1-2.3,2.9-3,4.6
			c-1,2.2-1.6,4.6-1.9,7.1c-0.1,1-0.1,2.3,0.7,2.9c0.5,0.4,1.3,0.4,1.9,0.1s1.1-0.7,1.6-1.2c2.2-2,4.4-4.1,6.5-6.3
			c1.4-1.6,2.7-3.7,2.2-5.9C242.9,246.2,242.6,245.6,242.1,245.1L242.1,245.1z"/>
		<path class="st2" d="M245.7,271.4c0.6,0.2,1.2,0.2,1.8,0.4c1.7,0.4,3.1,1.7,3.3,3.5c0.2,1.1-0.9,3.8,0.6,4.4
			c0.6,0.2,1.3-0.2,1.8-0.8c2.6-3,3.1-9.8-1.3-11.5c-1.5-0.6-3.1-0.5-4.6-0.5c-1.4,0.1-2.6,0.6-2.9,2.2c-0.1,0.7,0.1,1.4,0.6,1.9
			C245.1,271.1,245.4,271.3,245.7,271.4L245.7,271.4z"/>
		<path class="st5" d="M233.9,305.6c-0.3,0.6-0.6,1.2-0.9,1.7c-3.4,5.4-8.4,6.5-12.8,4.4c-2.8-1.4-4.7-3.9-5.1-7.1
			c-0.2-2.2,0.2-4.7,1.6-7.5c2.1-4.2,7.2-6.4,10.8-7.4c2.4-0.7,4.8,0.6,5.7,2.8C234.6,296,236,301.4,233.9,305.6L233.9,305.6z"/>
		<path class="st1" d="M231.2,306.6c0.9,0.1,1.3,1.3,0.7,2c-3.4,4.3-7.9,5-11.8,3.1c-2.5-1.2-4.3-3.3-4.9-6
			c-0.1-0.7,0.2-1.3,0.9-1.5c3-0.7,5.2,2.3,7.9,3.3C226.8,308.4,228.7,306.2,231.2,306.6C231.2,306.6,231.2,306.6,231.2,306.6z"/>
		<path class="st6" d="M223,294.1c-0.4,0-0.7,0.1-1,0.2c-1.1,0.6-2.2,1.7-2.5,2.9c-0.3,1.4,0.8,2.9,2.2,2c1.1-0.8,2.9-2.2,2.9-3.8
			C224.6,294.5,223.8,294.1,223,294.1L223,294.1z"/>
		<path class="st6" d="M219.9,307.2c-0.2-0.4-0.4-0.7-0.7-0.9c-0.1,0-0.1-0.1-0.2-0.1c-0.4-0.3-0.9-0.3-1.3,0.1
			c-0.4,0.4-0.3,1,0,1.4c0.2,0.3,0.5,0.5,0.8,0.8c0.1,0.1,0.2,0.1,0.3,0.1c0.1,0,0.2,0.1,0.4,0c0.3,0,0.8-0.1,0.9-0.5
			C220.1,307.9,220.1,307.6,219.9,307.2C219.9,307.3,219.9,307.3,219.9,307.2L219.9,307.2z"/>
		<path class="st6" d="M221.9,308c0.3-0.1,0.6,0,0.9,0c0.2,0,0.4,0.1,0.5,0.2c0.2,0.1,0.2,0.4,0.2,0.6c0,0.3-0.1,0.5-0.4,0.6
			c-0.4,0.1-1,0.3-1.4-0.1C221.3,308.9,221.3,308.2,221.9,308z"/>
		<path class="st5" d="M300.7,271.1c-0.2,0.4-0.4,0.9-0.7,1.2c-2.5,4-6.2,4.8-9.3,3.2c-2.1-1-3.4-2.8-3.7-5.2
			c-0.2-1.6,0.2-3.4,1.2-5.5c1.5-3.1,5.2-4.6,7.9-5.4c1.7-0.5,3.5,0.4,4.2,2.1C301.2,264.2,302.2,268.1,300.7,271.1z"/>
		<path class="st1" d="M298.8,271.9c0.7,0.1,1,1,0.5,1.5c-2.5,3.1-5.8,3.7-8.6,2.2c-1.8-0.9-3.1-2.4-3.6-4.4c-0.1-0.5,0.2-1,0.6-1.1
			c2.2-0.5,3.8,1.7,5.8,2.4C295.5,273.2,296.9,271.6,298.8,271.9L298.8,271.9L298.8,271.9z"/>
		<path class="st6" d="M292.8,262.8c-0.2,0-0.5,0.1-0.8,0.2c-0.8,0.4-1.6,1.2-1.8,2.1c-0.2,1,0.6,2.1,1.6,1.5
			c0.8-0.6,2.2-1.6,2.1-2.8C293.9,263.1,293.4,262.8,292.8,262.8z"/>
		<path class="st6" d="M291.2,272.7c-0.2-0.4-0.4-0.7-0.7-1c-0.1,0-0.1-0.1-0.2-0.1c-0.4-0.3-0.9-0.3-1.3,0.1s-0.3,1,0,1.4
			c0.2,0.3,0.5,0.6,0.8,0.8c0.1,0.1,0.2,0.1,0.3,0.1c0.1,0,0.2,0,0.4,0c0.3,0,0.8-0.1,0.9-0.5c0.1-0.2,0.1-0.6,0-0.8
			C291.2,272.8,291.2,272.8,291.2,272.7L291.2,272.7z"/>
		<path class="st5" d="M208.4,276.6c-0.3,0.6-0.6,1.2-0.9,1.7c-3.4,5.4-8.4,6.5-12.8,4.4c-2.8-1.4-4.7-3.9-5.1-7.1
			c-0.2-2.2,0.2-4.7,1.6-7.5c2.1-4.2,7.2-6.4,10.8-7.4c2.3-0.7,4.8,0.6,5.7,2.8C209.1,267.1,210.5,272.4,208.4,276.6L208.4,276.6z"
			/>
		<path class="st1" d="M205.8,277.6c0.9,0.2,1.3,1.3,0.7,2.1c-3.4,4.3-7.9,5-11.8,3.1c-2.5-1.2-4.3-3.3-4.9-6
			c-0.1-0.6,0.2-1.3,0.9-1.5c3-0.7,5.1,2.3,7.9,3.3C201.3,279.4,203.2,277.2,205.8,277.6L205.8,277.6z"/>
		<path class="st6" d="M197.6,265.1c-0.3,0-0.7,0.1-1,0.2c-1.1,0.6-2.2,1.7-2.5,2.9c-0.3,1.4,0.8,3,2.2,2c1.1-0.8,2.9-2.2,2.9-3.8
			C199.1,265.6,198.3,265.1,197.6,265.1L197.6,265.1z"/>
		<path class="st6" d="M194.4,278.3c-0.2-0.3-0.4-0.7-0.7-0.9c-0.1,0-0.1-0.1-0.2-0.1c-0.4-0.3-0.9-0.3-1.3,0.1
			c-0.4,0.4-0.3,1,0,1.4c0.2,0.3,0.5,0.5,0.8,0.8c0.1,0.1,0.2,0.1,0.3,0.1c0.1,0,0.2,0,0.4,0c0.3,0,0.8-0.1,0.9-0.5
			C194.6,278.9,194.6,278.6,194.4,278.3C194.5,278.3,194.4,278.3,194.4,278.3L194.4,278.3z"/>
		<path class="st6" d="M196.4,279.1c0.3-0.1,0.6,0,0.9,0c0.2,0,0.4,0,0.5,0.2c0.2,0.1,0.2,0.4,0.2,0.6c0,0.3-0.1,0.5-0.4,0.6
			c-0.4,0.1-1,0.3-1.4-0.1C195.8,280,195.8,279.2,196.4,279.1z"/>
		<path class="st5" d="M282.9,302.5c-0.3,0.6-0.6,1.1-0.9,1.6c-3.1,5-7.7,6-11.6,4c-2.6-1.3-4.3-3.5-4.6-6.5c-0.2-2,0.2-4.3,1.5-6.8
			c1.9-3.9,6.6-5.8,9.9-6.8c2.1-0.6,4.4,0.5,5.2,2.6C283.6,293.8,284.8,298.7,282.9,302.5L282.9,302.5z"/>
		<path class="st1" d="M280.5,303.4c0.9,0.1,1.2,1.2,0.7,1.9c-3.1,3.9-7.2,4.6-10.8,2.8c-2.3-1.1-3.9-3-4.5-5.5
			c-0.1-0.6,0.2-1.2,0.8-1.4c2.7-0.7,4.7,2.1,7.2,3C276.4,305.1,278.2,303.1,280.5,303.4L280.5,303.4L280.5,303.4z"/>
		<path class="st6" d="M273,292c-0.3,0-0.7,0.1-0.9,0.2c-1,0.5-2,1.5-2.3,2.7c-0.3,1.2,0.7,2.7,2,1.8c1-0.7,2.7-2,2.6-3.5
			C274.4,292.4,273.7,292,273,292L273,292z"/>
		<path class="st6" d="M270.2,304c-0.2-0.3-0.4-0.7-0.6-0.9c-0.1,0-0.1-0.1-0.2-0.1c-0.4-0.2-0.8-0.3-1.2,0.1
			c-0.3,0.4-0.3,0.9,0,1.3c0.2,0.3,0.4,0.5,0.7,0.7c0.1,0.1,0.1,0.1,0.2,0.1c0.1,0,0.2,0,0.3,0c0.3,0,0.7-0.1,0.8-0.4
			c0.1-0.2,0.1-0.5,0-0.7C270.2,304.1,270.2,304.1,270.2,304L270.2,304z"/>
		<path class="st6" d="M272,304.8c0.3-0.1,0.6,0,0.9,0c0.2,0,0.3,0,0.5,0.1c0.1,0.1,0.2,0.4,0.2,0.6c0,0.3-0.1,0.4-0.4,0.5
			c-0.4,0.1-0.9,0.2-1.3-0.1C271.4,305.6,271.4,304.9,272,304.8L272,304.8z"/>
		<path class="st5" d="M183.8,308c-0.2,0.4-0.5,0.9-0.7,1.2c-2.5,4-6.2,4.8-9.3,3.2c-2.1-1-3.5-2.8-3.7-5.2
			c-0.2-1.6,0.2-3.4,1.2-5.5c1.5-3.1,5.2-4.6,7.9-5.4c1.7-0.5,3.5,0.4,4.2,2.1C184.3,301,185.3,304.9,183.8,308z"/>
		<path class="st1" d="M181.9,308.7c0.7,0.1,1,0.9,0.5,1.5c-2.5,3.1-5.8,3.7-8.6,2.2c-1.8-0.9-3.1-2.4-3.6-4.4
			c-0.1-0.5,0.2-1,0.6-1.1c2.2-0.5,3.8,1.7,5.8,2.4C178.6,310,180,308.4,181.9,308.7L181.9,308.7L181.9,308.7z"/>
		<path class="st6" d="M175.9,299.6c-0.2,0-0.5,0.1-0.8,0.2c-0.8,0.4-1.6,1.2-1.8,2.1c-0.2,1,0.6,2.1,1.6,1.5
			c0.8-0.6,2.2-1.6,2.1-2.8C177,299.9,176.4,299.6,175.9,299.6L175.9,299.6z"/>
		<path class="st6" d="M174.3,309.6c-0.2-0.4-0.4-0.7-0.7-1c-0.1,0-0.1-0.1-0.2-0.1c-0.4-0.3-0.9-0.3-1.3,0.1s-0.3,1,0,1.5
			c0.2,0.3,0.5,0.6,0.8,0.8c0.1,0.1,0.2,0.1,0.3,0.1c0.1,0,0.2,0,0.4,0c0.3,0,0.8-0.1,0.9-0.5c0.1-0.2,0.1-0.6,0-0.8
			C174.3,309.6,174.3,309.6,174.3,309.6L174.3,309.6z"/>
		<path class="st5" d="M253.9,334.8c-0.2,0.4-0.5,0.8-0.7,1.2c-2.5,4-6.2,4.8-9.3,3.2c-2.1-1-3.5-2.8-3.7-5.2
			c-0.2-1.6,0.2-3.4,1.2-5.5c1.5-3.1,5.2-4.6,7.9-5.4c1.7-0.5,3.5,0.4,4.2,2.1C254.4,327.8,255.4,331.7,253.9,334.8z"/>
		<path class="st1" d="M252,335.5c0.7,0.1,1,0.9,0.5,1.5c-2.5,3.1-5.8,3.7-8.6,2.2c-1.8-0.9-3.1-2.4-3.6-4.4c-0.1-0.5,0.2-1,0.6-1.1
			c2.2-0.5,3.8,1.7,5.8,2.4C248.7,336.8,250.1,335.2,252,335.5L252,335.5L252,335.5z"/>
		<path class="st6" d="M246,326.4c-0.2,0-0.5,0.1-0.8,0.2c-0.8,0.4-1.6,1.2-1.8,2.1c-0.2,1,0.6,2.1,1.6,1.4c0.8-0.6,2.1-1.6,2.1-2.8
			C247.1,326.7,246.6,326.4,246,326.4L246,326.4z"/>
		<path class="st6" d="M244.4,336.3c-0.2-0.4-0.4-0.7-0.7-1c-0.1,0-0.1-0.1-0.2-0.1c-0.4-0.3-0.9-0.3-1.3,0.1c-0.4,0.4-0.3,1,0,1.4
			c0.2,0.3,0.5,0.6,0.8,0.8c0.1,0.1,0.2,0.1,0.3,0.2c0.1,0,0.2,0,0.4,0c0.3,0,0.8-0.1,0.9-0.5c0.1-0.2,0.1-0.6,0-0.8
			C244.4,336.4,244.4,336.4,244.4,336.3L244.4,336.3z"/>
		<path class="st5" d="M213,344.8c-0.2,0.4-0.5,0.9-0.7,1.2c-2.5,4-6.2,4.8-9.3,3.2c-2.1-1-3.5-2.8-3.7-5.2
			c-0.2-1.6,0.2-3.4,1.2-5.5c1.5-3.1,5.2-4.6,7.9-5.4c1.7-0.5,3.5,0.4,4.2,2.1C213.6,337.8,214.6,341.7,213,344.8z"/>
		<path class="st1" d="M211.1,345.5c0.7,0.1,1,0.9,0.5,1.5c-2.5,3.1-5.8,3.7-8.6,2.2c-1.8-0.9-3.1-2.4-3.6-4.4
			c-0.1-0.5,0.2-1,0.6-1.1c2.2-0.5,3.8,1.7,5.8,2.4C207.9,346.9,209.3,345.2,211.1,345.5L211.1,345.5L211.1,345.5z"/>
		<path class="st6" d="M205.2,336.4c-0.2,0-0.5,0.1-0.8,0.2c-0.8,0.4-1.6,1.2-1.8,2.2c-0.2,1,0.6,2.1,1.6,1.4
			c0.8-0.6,2.1-1.6,2.1-2.8C206.3,336.7,205.7,336.4,205.2,336.4L205.2,336.4z"/>
		<path class="st6" d="M203.6,346.4c-0.2-0.4-0.4-0.7-0.7-1c-0.1,0-0.1-0.1-0.2-0.1c-0.4-0.3-0.9-0.3-1.3,0.1s-0.3,1,0,1.5
			c0.2,0.3,0.5,0.6,0.8,0.8c0.1,0.1,0.2,0.1,0.3,0.1c0.1,0,0.2,0,0.4,0c0.3,0,0.8-0.1,0.9-0.5c0.1-0.2,0.1-0.6,0-0.8
			C203.6,346.5,203.6,346.4,203.6,346.4L203.6,346.4z"/>
	</g>
</g>
</svg>
