<?xml version="1.0" encoding="utf-8"?>
<!-- Generator: Adobe Illustrator 26.3.1, SVG Export Plug-In . SVG Version: 6.00 Build 0)  -->
<svg version="1.1" id="Vintagio_Design" xmlns="http://www.w3.org/2000/svg" xmlns:xlink="http://www.w3.org/1999/xlink" x="0px"
	 y="0px" viewBox="0 0 500 500" style="enable-background:new 0 0 500 500;" xml:space="preserve">
<style type="text/css">
	.st0{fill-rule:evenodd;clip-rule:evenodd;fill:#EDEDED;}
	.st1{opacity:0.5;fill-rule:evenodd;clip-rule:evenodd;fill:#FFFFFF;enable-background:new    ;}
	.st2{opacity:0.9;fill-rule:evenodd;clip-rule:evenodd;fill:#FFFFFF;enable-background:new    ;}
	.st3{opacity:0.2;fill-rule:evenodd;clip-rule:evenodd;fill:#CBBEBB;enable-background:new    ;}
	.st4{fill:#75BEEA;}
	.st5{opacity:0.5;}
	.st6{fill:#FFFFFF;}
</style>
<g id="c">
	<g>
		<g>
			<path class="st0" d="M350,258.6c0.1,4.1-1.2,8.2-3.4,11.6c-3.5,5.3-9.6,9.1-16.9,9.1H196.2c-7.9,0-15.3-4.6-18.4-12
				c-1.2-2.7-1.9-5.6-2.2-8.7c-0.2-1.9-0.3-3.8-0.2-5.7c0.7-15.6,10.7-31.1,25.7-29c0,0,0,0,0.1,0c-0.2-2.2-0.2-4.4,0.1-6.6
				c3.6-29.1,48.5-46.3,68.4-13.8c1.6,2.6,3,5.6,4.3,8.8c20-19.2,54.8,0.6,48.3,26.9c-4.4,17.6-4.4,17.6,0,0
				c11.7-1.7,19.6,2.3,24.1,8.3C348.7,251.1,349.9,254.9,350,258.6L350,258.6z"/>
			<path class="st1" d="M270.9,220.4c-0.3,3.5-1.2,7.5-4.4,9c-2.7,1.3-6,0.1-8.6-1.6c-2.5-1.7-4.8-3.8-7.7-4.7
				c-5.7-1.7-11.6,2.1-16,6.2c-4.4,4.1-8.8,8.9-14.7,9.7c-5.3,0.8-10.8-2.1-14.1-6.3c-2-2.6-3.4-5.6-4.3-8.8c0,0,0,0,0.1,0
				c-3-32.9,47.2-55.2,68.4-20.4C270.9,209.1,271.3,214.8,270.9,220.4L270.9,220.4z"/>
			<path class="st1" d="M219.5,243.8c-3.1,2.9-8.4,1.4-12.2,3.2c-5.1,2.4-5.8,9.5-9.8,13.5c-4.2,4.2-11.6,4-16.3,0.4l-0.1-0.1
				c-4.3-3.2-6-8.7-5-14c2.6-13.3,11.9-24.8,25-23c0,0,0,0,0.1,0c-0.2-2.2-0.2-4.4,0.1-6.5c7.8,1.4,14.9,6.5,18.4,13.6
				c1,1.9,1.7,4,1.9,6.2C221.8,239.6,221.3,242.2,219.5,243.8L219.5,243.8z"/>
			<path class="st2" d="M244.1,193.2c-0.9-1.6-2.5-2.6-4.4-2.6c-4.5-0.1-9.1,0.3-13,2.5c-1.2,0.7-2.4,1.6-2.8,2.9
				c-0.2,0.6-0.2,1.2-0.2,1.8c0,1.3,0.3,2.7,1.2,3.7c0.8,0.9,2.2,1.3,3.4,1.3c1.2-0.1,2.4-0.6,3.5-1.3c0.8-0.5,1.5-1.2,2.2-1.7
				c1.4-1,3-1.7,4.7-2c1.4-0.3,2.8-0.4,4-1.1S244.8,194.4,244.1,193.2C244.1,193.2,244.1,193.2,244.1,193.2z"/>
			<path class="st2" d="M218.3,203.4c-0.8,0-1.6,0.2-2.2,0.7c-1.3,1-2.3,2.4-2.9,3.9c-0.4,0.9-0.6,1.9-0.5,2.9
				c0.1,1,0.7,1.9,1.6,2.4c0.7,0.3,1.5,0.3,2.2,0.2c2.5-0.4,4.7-2.2,5.6-4.6c0.4-1,0.5-2,0.3-3v0c-0.3-1.4-1.6-2.3-3-2.4
				L218.3,203.4L218.3,203.4z"/>
			<path class="st2" d="M196.2,229.1c-3.6,0.6-7,2.4-9.2,5.3c-1.9,2.5-3.3,5.5-3.8,8.7c-0.1,0.9-0.2,2.1,0.6,2.7
				c0.4,0.4,1,0.4,1.6,0.5c0.9,0.1,1.9,0.1,2.7-0.3c1.4-0.7,1.9-2.3,2.5-3.7c1.1-2.9,3-5.9,5.9-6.9c0.2-0.1,0.4-0.1,0.6-0.2
				c1.1-0.3,2-1,2.5-2C200.8,230.8,198.4,228.7,196.2,229.1L196.2,229.1L196.2,229.1z"/>
			<path class="st2" d="M278.4,214.3c-0.8,0.6-1.5,1.3-2,2.2c-0.4,0.8-0.6,1.7-0.3,2.6c0.7,2.1,3.2,2.1,4.8,1.3
				c1.4-0.7,2.5-2,3.7-2.9c2-1.6,4.5-2.4,6.9-3.1c0.8-0.2,1.6-0.4,2.2-0.9s1-1.4,0.7-2.2c-0.4-0.8-1.4-1-2.2-1.1
				c-2.8-0.3-5.7,0.1-8.2,1.2l-1.3,0.5C281.3,212.5,279.7,213.3,278.4,214.3L278.4,214.3z"/>
			<path class="st3" d="M323.7,247.4c1.9-0.1,3.9-0.1,5.7,0.1c3.3,0.3,6.6,1.6,8.7,4.1c5.8,6.7,1.3,16.8-6.5,19.1
				c-3.3,1-6.7,1-10.2,0.9c-4.5-0.2-9.2-0.8-13-3.2c-5.1-3.4-6.9-11.1-2.1-15.6c1.8-1.7,4.3-2.6,6.8-3.3
				C316.5,248.5,320.1,247.7,323.7,247.4L323.7,247.4z"/>
			<path class="st3" d="M288.1,257.9c-1.8,0.9-3.4,2.1-4.2,3.3c-0.8,1.1-0.5,2.4-0.1,3.6c0.3,0.9,0.7,1.8,1.4,2.4
				c2,1.9,6.6,1.8,8.8,0.4c1.9-1.1,3.4-4.1,3-6.3c-0.2-1.5-1.6-3.1-2.8-3.9C292.6,256.5,290.2,256.9,288.1,257.9z"/>
		</g>
		<path class="st4" d="M238.2,283.7H164c-1.9,0-3.5-1.6-3.5-3.5c0-1.9,1.6-3.5,3.5-3.5h74.2c3.8,0,7-3.1,7-7s-3.1-7-7-7h-2.7
			c-1.9,0-3.5-1.6-3.5-3.5c0-1.9,1.6-3.5,3.5-3.5h2.7c7.7,0,14,6.3,14,14C252.1,277.5,245.9,283.7,238.2,283.7L238.2,283.7z"/>
		<path class="st4" d="M215.5,270.9h-62c-1.9,0-3.5-1.6-3.5-3.5c0-1.9,1.6-3.5,3.5-3.5h62c2.9,0,5.2-2.4,5.2-5.2
			c0-2.9-2.3-5.2-5.2-5.2H211c-1.9,0-3.5-1.6-3.5-3.5s1.6-3.5,3.5-3.5h4.5c6.7,0,12.2,5.5,12.2,12.2
			C227.7,265.4,222.2,270.9,215.5,270.9z"/>
		<g class="st5">
			<path class="st6" d="M215.5,270.9h-62c-1.9,0-3.5-1.6-3.5-3.5c0-1.9,1.6-3.5,3.5-3.5h62c2.9,0,5.2-2.4,5.2-5.2
				c0-2.9-2.3-5.2-5.2-5.2H211c-1.9,0-3.5-1.6-3.5-3.5s1.6-3.5,3.5-3.5h4.5c6.7,0,12.2,5.5,12.2,12.2
				C227.7,265.4,222.2,270.9,215.5,270.9z"/>
		</g>
		<path class="st4" d="M230.2,314h-4.5c-1.9,0-3.5-1.6-3.5-3.5c0-1.9,1.6-3.5,3.5-3.5h4.5c2.9,0,5.2-2.4,5.2-5.2s-2.3-5.2-5.2-5.2
			h-75.9c-1.9,0-3.5-1.6-3.5-3.5c0-1.9,1.6-3.5,3.5-3.5h75.9c6.7,0,12.2,5.5,12.2,12.2C242.4,308.5,236.9,314,230.2,314z"/>
		<g class="st5">
			<path class="st6" d="M230.2,314h-4.5c-1.9,0-3.5-1.6-3.5-3.5c0-1.9,1.6-3.5,3.5-3.5h4.5c2.9,0,5.2-2.4,5.2-5.2s-2.3-5.2-5.2-5.2
				h-75.9c-1.9,0-3.5-1.6-3.5-3.5c0-1.9,1.6-3.5,3.5-3.5h75.9c6.7,0,12.2,5.5,12.2,12.2C242.4,308.5,236.9,314,230.2,314z"/>
		</g>
	</g>
</g>
</svg>
